<?xml version="1.0" encoding="utf-8"?>
<!-- Generator: Adobe Illustrator 25.4.2, SVG Export Plug-In . SVG Version: 6.00 Build 0)  -->
<svg version="1.1" id="Layer_1" xmlns="http://www.w3.org/2000/svg" xmlns:xlink="http://www.w3.org/1999/xlink" x="0px" y="0px"
	 viewBox="0 0 272.3 142.7" style="enable-background:new 0 0 272.3 142.7;" xml:space="preserve">
<style type="text/css">
	.st0{enable-background:new    ;}
	.st1{fill:#231F20;}
</style>
<g class="st0">
	<path class="st1" d="M0.4,14.3c0.3-1,0.8-1.9,1.5-2.7c0.7-0.8,1.3-1.3,1.8-1.5l0.7-0.4c0.7-0.2,1.4-0.3,2.1-0.3
		c0.5,0,0.9,0,1.3,0.1c1.1,0.2,2.1,0.5,2.9,1l1.2,0.7c1.5,0.9,2.9,1.3,4.2,1.4c0.2,0,0.3,0,0.5,0.1c1,0,1.7-0.2,2.2-0.5l0.8-0.6v0.7
		c-0.4,0.8-1,1.4-1.7,1.9c-2,1.4-3,3.6-3,6.5v6h20V10.9h3.1v38.2c0,0.2,0,0.4,0,0.7c0,0.3,0.1,0.8,0.2,1.6c0.1,0.8,0.3,1.4,0.6,2
		s0.7,1.1,1.2,1.6c0.6,0.5,1.2,0.7,2,0.7v0.8c-0.2,0.1-0.4,0.1-0.7,0.1c0,0-0.1,0-0.2,0c-0.4,0-0.9-0.1-1.5-0.2
		c-0.8-0.2-1.5-0.4-2.1-0.7c-0.6-0.3-1.2-1-1.7-1.9c-0.5-0.9-0.8-2-0.8-3.3v-4.7V29.6h-20v4.7c0,1.2-0.2,2.2-0.6,3
		c-0.4,0.8-0.9,1.4-1.4,1.7c-0.6,0.3-1.1,0.5-1.7,0.7c-0.6,0.1-1.1,0.2-1.5,0.2l-0.6-0.1v-0.7c0.8,0,1.5-0.4,1.9-1.3
		s0.7-1.7,0.7-2.6l0.1-1.3v-13c0-2.9,1.3-4.9,4-5.8c-0.3,0.1-0.6,0.1-0.9,0.1c-1.2,0-2.7-0.5-4.8-1.6c-1.9-1-3.4-1.5-4.7-1.5
		c-0.2,0-0.4,0-0.6,0.1c-1.4,0.2-2.4,0.8-3,1.6l-0.9,1.2L0.4,14.3z M1.7,52c0.3-1.1,0.8-2,1.6-2.7c0.7-0.7,1.3-1.2,1.9-1.4L6,47.6
		c1-0.3,1.9-0.5,2.9-0.5c0.4,0,0.7,0,1.1,0.1c1.3,0.2,2.4,0.5,3.3,0.9l1.5,0.6c2.1,0.8,3.7,1.2,5,1.2c0.1,0,0.2-0.1,0.2-0.1
		c1.2-0.1,2.1-0.3,2.6-0.8l0.7-0.7l0.6,0.4c-0.5,1.3-1.3,2.3-2.2,2.9c-0.9,0.7-1.7,1-2.4,1.1l-0.9,0.1c-0.7,0-1.5-0.2-2.4-0.5
		c-0.9-0.3-1.7-0.6-2.3-0.8L12.6,51c-2.1-0.8-3.9-1.2-5.3-1.2c-0.3,0-0.6,0-0.9,0.1c-1.6,0.2-2.7,0.7-3.3,1.5l-1,1.2L1.7,52z"/>
</g>
<g class="st0">
	<path class="st1" d="M42.3,44.4c0-2.4,0.1-4,0.3-4.7l12.2-5.5v-2c0,0,0-0.3,0-0.9c0-0.1,0-0.3,0-0.5c0-0.5,0-1.1-0.1-1.8
		c-0.1-0.9-0.3-1.9-0.5-2.8c-0.2-0.9-0.6-1.7-1.1-2.5c-0.5-0.7-1.2-1.2-2-1.4c-0.1,0-0.3,0-0.5,0.1c-0.2,0-0.5,0.2-1,0.4
		c-0.5,0.2-0.9,0.6-1.2,1c-0.4,0.4-0.7,1-1,1.8c-0.3,0.8-0.4,1.8-0.4,2.9h-3.1c0-2.3,0.7-4,2-5.1c1.4-1.1,3.2-1.7,5.5-1.7
		c1.4,0,2.5,0.3,3.4,0.8c0.9,0.5,1.6,1.3,2,2.2c0.4,1,0.7,2,0.9,3c0.2,1,0.2,2.2,0.2,3.6v10.1c0,3.8,0.2,6.4,0.7,7.8
		c0.1,0.2,0.2,0.5,0.4,0.8c0.2,0.3,0.5,0.8,1.1,1.3c0.6,0.6,1.2,0.8,1.8,0.8v0.6c-0.1,0-0.3,0.1-0.5,0.1c-0.1,0-0.2,0-0.2,0
		c-0.2,0-0.5,0-0.9-0.1c-0.6,0-1.1-0.2-1.6-0.3c-0.5-0.2-1-0.5-1.5-1c-0.5-0.5-1-1.1-1.2-1.9l-4,2.5c-0.2,0.1-0.5,0.3-0.9,0.4
		c-0.4,0.2-1.2,0.3-2.3,0.3c0,0-0.1,0-0.1,0.1c-1.1,0-2.1-0.3-3.1-0.9c-0.2-0.1-0.5-0.4-0.9-0.7c-0.3-0.3-0.8-1.1-1.3-2.4
		C42.6,47.5,42.3,46,42.3,44.4z M45.4,44.1c0,0.4,0,0.9,0.1,1.7c0.1,0.9,0.2,1.8,0.4,2.6c0.2,0.8,0.5,1.6,1,2.3s1.1,1.3,1.8,1.5
		l6.6-4.3c0,0-0.1-0.1-0.2-0.4C55,47.2,55,46.1,54.9,44c0-1.4-0.1-3.1-0.1-5.1c0-1,0-2.1,0-3.3l-9.2,4.1L45.4,43L45.4,44.1z"/>
</g>
<g class="st0">
	<path class="st1" d="M60.2,22.8h2.4c1.4,1.9,2.1,2.9,2.1,3.2c0-0.4,1.3-1.8,3.7-4.2c0.5-0.1,0.9-0.1,1.4-0.1c1.6,0,3,0.4,4.2,1.4
		c1.5,1.2,2.3,3,2.3,5.3h-3.1c0-0.8-0.1-1.6-0.3-2.3c-0.2-0.7-0.4-1.2-0.7-1.6c-0.2-0.4-0.5-0.8-0.8-1.1c-0.3-0.3-0.5-0.5-0.7-0.6
		l-0.2-0.1l-4.2,4.7v12c0,0.1,0,0.2,0,0.5c0,0.1,0,0.2,0,0.4c0,7.9,1.3,11.8,3.8,11.8h0.1v0.7c-0.2,0-0.4,0-0.6,0
		c-0.5,0-1,0-1.5-0.1c-0.6-0.1-1.2-0.3-1.6-0.4c-0.5-0.2-0.9-0.5-1.2-0.9c-0.4-0.5-0.6-0.8-0.9-1.1c-0.2-0.3-0.4-0.8-0.6-1.5
		c-0.2-0.8-0.3-1.3-0.4-1.6c-0.1-0.3-0.1-0.9-0.2-1.8c0-0.9-0.1-1.5-0.1-1.7s0-0.9-0.1-1.9v-14L60.2,22.8z"/>
</g>
<g class="st0">
	<path class="st1" d="M77.2,22.4v-0.7c0.1,0,0.2,0,0.4,0c0.8,0,1.6,0.1,2.2,0.4c0.7,0.3,1.3,0.7,1.8,1.3s0.8,1.2,1.1,1.8
		c0.3,0.6,0.5,1.4,0.6,2.4c0.1,1,0.2,1.8,0.2,2.4c0,0.6,0,1.4,0,2.5c0,0.1,0,0.2,0,0.2c0,0.1,0,0.1,0,0.2c0,0.1,0,0.2,0,0.2v13
		c0,1.1,0.1,2.1,0.4,2.9c0.3,0.8,0.6,1.5,1,1.9c0.4,0.4,0.8,0.7,1.2,0.9c0.4,0.2,0.7,0.4,1,0.4l0.4,0.1v0.4c-0.2,0-0.3,0-0.5,0
		c-1.8,0-3.3-0.4-4.6-1.2c-1.3-0.9-2-2.3-2-4.3V31.5C80.3,25.6,79.3,22.5,77.2,22.4z M78.1,16.2l3.4-5.6h3.1l-3.4,5.6H78.1z"/>
</g>
<g class="st0">
	<path class="st1" d="M87,8.1c0.5,0.4,0.9,0.9,1.3,1.6c0.4,0.7,0.7,1.3,0.9,1.9l0.4,0.7l2.2-1.4c-0.6,1-0.9,2.5-0.9,4.6
		c0,5.8,0,8.7-0.1,8.8l2.4-2.6c0.1,0,0.2,0,0.2,0c3.6,0,6.1,0.9,7.6,2.7c1.5,1.9,2.2,4.7,2.2,8.6v14.3l-5.2,5.5c-0.2,0-0.3,0-0.4,0
		c-3.5,0-5.9-0.9-7.4-2.7c-1.4-1.8-2.1-4.4-2.1-7.9c0-0.2,0-0.4,0-0.6V15.4c0-1.5-0.2-2.9-0.3-4.1c-0.2-1.2-0.4-2.1-0.5-2.5L87,8.1z
		 M91,40.1c0,1.2,0,2.1,0,2.8c0,0.6,0.1,1.5,0.3,2.6c0.2,1.1,0.4,2,0.7,2.7c0.3,0.7,0.8,1.4,1.5,2.1c0.6,0.7,1.4,1.3,2.4,1.8
		l4.3-4.9V34.8c0-0.2,0-0.4,0-0.7c0-1.4,0-2.6-0.1-3.4c-0.1-0.8-0.2-1.8-0.5-3.1c-0.2-1.2-0.7-2.3-1.4-3.1c-0.7-0.8-1.6-1.5-2.7-2.1
		L91,27.3v12.1C91,39.6,91,39.8,91,40.1z"/>
	<path class="st1" d="M106.6,41.5V27.1l5.3-5.4c0.1,0,0.2,0,0.2,0c3.6,0,6.2,0.9,7.7,2.7c1.4,1.8,2.1,4.4,2.1,7.9c0,0.2,0,0.4,0,0.6
		v14.4l-5.1,5.3c-0.2,0-0.3,0-0.5,0c-3.4,0-5.8-0.9-7.3-2.6C107.5,48.3,106.7,45.4,106.6,41.5z M109.7,40c0,1.5,0,2.7,0.1,3.6
		c0.1,0.8,0.2,1.9,0.5,3.2c0.3,1.3,0.8,2.3,1.5,3.2c0.7,0.8,1.6,1.5,2.8,2l4.3-4.8V34.9c0-0.2,0-0.4,0-0.7c0-1,0-1.7,0-2.3
		c0-0.5-0.1-1.2-0.1-2.1c-0.1-0.9-0.2-1.7-0.4-2.3c-0.2-0.6-0.5-1.2-0.8-1.9c-0.3-0.7-0.8-1.3-1.4-1.8c-0.6-0.5-1.2-0.9-2-1.2
		l-4.4,4.8v12.1C109.7,39.6,109.7,39.7,109.7,40z"/>
	<path class="st1" d="M138.9,14.3c0.3-1,0.8-1.9,1.5-2.7c0.7-0.8,1.3-1.3,1.8-1.5l0.7-0.4c0.7-0.2,1.4-0.3,2.1-0.3
		c0.5,0,0.9,0,1.3,0.1c1.1,0.2,2.1,0.5,2.9,1l1.2,0.7c1.5,0.9,2.9,1.3,4.2,1.4c0.2,0,0.3,0,0.5,0.1c1,0,1.7-0.2,2.2-0.5l0.8-0.6v0.7
		c-0.4,0.8-1,1.4-1.7,1.9c-2,1.4-3,3.6-3,6.5v6h20V10.9h3.1v38.2c0,0.2,0,0.4,0,0.7c0,0.3,0.1,0.8,0.2,1.6c0.1,0.8,0.3,1.4,0.6,2
		s0.7,1.1,1.2,1.6c0.6,0.5,1.2,0.7,2,0.7v0.8c-0.2,0.1-0.4,0.1-0.7,0.1c0,0-0.1,0-0.2,0c-0.4,0-0.9-0.1-1.5-0.2
		c-0.8-0.2-1.5-0.4-2.1-0.7c-0.6-0.3-1.2-1-1.7-1.9c-0.5-0.9-0.8-2-0.8-3.3v-4.7V29.6h-20v4.7c0,1.2-0.2,2.2-0.6,3
		c-0.4,0.8-0.9,1.4-1.4,1.7s-1.1,0.5-1.7,0.7c-0.6,0.1-1.1,0.2-1.5,0.2l-0.6-0.1v-0.7c0.8,0,1.5-0.4,1.9-1.3s0.7-1.7,0.7-2.6
		l0.1-1.3v-13c0-2.9,1.3-4.9,4-5.8c-0.3,0.1-0.6,0.1-0.9,0.1c-1.2,0-2.7-0.5-4.8-1.6c-1.9-1-3.4-1.5-4.7-1.5c-0.2,0-0.4,0-0.6,0.1
		c-1.4,0.2-2.4,0.8-3,1.6l-0.9,1.2L138.9,14.3z M140.2,52c0.3-1.1,0.8-2,1.6-2.7c0.7-0.7,1.3-1.2,1.9-1.4l0.8-0.3
		c0.9-0.3,1.9-0.5,2.9-0.5c0.4,0,0.7,0,1.1,0.1c1.3,0.2,2.4,0.5,3.3,0.9l1.5,0.6c2.1,0.8,3.7,1.2,5,1.2c0.1,0,0.2-0.1,0.2-0.1
		c1.2-0.1,2.1-0.3,2.6-0.8l0.7-0.7l0.6,0.4c-0.5,1.3-1.3,2.3-2.2,2.9c-0.9,0.7-1.7,1-2.4,1.1l-0.9,0.1c-0.7,0-1.5-0.2-2.4-0.5
		c-0.9-0.3-1.7-0.6-2.3-0.8l-0.9-0.5c-2.1-0.8-3.9-1.2-5.3-1.2c-0.3,0-0.6,0-0.9,0.1c-1.6,0.2-2.7,0.7-3.3,1.5l-1,1.2L140.2,52z"/>
</g>
<g class="st0">
	<path class="st1" d="M180.8,44.4c0-2.4,0.1-4,0.3-4.7l12.2-5.5v-2c0,0,0-0.3,0-0.9c0-0.1,0-0.3,0-0.5c0-0.5,0-1.1-0.1-1.8
		c-0.1-0.9-0.3-1.9-0.5-2.8s-0.6-1.7-1.1-2.5c-0.5-0.7-1.2-1.2-2-1.4c-0.1,0-0.3,0-0.5,0.1c-0.2,0-0.5,0.2-1,0.4
		c-0.5,0.2-0.9,0.6-1.2,1c-0.4,0.4-0.7,1-1,1.8c-0.3,0.8-0.4,1.8-0.4,2.9h-3.1c0-2.3,0.7-4,2-5.1c1.4-1.1,3.2-1.7,5.5-1.7
		c1.4,0,2.5,0.3,3.4,0.8c0.9,0.5,1.6,1.3,2,2.2c0.4,1,0.7,2,0.9,3c0.2,1,0.2,2.2,0.2,3.6v10.1c0,3.8,0.2,6.4,0.7,7.8
		c0.1,0.2,0.2,0.5,0.4,0.8c0.2,0.3,0.5,0.8,1.1,1.3c0.6,0.6,1.2,0.8,1.8,0.8v0.6c-0.1,0-0.3,0.1-0.5,0.1c-0.1,0-0.2,0-0.2,0
		c-0.2,0-0.5,0-0.9-0.1c-0.6,0-1.1-0.2-1.6-0.3c-0.5-0.2-1-0.5-1.5-1s-1-1.1-1.2-1.9l-4,2.5c-0.2,0.1-0.5,0.3-0.9,0.4
		c-0.4,0.2-1.2,0.3-2.3,0.3c0,0-0.1,0-0.1,0.1c-1.1,0-2.1-0.3-3.1-0.9c-0.2-0.1-0.5-0.4-0.9-0.7c-0.3-0.3-0.8-1.1-1.3-2.4
		C181.1,47.5,180.8,46,180.8,44.4z M183.9,44.1c0,0.4,0,0.9,0.1,1.7c0.1,0.9,0.2,1.8,0.4,2.6c0.2,0.8,0.5,1.6,1,2.3s1.1,1.3,1.8,1.5
		l6.6-4.3c0,0-0.1-0.1-0.2-0.4c-0.1-0.2-0.1-1.4-0.2-3.5c0-1.4-0.1-3.1-0.1-5.1c0-1,0-2.1,0-3.3l-9.2,4.1L184,43L183.9,44.1z"/>
</g>
<g class="st0">
	<path class="st1" d="M199.6,22.9h2.4c1.4,2,2.1,3,2.1,3.2c0-0.4,1.3-1.8,3.8-4.4c3.7,0,6.3,0.9,7.8,2.8c1.4,1.8,2.1,4.5,2.1,7.9
		c0,0.2,0,0.4,0,0.6v14.3l-5.1,5.5c-0.1,0-0.2,0-0.4,0c-1,0-2.1-0.1-3.3-0.4c-1.4-0.3-2.5-0.9-3.2-1.7v4.9c0,6.4,1.3,9.6,3.8,9.6
		v0.6c-0.3,0-0.6,0.1-0.8,0.1c-1.1,0-2-0.2-2.8-0.7c-1-0.5-1.7-1.3-2.1-2.4c-0.4-1.1-0.7-2.2-0.9-3.2c-0.2-1-0.2-2.3-0.2-3.8v-15
		V27.5L199.6,22.9z M205.8,40.2c0,1.2,0,2.1,0,2.8c0,0.7,0.1,1.5,0.3,2.6c0.2,1.1,0.4,2,0.7,2.6c0.3,0.7,0.8,1.3,1.4,2
		c0.6,0.7,1.4,1.2,2.4,1.6l4.3-4.8V34.9c0-0.2,0-0.4,0-0.7c0-1.5,0-2.6-0.1-3.4c-0.1-0.8-0.2-1.8-0.5-3c-0.3-1.2-0.8-2.2-1.5-3.1
		c-0.7-0.8-1.7-1.5-2.8-2l-4.2,4.8v12C205.8,39.6,205.8,39.8,205.8,40.2z"/>
	<path class="st1" d="M219.4,22.9h2.4c1.4,2,2.1,3,2.1,3.2c0-0.4,1.3-1.8,3.8-4.4c3.7,0,6.3,0.9,7.8,2.8c1.4,1.8,2.1,4.5,2.1,7.9
		c0,0.2,0,0.4,0,0.6v14.3l-5.1,5.5c-0.1,0-0.2,0-0.4,0c-1,0-2.1-0.1-3.3-0.4c-1.4-0.3-2.5-0.9-3.2-1.7v4.9c0,6.4,1.3,9.6,3.8,9.6
		v0.6c-0.3,0-0.6,0.1-0.8,0.1c-1.1,0-2-0.2-2.8-0.7c-1-0.5-1.7-1.3-2.1-2.4c-0.4-1.1-0.7-2.2-0.9-3.2c-0.2-1-0.2-2.3-0.2-3.8v-15
		V27.5L219.4,22.9z M225.6,40.2c0,1.2,0,2.1,0,2.8c0,0.7,0.1,1.5,0.3,2.6c0.2,1.1,0.4,2,0.7,2.6c0.3,0.7,0.8,1.3,1.4,2
		c0.6,0.7,1.4,1.2,2.4,1.6l4.3-4.8V34.9c0-0.2,0-0.4,0-0.7c0-1.5,0-2.6-0.1-3.4c-0.1-0.8-0.2-1.8-0.5-3c-0.3-1.2-0.8-2.2-1.5-3.1
		c-0.7-0.8-1.7-1.5-2.8-2l-4.2,4.8v12C225.6,39.6,225.6,39.8,225.6,40.2z"/>
	<path class="st1" d="M239.4,22.4v-0.7c1,0,1.8,0.1,2.5,0.4c0.7,0.3,1.3,0.7,1.7,1.3c0.4,0.6,0.8,1.2,1,1.8c0.2,0.6,0.4,1.3,0.5,2.3
		c0.1,1,0.2,1.8,0.2,2.4c0,0.6,0.1,1.4,0.1,2.5c0,0.3,0,0.5,0,0.7L245.2,46c0,0.1,0,0.2,0,0.4c0,0.7,0.1,1.4,0.3,2.1
		c0.2,0.7,0.5,1.3,0.9,1.7c0.4,0.4,0.7,0.8,1.1,1c0.4,0.3,0.7,0.4,0.9,0.5l0.4,0.1l4.6-4.6V34.4c0-0.1,0-0.3,0-0.6
		c0-0.2,0-0.3,0-0.4c0-7-1-10.7-3-11v-0.7c1,0,1.8,0.2,2.5,0.5c0.7,0.3,1.3,0.8,1.7,1.5c0.4,0.7,0.7,1.3,1,1.9
		c0.2,0.6,0.4,1.4,0.5,2.5c0.1,1.1,0.1,1.9,0.2,2.4c0,0.5,0,1.4,0,2.5v11.3v12.1c0,3.4-0.7,5.9-2,7.3c-1.1,1.2-2.8,1.9-5,1.9
		c-0.5,0-0.9,0-1.4-0.1l-5.8-4.7h2.3l5.5,4c0.1,0,0.2,0,0.4-0.1c0.2,0,0.5-0.2,0.9-0.6s0.8-0.8,1.1-1.3c0.3-0.5,0.6-1.4,0.9-2.5
		c0.3-1.2,0.4-2.5,0.4-4.1v-5.1l0.1-1.6c-0.1,0.4-1,1.3-2.5,2.7c-0.5,0-1.1,0.1-1.5,0.1c-2,0-3.7-0.4-4.9-1.2
		c-1.5-1-2.3-2.9-2.4-5.6l0.1-11.1c0-0.1,0-0.5,0-1c0-0.6,0-1,0-1.4c0-0.4,0-0.9,0-1.6s-0.1-1.3-0.1-1.8s-0.1-1.1-0.2-1.8
		c-0.1-0.6-0.2-1.2-0.3-1.7c-0.1-0.5-0.3-0.9-0.5-1.4c-0.2-0.5-0.5-0.8-0.7-1.1C240.1,22.8,239.7,22.6,239.4,22.4z"/>
</g>
<g class="st0">
	<path class="st1" d="M0.6,110.2c0.1-0.1,0.1-0.5,0-1.1c0-0.2,0-0.4,0-0.6c0-0.6,0.1-1.4,0.2-2.4c0.2-1.3,0.6-2.6,0.9-3.9
		s1.1-2.7,2.1-4.2c1-1.5,2.2-2.7,3.6-3.8h3c-0.2,0.2-0.4,0.4-0.7,0.7c-0.3,0.3-0.9,0.9-1.6,1.9c-0.8,1-1.5,2-2.1,3
		c-0.6,1.1-1.1,2.4-1.6,4.1s-0.7,3.4-0.7,5.1c0,4.5,1.6,8.4,4.9,11.9c3.3,3.4,7.4,5.1,12.4,5.1c2,0,3.8-0.3,5.4-0.8
		c1.6-0.5,2.8-1.1,3.7-1.8c0.9-0.7,1.6-1.4,2.2-2.2c0.6-0.7,1-1.3,1.2-1.8l0.2-0.8h3.3c-0.1,0.2-0.2,0.5-0.4,0.9s-0.6,1.1-1.4,2
		c-0.8,1-1.7,1.8-2.7,2.5c-1.1,0.7-2.6,1.4-4.6,2c-2,0.6-4.3,0.9-6.8,0.9c-6.3,0-11.2-1.7-14.8-5C2.8,118.8,0.9,114.8,0.6,110.2z
		 M10,114.1v-0.7c0.1,0,0.3,0,0.4,0c0.2,0,0.5-0.1,0.9-0.3c0.5-0.2,0.9-0.4,1.2-0.7c0.3-0.3,0.7-0.8,0.9-1.5
		c0.3-0.7,0.4-1.5,0.4-2.5V91.1c0-0.2,0-0.5,0-0.8s0.2-0.9,0.5-1.8c0.3-0.9,0.7-1.6,1.3-2.2c0.6-0.6,1.5-1.2,2.7-1.8
		c1.2-0.5,2.6-0.7,4.2-0.7c0.1,0,0.2,0,0.4,0c0.2,0,0.5,0,0.9,0s1,0.1,2,0.4c0.9,0.3,1.8,0.6,2.5,1.1c0.7,0.5,1.4,1.3,2,2.4
		c0.6,1.1,0.9,2.5,0.9,4h-3.1c0-4.8-1.8-7.3-5.4-7.3c0,0.1-0.2,0.1-0.6,0c-0.4-0.1-0.8,0-1.4,0.3c-0.6,0.3-1.1,0.6-1.7,1
		c-0.5,0.4-1,1.1-1.4,2.1c-0.4,1-0.6,2.2-0.6,3.6v17c0,0.2,0,0.4,0,0.7c0,0.3-0.1,0.8-0.3,1.5c-0.2,0.7-0.6,1.3-1,1.8
		c-0.4,0.5-1.1,1-2.1,1.4c-0.8,0.3-1.8,0.4-2.8,0.4C10.6,114.1,10.3,114.1,10,114.1z"/>
	<path class="st1" d="M38.5,82.5c0.5,0.4,0.9,0.9,1.3,1.6c0.4,0.7,0.8,1.3,1,1.8l0.3,0.8l2.3-1.5c-0.6,0.8-0.9,2.3-0.9,4.6v6
		c0,1.7-0.1,2.7-0.2,2.8l2.3-2.5c0.4,0,0.8-0.1,1.2-0.1c2.3,0,4.1,0.4,5.4,1.2c1.5,0.9,2.3,2.7,2.3,5.4v11.1c0,3.8,0.2,6.8,0.7,9
		c0.5,2.2,1.5,3.4,3.1,3.6v0.7c-0.2,0-0.4,0-0.6,0c-1.1,0-2-0.2-2.9-0.6c-0.9-0.5-1.6-1.1-2-1.7c-0.4-0.6-0.8-1.6-1-2.8
		s-0.4-2.2-0.4-3c0-0.7,0-1.8,0-3.1v-13.1c0-0.9-0.1-1.7-0.4-2.4s-0.5-1.3-0.9-1.7c-0.3-0.4-0.7-0.8-1-1c-0.3-0.3-0.6-0.4-0.9-0.5
		l-0.4-0.1l-4.5,4.8v12.1c0,0.4,0,0.9,0,1.6c0,0.3,0,0.7,0,1.1c0,0.4,0,0.7,0,1.1c0,0.8,0.1,1.6,0.2,2.4c0.1,0.8,0.2,1.6,0.4,2.3
		s0.4,1.4,0.7,2c0.3,0.6,0.6,1.1,1.1,1.5c0.5,0.4,1,0.6,1.6,0.6v0.7c-0.2,0-0.4,0-0.6,0c-1.1,0-2-0.1-2.9-0.6
		c-1-0.5-1.7-1.1-2.1-1.7c-0.5-0.6-0.8-1.6-1.1-2.8s-0.4-2.2-0.4-3c0-0.8-0.1-1.8-0.1-3.2v-14v-12c0-1.5-0.1-2.9-0.2-4.2
		c-0.1-1.2-0.3-2.1-0.4-2.5L38.5,82.5z"/>
</g>
<g class="st0">
	<path class="st1" d="M54.9,110.6l3.7-1.7c0-1.1,0-2.1,0.1-3.1c0.1-1,0.2-1.7,0.2-2.1L59,103c0.2-1.3,0.7-2.5,1.4-3.4
		c0.7-1,1.4-1.6,2.1-2.1c0.8-0.4,1.5-0.8,2.2-1c0.7-0.2,1.3-0.4,1.7-0.4h0.7c0.1,0,0.2,0,0.4,0c1.2,0,2.4,0.2,3.3,0.6
		c1.1,0.4,1.9,1,2.4,1.6c0.5,0.7,0.9,1.3,1.3,2c0.3,0.7,0.5,1.2,0.6,1.7l0.1,0.7l-13.6,6.1v5c0,1.1,0,2,0,2.6c0,0.6,0.1,1.5,0.2,2.6
		s0.3,2,0.7,2.6s0.7,1.4,1.2,2.1c0.5,0.7,1.2,1.3,2,1.8c0.9,0.4,1.9,0.7,3,0.8v0.7c-0.2,0-0.3,0-0.5,0c-3.5,0-6-0.8-7.4-2.5
		c-1.5-1.8-2.3-4.7-2.4-8.5v-4.5v-1.4l-1.3,0.6H54.9z M61.6,107.5l10.7-4.8c0-0.2-0.1-0.4-0.2-0.6c-0.1-0.3-0.2-0.7-0.5-1.4
		c-0.2-0.7-0.5-1.3-0.9-1.8c-0.4-0.5-0.8-1-1.5-1.4s-1.3-0.6-2-0.6c-0.2,0-0.6,0.1-0.9,0.2s-1,0.5-1.9,1.3c-0.9,0.8-1.6,1.8-2,3.1
		C61.9,102.8,61.6,104.9,61.6,107.5z"/>
	<path class="st1" d="M76.5,97.2h2.4c1.4,1.9,2.1,2.9,2.1,3.2c0-0.4,1.3-1.8,3.7-4.2c0.5-0.1,0.9-0.1,1.4-0.1c1.6,0,3,0.4,4.2,1.4
		c1.5,1.2,2.3,3,2.3,5.3h-3.1c0-0.8-0.1-1.6-0.3-2.3s-0.4-1.2-0.7-1.6c-0.2-0.4-0.5-0.8-0.8-1.1c-0.3-0.3-0.5-0.5-0.7-0.6L86.9,97
		l-4.2,4.7v12c0,0.1,0,0.2,0,0.5c0,0.1,0,0.2,0,0.4c0,7.9,1.3,11.8,3.8,11.8h0.1v0.7c-0.2,0-0.4,0-0.6,0c-0.5,0-1,0-1.5-0.1
		c-0.6-0.1-1.2-0.3-1.6-0.4c-0.5-0.2-0.9-0.5-1.2-0.9c-0.4-0.5-0.6-0.8-0.9-1.1c-0.2-0.3-0.4-0.8-0.6-1.5c-0.2-0.8-0.3-1.3-0.4-1.6
		c-0.1-0.3-0.1-0.9-0.2-1.8c0-0.9-0.1-1.5-0.1-1.7s0-0.9-0.1-1.9v-14L76.5,97.2z"/>
	<path class="st1" d="M93.9,97.2h2.4c1.4,1.9,2.1,2.9,2.1,3.2c0-0.4,1.3-1.8,3.7-4.2c0.5-0.1,0.9-0.1,1.4-0.1c1.6,0,3,0.4,4.2,1.4
		c1.5,1.2,2.3,3,2.3,5.3h-3.1c0-0.8-0.1-1.6-0.3-2.3s-0.4-1.2-0.7-1.6c-0.2-0.4-0.5-0.8-0.8-1.1c-0.3-0.3-0.5-0.5-0.7-0.6l-0.2-0.1
		l-4.2,4.7v12c0,0.1,0,0.2,0,0.5c0,0.1,0,0.2,0,0.4c0,7.9,1.3,11.8,3.8,11.8h0.1v0.7c-0.2,0-0.4,0-0.6,0c-0.5,0-1,0-1.5-0.1
		c-0.6-0.1-1.2-0.3-1.6-0.4c-0.5-0.2-0.9-0.5-1.2-0.9c-0.4-0.5-0.6-0.8-0.9-1.1c-0.2-0.3-0.4-0.8-0.6-1.5c-0.2-0.8-0.3-1.3-0.4-1.6
		c-0.1-0.3-0.1-0.9-0.2-1.8c0-0.9-0.1-1.5-0.1-1.7s0-0.9-0.1-1.9v-14L93.9,97.2z"/>
</g>
<g class="st0">
	<path class="st1" d="M109.7,96.8v-0.7c0.1,0,0.2,0,0.4,0c0.8,0,1.6,0.1,2.2,0.4c0.7,0.3,1.3,0.7,1.8,1.3s0.8,1.2,1.1,1.8
		c0.3,0.6,0.5,1.4,0.6,2.4c0.1,1,0.2,1.8,0.2,2.4c0,0.6,0,1.4,0,2.5c0,0.1,0,0.2,0,0.2c0,0.1,0,0.1,0,0.2c0,0.1,0,0.2,0,0.2v13
		c0,1.1,0.1,2.1,0.4,2.9c0.3,0.8,0.6,1.5,1,1.9c0.4,0.4,0.8,0.7,1.2,0.9c0.4,0.2,0.7,0.4,1,0.4l0.4,0.1v0.4c-0.2,0-0.3,0-0.5,0
		c-1.8,0-3.3-0.4-4.6-1.2c-1.3-0.9-2-2.3-2-4.3v-15.7C112.8,100,111.8,96.9,109.7,96.8z M110.6,90.6L114,85h3.1l-3.4,5.6H110.6z"/>
</g>
<g class="st0">
	<path class="st1" d="M117.5,110.6l3.7-1.7c0-1.1,0-2.1,0.1-3.1c0.1-1,0.2-1.7,0.2-2.1l0.1-0.7c0.2-1.3,0.7-2.5,1.4-3.4
		s1.4-1.6,2.1-2.1c0.8-0.4,1.5-0.8,2.2-1c0.7-0.2,1.3-0.4,1.7-0.4h0.7c0.1,0,0.2,0,0.4,0c1.2,0,2.4,0.2,3.3,0.6
		c1.1,0.4,1.9,1,2.4,1.6c0.5,0.7,0.9,1.3,1.3,2c0.3,0.7,0.5,1.2,0.6,1.7l0.1,0.7l-13.6,6.1v5c0,1.1,0,2,0,2.6c0,0.6,0.1,1.5,0.2,2.6
		s0.3,2,0.7,2.6c0.3,0.7,0.7,1.4,1.2,2.1c0.5,0.7,1.2,1.3,2,1.8s1.9,0.7,3,0.8v0.7c-0.2,0-0.3,0-0.5,0c-3.5,0-6-0.8-7.4-2.5
		c-1.5-1.8-2.3-4.7-2.4-8.5v-4.5v-1.4l-1.3,0.6H117.5z M124.3,107.5l10.7-4.8c0-0.2-0.1-0.4-0.2-0.6c-0.1-0.3-0.2-0.7-0.5-1.4
		c-0.2-0.7-0.5-1.3-0.9-1.8c-0.4-0.5-0.8-1-1.5-1.4s-1.3-0.6-2-0.6c-0.2,0-0.6,0.1-0.9,0.2s-1,0.5-1.9,1.3c-0.9,0.8-1.5,1.8-2,3.1
		C124.6,102.8,124.3,104.9,124.3,107.5z"/>
</g>
<g class="st0">
	<path class="st1" d="M139.7,120.4h3.1c0,1.5,0.3,2.7,0.9,3.7c0.6,1,1.2,1.6,1.8,1.8l0.9,0.4l4.2-4.9c0-1.7-0.4-3.3-1.1-5
		c-0.7-1.7-1.5-2.9-2.2-3.8l-1.1-1.2l-6.4-7.1c0-0.3-0.1-0.6-0.1-0.9c0-2,0.5-3.7,1.5-5c1.1-1.5,2.8-2.2,5-2.2
		c1.4,0,2.6,0.2,3.6,0.7c1,0.5,1.7,1,2.1,1.7s0.7,1.3,0.9,2s0.3,1.3,0.2,1.7v0.7h-2.9c0-1.2-0.1-2.2-0.4-3.1s-0.6-1.5-1-1.9
		c-0.4-0.4-0.8-0.7-1.2-0.8c-0.4-0.2-0.7-0.3-1-0.3h-0.4c-1.1,0-1.9,0.7-2.4,1.9c-0.5,1.2-0.8,2.5-0.8,3.7v1.8l5.2,6.1
		c1.2,1.3,2.2,2.5,3,3.8s1.4,2.3,1.7,3.1c0.3,0.8,0.5,1.6,0.6,2.3c0.1,0.7,0.2,1.2,0.1,1.5l-0.1,0.5l-5.1,5.6c-0.3,0-0.6,0-0.9,0
		c-0.9,0-1.7,0-2.4-0.1c-0.9-0.1-1.8-0.4-2.8-0.8c-0.9-0.4-1.6-1.1-2.1-2.1C140,123.1,139.7,121.9,139.7,120.4z"/>
</g>
</svg>
