<?xml version="1.0" encoding="utf-8"?>
<!-- Generator: Adobe Illustrator 25.4.2, SVG Export Plug-In . SVG Version: 6.00 Build 0)  -->
<svg version="1.1" id="Layer_1" xmlns="http://www.w3.org/2000/svg" xmlns:xlink="http://www.w3.org/1999/xlink" x="0px" y="0px"
	 viewBox="0 0 374.3 142.7" style="enable-background:new 0 0 374.3 142.7;" xml:space="preserve">
<style type="text/css">
	.st0{enable-background:new    ;}
	.st1{fill:#231F20;}
</style>
<g class="st0">
	<path class="st1" d="M0.6,35.9c0.1-0.1,0.1-0.5,0-1.2c0-0.1,0-0.3,0-0.5c0-0.6,0.1-1.4,0.2-2.4c0.2-1.3,0.6-2.7,0.9-4
		c0.4-1.3,1-2.7,2-4.2s2.2-2.8,3.6-3.8h3.1c-0.2,0.2-0.4,0.4-0.7,0.6s-0.9,0.9-1.7,1.9c-0.8,1-1.5,2-2.1,3.1
		c-0.6,1.1-1.1,2.5-1.6,4.1S3.7,33,3.7,34.8c0,4.6,1.5,8.5,4.6,11.9c3,3.4,7.1,5.1,12.2,5.1c1.7,0,3.3-0.2,4.8-0.6
		c1.5-0.4,2.7-0.8,3.6-1.3c0.9-0.5,1.7-1,2.3-1.5c0.6-0.5,1.1-1,1.3-1.3l0.4-0.6c1.2-1.6,1.8-4,2-7.1c0-0.7,0.1-1.4,0.1-2
		c0-2.2-0.3-4.1-0.9-5.5c-0.5-1.4-1.2-2.7-2.1-3.8c-0.9-1.1-1.7-1.8-2.5-2.3c-0.8-0.5-1.6-0.8-2.3-1.1c-0.7-0.3-1.3-0.4-1.8-0.5
		h-0.7c-1.6,0-2.9,0.3-4,0.7c-1.1,0.5-1.9,1-2.3,1.8c-0.5,0.7-0.8,1.4-1,1.9c-0.2,0.6-0.3,1.1-0.3,1.6V34c0,0.2,0,0.4,0,0.7
		c0,0.3-0.1,0.8-0.3,1.5c-0.2,0.7-0.6,1.3-1,1.8c-0.4,0.5-1.2,1-2.1,1.4c-0.8,0.3-1.8,0.4-2.9,0.4c-0.2,0-0.5,0-0.7,0v-0.7
		c0.1,0,0.3,0,0.4,0c0.2,0,0.5-0.1,0.9-0.3c0.5-0.2,0.9-0.4,1.2-0.7c0.4-0.3,0.7-0.8,1-1.5c0.3-0.7,0.4-1.5,0.4-2.5V16.6
		c0-0.2,0-0.5,0-0.8c0-0.3,0.2-0.9,0.5-1.8c0.3-0.9,0.7-1.6,1.3-2.3c0.6-0.6,1.5-1.2,2.8-1.7c1.2-0.5,2.5-0.7,4.2-0.7
		c0.1,0,0.2,0,0.4,0c0.2,0,0.5,0,0.9,0s1,0.1,2,0.4c1,0.2,1.8,0.6,2.5,1.1c0.7,0.5,1.4,1.3,2,2.4c0.6,1.1,0.9,2.4,0.9,4h-3.1
		c0-4.8-1.8-7.2-5.3-7.2c-0.2,0-0.4,0-0.6,0s-0.7,0.1-1.4,0.3c-0.7,0.2-1.2,0.5-1.7,0.9c-0.5,0.4-1,1.1-1.4,2.1
		c-0.4,1-0.6,2.1-0.6,3.5v6.9c0,1.1-0.1,2.1-0.4,2.8c0.6-0.8,1.4-1.5,2.5-2c0.8-0.3,1.6-0.6,2.5-0.8c0.9-0.2,1.5-0.3,2-0.3h0.7
		c1.5,0,3,0.2,4.3,0.5c1.3,0.3,2.4,0.7,3.2,1.2c0.8,0.5,1.5,0.9,2,1.4c0.6,0.5,1,0.9,1.2,1.2l0.4,0.4c1,1.5,1.8,3.2,2.2,4.9
		c0.4,1.4,0.6,2.7,0.6,3.9c0,0.3,0,0.6-0.1,0.8c-0.1,1.4-0.3,2.6-0.5,3.8c-0.3,1.2-0.5,2.1-0.8,2.7l-0.5,0.9
		c-0.1,0.2-0.2,0.5-0.4,0.8c-0.2,0.4-0.7,1-1.6,1.8c-0.9,0.9-1.9,1.6-2.9,2.3c-1.1,0.7-2.6,1.3-4.6,1.8c-2,0.6-4.1,0.8-6.4,0.8
		c-6.1,0-10.9-1.6-14.3-4.9C2.7,44.5,0.9,40.5,0.6,35.9z"/>
	<path class="st1" d="M40.2,44.4c0-2.4,0.1-4,0.3-4.7l12.2-5.5v-2c0,0,0-0.3,0-0.9c0-0.1,0-0.3,0-0.5c0-0.5,0-1.1-0.1-1.8
		c-0.1-0.9-0.3-1.9-0.5-2.8c-0.2-0.9-0.6-1.7-1.1-2.5c-0.5-0.7-1.2-1.2-2-1.4c-0.1,0-0.3,0-0.5,0.1c-0.2,0-0.5,0.2-1,0.4
		c-0.5,0.2-0.9,0.6-1.2,1c-0.4,0.4-0.7,1-1,1.8c-0.3,0.8-0.4,1.8-0.4,2.9h-3.1c0-2.3,0.7-4,2-5.1c1.4-1.1,3.2-1.7,5.5-1.7
		c1.4,0,2.5,0.3,3.4,0.8c0.9,0.5,1.6,1.3,2,2.2c0.4,1,0.7,2,0.9,3c0.2,1,0.2,2.2,0.2,3.6v10.1c0,3.8,0.2,6.4,0.7,7.8
		c0.1,0.2,0.2,0.5,0.4,0.8c0.2,0.3,0.5,0.8,1.1,1.3c0.6,0.6,1.2,0.8,1.8,0.8v0.6c-0.1,0-0.3,0.1-0.5,0.1c-0.1,0-0.2,0-0.2,0
		c-0.2,0-0.5,0-0.9-0.1c-0.6,0-1.1-0.2-1.6-0.3c-0.5-0.2-1-0.5-1.5-1c-0.5-0.5-1-1.1-1.2-1.9l-4,2.5c-0.2,0.1-0.5,0.3-0.9,0.4
		c-0.4,0.2-1.2,0.3-2.3,0.3c0,0-0.1,0-0.1,0.1c-1.1,0-2.1-0.3-3.1-0.9c-0.2-0.1-0.5-0.4-0.9-0.7c-0.3-0.3-0.8-1.1-1.3-2.4
		C40.5,47.5,40.2,46,40.2,44.4z M43.3,44.1c0,0.4,0,0.9,0.1,1.7c0.1,0.9,0.2,1.8,0.4,2.6c0.2,0.8,0.5,1.6,1,2.3s1.1,1.3,1.8,1.5
		l6.6-4.3c0,0-0.1-0.1-0.2-0.4c-0.1-0.2-0.1-1.4-0.2-3.5c0-1.4-0.1-3.1-0.1-5.1c0-1,0-2.1,0-3.3l-9.2,4.1L43.4,43L43.3,44.1z"/>
	<path class="st1" d="M59.9,41.5V27.1l5.1-5.4c4,0,6.4,0.8,7.2,2.3c-0.1-0.3-0.1-0.9-0.1-1.7c0-1.4-0.1-2.6-0.2-3.5
		c-0.1-1-0.2-1.6-0.2-1.8l-0.1-0.4c-0.3-1-0.7-1.8-1.2-2.5c-0.5-0.7-1.1-1.2-1.7-1.5c-0.6-0.3-1.2-0.5-1.7-0.7
		c-0.5-0.2-1-0.2-1.3-0.2H65v-0.7c0.2,0,0.3,0,0.4,0c3.5,0,6,0.9,7.4,2.7c1.6,1.9,2.3,4.7,2.3,8.5v14.3v10.8l-5.3,5.4
		c-0.2,0-0.3,0-0.5,0c-3.5,0-5.9-0.9-7.3-2.7C60.6,48.2,59.9,45.3,59.9,41.5z M63,40.2c0,1.4,0,2.6,0.1,3.4c0.1,0.8,0.2,1.9,0.5,3.1
		c0.3,1.3,0.8,2.3,1.5,3.1c0.7,0.8,1.7,1.4,2.8,1.9l4.2-4.7V34.8c0-1.9-0.1-3.4-0.2-4.7c-0.1-1.3-0.2-2.1-0.3-2.4l-0.1-0.6
		c-0.7-2.4-2.2-3.9-4.3-4.7L63,27.3v12.1C63,39.6,63,39.9,63,40.2z"/>
	<path class="st1" d="M78.7,41.5V27.1l5.1-5.4c4,0,6.4,0.8,7.2,2.3c-0.1-0.3-0.1-0.9-0.1-1.7c0-1.4-0.1-2.6-0.2-3.5
		c-0.1-1-0.2-1.6-0.2-1.8l-0.1-0.4c-0.3-1-0.7-1.8-1.2-2.5c-0.5-0.7-1.1-1.2-1.7-1.5c-0.6-0.3-1.2-0.5-1.7-0.7
		c-0.5-0.2-1-0.2-1.3-0.2h-0.6v-0.7c0.2,0,0.3,0,0.4,0c3.5,0,6,0.9,7.4,2.7c1.6,1.9,2.3,4.7,2.3,8.5v14.3v10.8l-5.3,5.4
		c-0.2,0-0.3,0-0.5,0c-3.5,0-5.9-0.9-7.3-2.7C79.4,48.2,78.7,45.3,78.7,41.5z M81.8,40.2c0,1.4,0,2.6,0.1,3.4
		c0.1,0.8,0.2,1.9,0.5,3.1c0.3,1.3,0.8,2.3,1.5,3.1c0.7,0.8,1.7,1.4,2.8,1.9l4.2-4.7V34.8c0-1.9-0.1-3.4-0.2-4.7
		c-0.1-1.3-0.2-2.1-0.3-2.4l-0.1-0.6c-0.7-2.4-2.2-3.9-4.3-4.7l-4.2,4.8v12.1C81.8,39.6,81.8,39.9,81.8,40.2z"/>
	<path class="st1" d="M97.2,44.4c0-2.4,0.1-4,0.3-4.7l12.2-5.5v-2c0,0,0-0.3,0-0.9c0-0.1,0-0.3,0-0.5c0-0.5,0-1.1-0.1-1.8
		c-0.1-0.9-0.3-1.9-0.5-2.8c-0.2-0.9-0.6-1.7-1.1-2.5c-0.5-0.7-1.2-1.2-2-1.4c-0.1,0-0.3,0-0.5,0.1c-0.2,0-0.5,0.2-1,0.4
		c-0.5,0.2-0.9,0.6-1.2,1c-0.4,0.4-0.7,1-1,1.8c-0.3,0.8-0.4,1.8-0.4,2.9h-3.1c0-2.3,0.7-4,2-5.1c1.4-1.1,3.2-1.7,5.5-1.7
		c1.4,0,2.5,0.3,3.4,0.8c0.9,0.5,1.6,1.3,2,2.2c0.4,1,0.7,2,0.9,3c0.2,1,0.2,2.2,0.2,3.6v10.1c0,3.8,0.2,6.4,0.7,7.8
		c0.1,0.2,0.2,0.5,0.4,0.8c0.2,0.3,0.5,0.8,1.1,1.3c0.6,0.6,1.2,0.8,1.8,0.8v0.6c-0.1,0-0.3,0.1-0.5,0.1c-0.1,0-0.2,0-0.2,0
		c-0.2,0-0.5,0-0.9-0.1c-0.6,0-1.1-0.2-1.6-0.3c-0.5-0.2-1-0.5-1.5-1c-0.5-0.5-1-1.1-1.2-1.9l-4,2.5c-0.2,0.1-0.5,0.3-0.9,0.4
		c-0.4,0.2-1.2,0.3-2.3,0.3c0,0-0.1,0-0.1,0.1c-1.1,0-2.1-0.3-3.1-0.9c-0.2-0.1-0.5-0.4-0.9-0.7c-0.3-0.3-0.8-1.1-1.3-2.4
		C97.4,47.5,97.2,46,97.2,44.4z M100.3,44.1c0,0.4,0,0.9,0.1,1.7c0.1,0.9,0.2,1.8,0.4,2.6c0.2,0.8,0.5,1.6,1,2.3s1.1,1.3,1.8,1.5
		l6.6-4.3c0,0-0.1-0.1-0.2-0.4c-0.1-0.2-0.1-1.4-0.2-3.5c0-1.4-0.1-3.1-0.1-5.1c0-1,0-2.1,0-3.3l-9.2,4.1l-0.1,3.3L100.3,44.1z"/>
	<path class="st1" d="M115.6,22.9h2.3c1.5,1.9,2.3,3,2.4,3.3c0-0.5,1.1-2,3.5-4.3c0.5,0,1.1-0.1,1.5-0.1c4.8,0,7.2,2.2,7.2,6.6v11
		c0,0.1,0,0.2,0,0.4c0,0.1,0,0.2,0,0.4c0,7.6,1.3,11.5,4,11.8v0.6c-0.3,0-0.7,0.1-1,0.1c-1.1,0-2-0.2-2.8-0.7
		c-1-0.6-1.7-1.5-2.1-2.8c-0.4-1.3-0.7-2.5-0.8-3.6c-0.1-1.1-0.2-2.5-0.2-4.2V28.4c0-0.9-0.1-1.7-0.4-2.4c-0.2-0.7-0.6-1.3-0.9-1.7
		c-0.4-0.4-0.7-0.8-1.1-1c-0.4-0.3-0.7-0.4-0.9-0.5l-0.4-0.1l-4.2,4.8v12c0,8.4,1.3,12.6,4,12.6v0.6c-0.3,0-0.6,0.1-0.8,0.1
		c-0.9,0-1.7-0.2-2.4-0.5c-0.9-0.4-1.6-0.9-2-1.6c-0.5-0.6-0.8-1.5-1.1-2.6c-0.3-1.1-0.5-2.1-0.6-3.1c-0.1-1-0.1-2.1-0.2-3.4v-14
		L115.6,22.9z"/>
	<path class="st1" d="M151.5,35.9c0.1-0.1,0.1-0.5,0-1.2c0-0.2-0.1-0.3-0.1-0.5c0-0.6,0.1-1.4,0.3-2.4c0.2-1.3,0.5-2.7,0.9-4
		c0.4-1.3,1-2.7,2-4.2c1-1.5,2.1-2.8,3.5-3.8h3.1c-0.2,0.2-0.4,0.4-0.7,0.6c-0.3,0.3-0.8,0.9-1.6,1.9c-0.8,1-1.4,2-2,3.1
		c-0.6,1.1-1.1,2.5-1.6,4.2c-0.5,1.7-0.7,3.4-0.8,5.1c0,4.5,1.6,8.5,4.9,11.9c3.3,3.4,7.5,5.1,12.6,5.1c1.9,0,3.7-0.3,5.3-0.8
		c1.6-0.5,2.8-1.1,3.7-1.8c0.9-0.7,1.6-1.4,2.2-2.2c0.6-0.7,1-1.3,1.1-1.9l0.3-0.7h3.2c-0.1,0.2-0.2,0.5-0.4,0.9
		c-0.2,0.4-0.6,1.1-1.4,2c-0.8,1-1.7,1.8-2.7,2.5c-1.1,0.7-2.6,1.4-4.6,2c-2,0.6-4.2,0.9-6.7,0.9c-6.4,0-11.3-1.7-14.9-5
		C153.5,44.4,151.6,40.5,151.5,35.9z M160.8,39.9v-0.7c0.1,0,0.3,0,0.4,0c0.2,0,0.5-0.1,0.9-0.3c0.5-0.2,0.8-0.4,1.2-0.8
		c0.3-0.3,0.6-0.8,0.9-1.5c0.3-0.7,0.4-1.5,0.4-2.5V16.6c0-0.2,0-0.5,0-0.8c0-0.3,0.2-0.9,0.5-1.8c0.3-0.9,0.7-1.6,1.3-2.3
		c0.5-0.7,1.4-1.2,2.7-1.7c1.2-0.5,2.6-0.7,4.2-0.7c0.1,0,0.2,0,0.4,0c0.2,0,0.5,0,0.9,0s1,0.1,2,0.4c1,0.2,1.8,0.6,2.5,1.1
		c0.7,0.5,1.4,1.3,2,2.4c0.6,1.1,0.9,2.4,0.9,4h-3.1c0-4.8-1.8-7.2-5.4-7.2c-0.2,0-0.4,0-0.6,0c-0.2,0-0.7,0.1-1.4,0.3
		c-0.7,0.2-1.2,0.5-1.7,0.9c-0.5,0.4-1,1.1-1.4,2.1c-0.4,1-0.6,2.1-0.6,3.5V34c0,0.2,0,0.4,0,0.7s-0.1,0.8-0.3,1.5
		c-0.2,0.7-0.5,1.3-1,1.8c-0.4,0.5-1.1,1-2.1,1.4c-0.8,0.3-1.8,0.5-2.9,0.4C161.3,39.9,161.1,39.9,160.8,39.9z M171.4,29.6l1.7-2.9
		h7.9l-1.5,2.9H171.4z"/>
	<path class="st1" d="M189.5,8.1c0.5,0.4,0.9,1,1.3,1.7c0.4,0.7,0.7,1.3,0.9,1.8l0.3,0.8l2.2-1.5c-0.6,0.9-0.9,2.4-0.9,4.5v11.8
		v12.1c0,0.2,0,0.6,0,1.4s0,1.3,0,1.7s0,0.9,0,1.7c0,0.8,0.1,1.4,0.2,1.8c0.1,0.5,0.2,1,0.3,1.7c0.1,0.7,0.3,1.2,0.5,1.6
		c0.2,0.4,0.5,0.8,0.7,1.3c0.3,0.4,0.6,0.8,1,1c0.4,0.2,0.9,0.4,1.4,0.5v0.7c-1.3,0-2.4-0.3-3.3-0.8c-0.9-0.5-1.6-1.1-2-1.8
		c-0.5-0.7-0.8-1.6-1-2.7c-0.2-1.2-0.4-2.1-0.4-2.9c0-0.8-0.1-1.8-0.1-3.1v-14v-12c0-1.5-0.1-2.8-0.3-4.1c-0.2-1.2-0.3-2.1-0.5-2.5
		L189.5,8.1z"/>
	<path class="st1" d="M198.5,41.5V27.1l5.1-5.4c4,0,6.4,0.8,7.2,2.3c-0.1-0.3-0.1-0.9-0.1-1.7c0-1.4-0.1-2.6-0.2-3.5
		c-0.1-1-0.2-1.6-0.2-1.8l-0.1-0.4c-0.3-1-0.7-1.8-1.2-2.5c-0.5-0.7-1.1-1.2-1.7-1.5c-0.6-0.3-1.2-0.5-1.7-0.7
		c-0.5-0.2-1-0.2-1.3-0.2h-0.6v-0.7c0.2,0,0.3,0,0.4,0c3.5,0,6,0.9,7.4,2.7c1.6,1.9,2.3,4.7,2.3,8.5v14.3v10.8l-5.3,5.4
		c-0.2,0-0.3,0-0.5,0c-3.5,0-5.9-0.9-7.3-2.7C199.2,48.2,198.5,45.3,198.5,41.5z M201.6,40.2c0,1.4,0,2.6,0.1,3.4
		c0.1,0.8,0.2,1.9,0.5,3.1c0.3,1.3,0.8,2.3,1.5,3.1c0.7,0.8,1.7,1.4,2.8,1.9l4.2-4.7V34.8c0-1.9-0.1-3.4-0.2-4.7
		c-0.1-1.3-0.2-2.1-0.3-2.4l-0.1-0.6c-0.7-2.4-2.2-3.9-4.3-4.7l-4.2,4.8v12.1C201.6,39.6,201.6,39.9,201.6,40.2z"/>
</g>
<g class="st0">
	<path class="st1" d="M214.5,36.2l3.7-1.7c0-1.1,0-2.1,0.1-3.1c0.1-1,0.2-1.7,0.2-2.1l0.1-0.7c0.2-1.3,0.7-2.5,1.4-3.4
		s1.4-1.6,2.1-2.1c0.8-0.4,1.5-0.8,2.2-1c0.7-0.2,1.3-0.4,1.7-0.4h0.7c0.1,0,0.2,0,0.4,0c1.2,0,2.4,0.2,3.3,0.6
		c1.1,0.4,1.9,1,2.4,1.6c0.5,0.7,0.9,1.3,1.3,2c0.3,0.7,0.5,1.2,0.6,1.7l0.1,0.7l-13.6,6.1v5c0,1.1,0,2,0,2.6c0,0.6,0.1,1.5,0.2,2.6
		s0.3,2,0.7,2.6c0.3,0.7,0.7,1.4,1.2,2.1c0.5,0.7,1.2,1.3,2,1.8s1.9,0.7,3,0.8v0.7c-0.2,0-0.3,0-0.5,0c-3.5,0-6-0.8-7.4-2.5
		c-1.5-1.8-2.3-4.7-2.4-8.5v-4.5v-1.4l-1.3,0.6H214.5z M221.2,33.1l10.7-4.8c0-0.2-0.1-0.4-0.2-0.6c-0.1-0.3-0.2-0.7-0.5-1.4
		c-0.2-0.7-0.5-1.3-0.9-1.8c-0.4-0.5-0.8-1-1.5-1.4s-1.3-0.6-2-0.6c-0.2,0-0.6,0.1-0.9,0.2s-1,0.5-1.9,1.3c-0.9,0.8-1.5,1.8-2,3.1
		C221.5,28.4,221.2,30.5,221.2,33.1z"/>
</g>
<g class="st0">
	<path class="st1" d="M235.5,22.8h2.4c1.4,1.9,2.1,2.9,2.1,3.2c0-0.4,1.3-1.8,3.7-4.2c0.5-0.1,0.9-0.1,1.4-0.1c1.6,0,3,0.4,4.2,1.4
		c1.5,1.2,2.3,3,2.3,5.3h-3.1c0-0.8-0.1-1.6-0.3-2.3c-0.2-0.7-0.4-1.2-0.7-1.6c-0.2-0.4-0.5-0.8-0.8-1.1c-0.3-0.3-0.5-0.5-0.7-0.6
		l-0.2-0.1l-4.2,4.7v12c0,0.1,0,0.2,0,0.5c0,0.1,0,0.2,0,0.4c0,7.9,1.3,11.8,3.8,11.8h0.1v0.7c-0.2,0-0.4,0-0.6,0
		c-0.5,0-1,0-1.5-0.1c-0.6-0.1-1.2-0.3-1.6-0.4c-0.5-0.2-0.9-0.5-1.2-0.9c-0.4-0.5-0.6-0.8-0.9-1.1c-0.2-0.3-0.4-0.8-0.6-1.5
		c-0.2-0.8-0.3-1.3-0.4-1.6c-0.1-0.3-0.1-0.9-0.2-1.8c0-0.9-0.1-1.5-0.1-1.7s0-0.9-0.1-1.9v-14L235.5,22.8z"/>
</g>
<g class="st0">
	<path class="st1" d="M251.7,19h3.2v-4l4.3-4.3c0.3,0,0.6-0.1,0.8-0.1c1.7,0,3.2,0.5,4.5,1.4c1.6,1,2.4,2.5,2.4,4.3h-3.1
		c0-0.8-0.1-1.5-0.3-2.1c-0.2-0.6-0.4-1.1-0.7-1.3s-0.5-0.5-0.8-0.7c-0.3-0.2-0.5-0.3-0.7-0.3l-0.2-0.1l-3.2,3.4V19h2.2l1.3,2.7H258
		v17.7c0,0.2,0,0.5,0,0.9c0,1.5,0,2.7,0.1,3.6c0,0.9,0.2,2.1,0.4,3.5c0.2,1.4,0.6,2.5,1.2,3.2c0.6,0.8,1.3,1.2,2.2,1.4v0.7
		c-0.2,0-0.4,0-0.6,0c-1.1,0-2-0.2-2.8-0.6c-0.9-0.5-1.6-1-2-1.7c-0.5-0.7-0.8-1.6-1.1-2.8c-0.2-1.2-0.4-2.2-0.4-2.9
		c0-0.8-0.1-1.8-0.1-3.2V21.7h-2L251.7,19z"/>
</g>
<g class="st0">
	<path class="st1" d="M267.9,8.1c0.5,0.4,0.9,1,1.3,1.7c0.4,0.7,0.7,1.3,0.9,1.8l0.3,0.8l2.2-1.5c-0.6,0.9-0.9,2.4-0.9,4.5v11.8
		v12.1c0,0.2,0,0.6,0,1.4s0,1.3,0,1.7s0,0.9,0,1.7c0,0.8,0.1,1.4,0.2,1.8c0.1,0.5,0.2,1,0.3,1.7c0.1,0.7,0.3,1.2,0.5,1.6
		s0.5,0.8,0.7,1.3c0.3,0.4,0.6,0.8,1,1c0.4,0.2,0.9,0.4,1.4,0.5v0.7c-1.3,0-2.4-0.3-3.3-0.8c-0.9-0.5-1.6-1.1-2-1.8s-0.8-1.6-1-2.7
		c-0.2-1.2-0.4-2.1-0.4-2.9c0-0.8-0.1-1.8-0.1-3.1v-14v-12c0-1.5-0.1-2.8-0.3-4.1c-0.2-1.2-0.3-2.1-0.5-2.5L267.9,8.1z"/>
</g>
<g class="st0">
	<path class="st1" d="M277.1,41.5V27.1l5.3-5.4c0.1,0,0.2,0,0.2,0c3.6,0,6.2,0.9,7.7,2.7c1.4,1.8,2.1,4.4,2.1,7.9c0,0.2,0,0.4,0,0.6
		v14.4l-5.1,5.3c-0.2,0-0.3,0-0.5,0c-3.4,0-5.8-0.9-7.3-2.6C278,48.3,277.2,45.4,277.1,41.5z M280.2,40c0,1.5,0,2.7,0.1,3.6
		c0.1,0.8,0.2,1.9,0.5,3.2c0.3,1.3,0.8,2.3,1.5,3.2c0.7,0.8,1.6,1.5,2.8,2l4.3-4.8V34.9c0-0.2,0-0.4,0-0.7c0-1,0-1.7,0-2.3
		c0-0.5-0.1-1.2-0.1-2.1c-0.1-0.9-0.2-1.7-0.4-2.3c-0.2-0.6-0.5-1.2-0.8-1.9c-0.3-0.7-0.8-1.3-1.4-1.8c-0.6-0.5-1.2-0.9-2-1.2
		l-4.4,4.8v12.1C280.2,39.6,280.2,39.7,280.2,40z"/>
</g>
<g class="st0">
	<path class="st1" d="M294.5,22.4v-0.7c1,0,1.8,0.2,2.6,0.5c0.7,0.3,1.3,0.8,1.7,1.3c0.4,0.6,0.8,1.2,1.1,2c0.3,0.7,0.5,1.5,0.5,2.4
		c0.1,0.8,0.1,1.7,0.2,2.6c0,0.5,0,0.9,0,1.3c0,0.4,0,0.8,0,1.2L300.3,46c0,0.9,0.1,1.7,0.4,2.4c0.2,0.7,0.5,1.3,0.9,1.7
		c0.4,0.4,0.7,0.8,1,1c0.3,0.3,0.6,0.5,0.9,0.6l0.4,0.1l4.5-4.7v-0.9V34.4c0-0.1,0-0.4,0-1c0-0.6,0-1,0-1.4c0-0.4,0-0.9,0-1.6
		c0-0.7-0.1-1.3-0.1-1.8c0-0.5-0.1-1.1-0.2-1.7c-0.1-0.6-0.2-1.2-0.3-1.6s-0.3-0.9-0.5-1.3c-0.2-0.4-0.5-0.8-0.7-1
		c-0.3-0.2-0.6-0.4-1-0.4v-0.7c1,0,1.8,0.1,2.5,0.4c0.7,0.3,1.3,0.8,1.7,1.5s0.7,1.3,1,1.9c0.2,0.6,0.4,1.4,0.5,2.5
		c0.1,1.1,0.2,1.9,0.2,2.5c0,0.6,0.1,1.4,0.1,2.6V46c0,0.9,0.1,1.7,0.4,2.4s0.5,1.3,0.9,1.7c0.3,0.4,0.7,0.8,1,1
		c0.3,0.3,0.6,0.5,0.9,0.6l0.4,0.1l4.5-4.7V34.4c0-0.1,0-0.4,0-1c0-0.6,0-1.1,0-1.4c0-0.4,0-0.9,0-1.6c0-0.7-0.1-1.3-0.1-1.8
		c-0.1-0.5-0.1-1.1-0.2-1.7c-0.1-0.7-0.2-1.2-0.3-1.6c-0.1-0.4-0.3-0.9-0.5-1.3c-0.2-0.4-0.4-0.8-0.7-1c-0.3-0.2-0.6-0.4-1-0.4v-0.7
		c1,0,1.8,0.1,2.5,0.4c0.7,0.3,1.3,0.8,1.7,1.5c0.4,0.7,0.8,1.3,1,1.9c0.3,0.6,0.5,1.4,0.6,2.5c0.1,1.1,0.2,1.9,0.2,2.4
		c0,0.5,0,1.4,0,2.6v14.2c-2.2,2-3.3,3.1-3.3,3.2l-2,2.2c-0.2,0-0.5,0-0.8,0c-3.6,0-6.1-1.1-7.4-3.3c-0.6,0.9-1.5,2-2.9,3.3
		c-3.1,0-5.3-0.5-6.7-1.5c-1.4-1-2.1-2.8-2.1-5.4l0.1-10.9c0-0.7,0-1.4,0-2C297.4,26.1,296.4,22.7,294.5,22.4z"/>
</g>
<g class="st0">
	<path class="st1" d="M322.8,36.2l3.7-1.7c0-1.1,0-2.1,0.1-3.1s0.2-1.7,0.2-2.1l0.1-0.7c0.2-1.3,0.7-2.5,1.4-3.4
		c0.7-1,1.4-1.6,2.1-2.1c0.8-0.4,1.5-0.8,2.2-1c0.7-0.2,1.3-0.4,1.7-0.4h0.7c0.1,0,0.2,0,0.4,0c1.2,0,2.4,0.2,3.3,0.6
		c1.1,0.4,1.9,1,2.4,1.6c0.5,0.7,0.9,1.3,1.3,2c0.3,0.7,0.5,1.2,0.6,1.7l0.1,0.7l-13.6,6.1v5c0,1.1,0,2,0,2.6s0.1,1.5,0.2,2.6
		s0.3,2,0.7,2.6c0.3,0.7,0.7,1.4,1.2,2.1c0.5,0.7,1.2,1.3,2,1.8c0.9,0.4,1.9,0.7,3,0.8v0.7c-0.2,0-0.3,0-0.5,0c-3.5,0-6-0.8-7.4-2.5
		c-1.5-1.8-2.3-4.7-2.4-8.5v-4.5v-1.4l-1.3,0.6H322.8z M329.5,33.1l10.7-4.8c0-0.2-0.1-0.4-0.2-0.6c-0.1-0.3-0.2-0.7-0.5-1.4
		c-0.2-0.7-0.5-1.3-0.9-1.8c-0.4-0.5-0.8-1-1.5-1.4s-1.3-0.6-2-0.6c-0.2,0-0.6,0.1-0.9,0.2s-1,0.5-1.9,1.3c-0.9,0.8-1.6,1.8-2,3.1
		C329.8,28.4,329.5,30.5,329.5,33.1z"/>
</g>
<g class="st0">
	<path class="st1" d="M343.8,22.8h2.4c1.4,1.9,2.1,2.9,2.1,3.2c0-0.4,1.3-1.8,3.7-4.2c0.5-0.1,0.9-0.1,1.4-0.1c1.6,0,3,0.4,4.2,1.4
		c1.5,1.2,2.3,3,2.3,5.3h-3.1c0-0.8-0.1-1.6-0.3-2.3c-0.2-0.7-0.4-1.2-0.7-1.6c-0.2-0.4-0.5-0.8-0.8-1.1c-0.3-0.3-0.5-0.5-0.7-0.6
		l-0.2-0.1l-4.2,4.7v12c0,0.1,0,0.2,0,0.5c0,0.1,0,0.2,0,0.4c0,7.9,1.3,11.8,3.8,11.8h0.1v0.7c-0.2,0-0.4,0-0.6,0
		c-0.5,0-1,0-1.5-0.1c-0.6-0.1-1.2-0.3-1.6-0.4c-0.5-0.2-0.9-0.5-1.2-0.9c-0.4-0.5-0.6-0.8-0.9-1.1c-0.2-0.3-0.4-0.8-0.6-1.5
		c-0.2-0.8-0.3-1.3-0.4-1.6c-0.1-0.3-0.1-0.9-0.2-1.8c0-0.9-0.1-1.5-0.1-1.7s0-0.9-0.1-1.9v-14L343.8,22.8z"/>
</g>
</svg>
