<?xml version="1.0" encoding="utf-8"?>
<!-- Generator: Adobe Illustrator 25.4.2, SVG Export Plug-In . SVG Version: 6.00 Build 0)  -->
<svg version="1.1" id="Layer_1" xmlns="http://www.w3.org/2000/svg" xmlns:xlink="http://www.w3.org/1999/xlink" x="0px" y="0px"
	 viewBox="0 0 316.1 68.3" style="enable-background:new 0 0 316.1 68.3;" xml:space="preserve">
<style type="text/css">
	.st0{enable-background:new    ;}
	.st1{fill:#231F20;}
</style>
<g class="st0">
	<path class="st1" d="M0.7,48.5c0.4-1,0.9-1.9,1.6-2.7c0.7-0.7,1.4-1.2,1.9-1.5L5,44c1-0.3,1.9-0.4,2.8-0.4c0.4,0,0.8,0,1.2,0.1
		c1.2,0.2,2.3,0.5,3.2,0.9l1.3,0.7c1.4,0.8,3,1.9,4.9,3.2c1.7,1.1,3.4,2,5,2.5c1.5,0.5,2.8,0.8,4,0.8c0.1,0,0.2,0,0.2,0
		c1.2,0,2.2-0.2,3.1-0.4c0.9-0.2,1.6-0.5,2.1-0.7l0.7-0.4c1.6-1.2,2.8-2.7,3.7-4.4c0.9-1.7,1.5-3.4,1.7-5c0.2-1.6,0.3-3.1,0.3-4.4
		s-0.1-2.5-0.2-3.4l-0.2-1.2c-0.3-1.5-0.8-2.8-1.5-3.8c-0.7-1.1-1.5-1.9-2.4-2.4s-1.7-0.9-2.5-1.1c-0.8-0.3-1.5-0.4-2-0.5L29.7,24
		l-5.4,4.8c-0.2,0.1-0.5,0.1-0.8,0.1c-0.1,0-0.3,0-0.4,0c-0.3,0-0.8,0-1.5-0.1c-1,0-1.9-0.1-2.8-0.3c-0.9-0.2-1.8-0.5-2.9-1
		c-1.1-0.5-2-1.2-2.8-2c-0.8-0.8-1.4-1.9-1.9-3.3c-0.5-1.4-0.8-3-0.8-4.8c0.3-2.8,1.4-4.8,3.3-6.1c1.8-1.3,4.2-2,7-2h4.8l5.2,5.3
		h-3.1L22.7,10h-0.5c-0.3,0-0.8,0-1.3,0.1c-0.5,0.1-1.1,0.2-1.8,0.3c-0.6,0.1-1.3,0.4-1.9,0.8c-0.6,0.4-1.2,0.9-1.8,1.5
		c-0.5,0.6-1,1.4-1.3,2.4c-0.3,1-0.5,2.1-0.5,3.4c0,0.2,0,0.6,0,1c0,0.4,0.2,1.1,0.4,2.1c0.3,1,0.6,2,1.1,2.8
		c0.5,0.8,1.3,1.6,2.5,2.3c1.2,0.7,2.5,1.1,4.1,1.3l5.9-4.8c2.7,0,5.1,0.4,7.1,1.2c2,0.8,3.5,1.8,4.4,3c0.9,1.2,1.7,2.3,2.2,3.5
		s0.8,2.2,0.9,3l0.1,1.2c0,0.5,0.1,0.9,0.1,1.3c0,1.5-0.2,3.1-0.6,4.6c-0.4,1.9-0.9,3.4-1.4,4.3l-0.8,1.4c-1.3,2-3.2,3.5-5.7,4.5
		c-2.4,1-4.5,1.4-6.3,1.4c-0.1,0-0.2,0-0.2,0l-2.7-0.1c-1.6,0-3.1-0.2-4.5-0.6s-2.4-0.7-3-1l-0.9-0.5l-5.2-3
		c-1.4-0.8-2.7-1.4-3.9-1.6c-0.5-0.1-1-0.1-1.4-0.1c-0.5,0-1,0.1-1.4,0.3c-0.7,0.3-1.3,0.7-1.8,1.1c-0.5,0.4-0.9,0.8-1.1,1.2
		l-0.2,0.6L0.7,48.5z"/>
	<path class="st1" d="M47.9,22.4v-0.7c1.2,0,2.1,0.3,3,0.8c0.8,0.5,1.4,1,1.8,1.6c0.4,0.6,0.7,1.5,0.9,2.6c0.2,1.1,0.3,2,0.3,2.7
		c0,0.7,0,1.6,0,2.9c0,0.3,0,0.5,0,0.7L53.7,46c0,1.4,0.2,2.6,0.8,3.5c0.6,1,1.2,1.6,1.8,1.8l0.9,0.4l4.7-4.6c0,0-0.1-0.2-0.1-0.4
		c-0.1-0.4-0.1-1-0.1-1.8c0-0.2,0-0.5-0.1-0.7c0-0.5,0-0.9,0.1-1.4V42c0.1-5,0.1-7.5,0.1-7.6s0-0.5,0-1.2c0-0.7,0-1.3,0-1.8
		c0-0.5,0-1.2-0.1-2.1c0-0.9-0.1-1.6-0.2-2.3c-0.1-0.7-0.3-1.3-0.5-2c-0.2-0.7-0.5-1.2-0.8-1.7c-0.4-0.5-0.8-0.7-1.3-0.9v-0.7
		c1.2,0,2.1,0.3,2.9,0.8s1.4,1,1.8,1.6c0.4,0.6,0.7,1.5,0.9,2.6c0.2,1.1,0.3,2,0.3,2.7c0,0.7,0,1.7,0,2.9c0,0.3,0,0.5,0,0.6
		l-0.1,6.5c0,0.9,0,1.7,0,2.4s0,1.4,0,1.9c0,1.2,0.1,2,0.1,2.6l0.1,0.8c0.2,1,0.4,1.8,0.7,2.5c0.3,0.7,0.6,1.2,0.9,1.5
		c0.3,0.3,0.6,0.5,0.9,0.6s0.5,0.2,0.7,0.2h0.3v0.7c-0.2,0-0.4,0-0.6,0c-2.7,0-4.5-1.2-5.5-3.6c-0.1,0.3-0.5,0.8-1,1.3l-2.1,2.2
		c-0.3,0-0.6,0-0.9,0c-1.2,0-2.3-0.1-3.3-0.4c-1.2-0.3-2.3-1-3.2-2.1c-0.9-1.1-1.4-2.5-1.4-4.3c0-0.1,0.1-3.8,0.2-11.1
		c0-0.7,0-1.4,0-2c0-3-0.2-5.3-0.5-6.8C49.9,24.1,49.1,22.9,47.9,22.4z"/>
	<path class="st1" d="M74.2,41.5V27.2l5.3-5.5c3.7,0,6.3,0.9,7.8,2.7c1.4,1.8,2.2,4.7,2.2,8.6v23.6c0,3.4-0.6,5.8-1.7,7.1
		s-3.3,2-6.5,2c-0.1,0-0.2,0-0.3,0L74.8,61h2.6l5.4,4.1c0.1,0,0.2,0,0.4-0.1c0.2,0,0.4-0.2,0.8-0.5c0.4-0.3,0.7-0.7,1-1.3
		c0.3-0.5,0.6-1.4,0.8-2.6s0.4-2.5,0.4-4.1v-4.2c0-1.2,0-1.9,0.1-2.2c-0.2,0.5-1,1.3-2.2,2.5c-0.2,0-0.3,0-0.5,0
		c-3.5,0-6-0.9-7.4-2.6C74.9,48.2,74.2,45.4,74.2,41.5z M77.3,40.1c0,1.2,0,2.1,0,2.8c0,0.6,0.1,1.5,0.3,2.6c0.2,1.1,0.4,2,0.7,2.7
		s0.8,1.4,1.4,2.1c0.6,0.7,1.4,1.3,2.4,1.7l4.2-4.9V34.8c0-0.1,0-0.3,0-0.6c0-1.4,0-2.6-0.1-3.4c-0.1-0.8-0.2-1.8-0.5-3.1
		s-0.7-2.3-1.4-3.1c-0.7-0.8-1.6-1.5-2.7-2.1l-4.3,4.9v12C77.3,39.6,77.3,39.8,77.3,40.1z"/>
</g>
<g class="st0">
	<path class="st1" d="M97.2,44.4c0-2.4,0.1-4,0.3-4.7l12.2-5.5v-2c0,0,0-0.3,0-0.9c0-0.1,0-0.3,0-0.5c0-0.5,0-1.1-0.1-1.8
		c-0.1-0.9-0.3-1.9-0.5-2.8c-0.2-0.9-0.6-1.7-1.1-2.5c-0.5-0.7-1.2-1.2-2-1.4c-0.1,0-0.3,0-0.5,0.1c-0.2,0-0.5,0.2-1,0.4
		c-0.5,0.2-0.9,0.6-1.2,1c-0.4,0.4-0.7,1-1,1.8c-0.3,0.8-0.4,1.8-0.4,2.9h-3.1c0-2.3,0.7-4,2-5.1c1.4-1.1,3.2-1.7,5.5-1.7
		c1.4,0,2.5,0.3,3.4,0.8c0.9,0.5,1.6,1.3,2,2.2c0.4,1,0.7,2,0.9,3c0.2,1,0.2,2.2,0.2,3.6v10.1c0,3.8,0.2,6.4,0.7,7.8
		c0.1,0.2,0.2,0.5,0.4,0.8c0.2,0.3,0.5,0.8,1.1,1.3c0.6,0.6,1.2,0.8,1.8,0.8v0.6c-0.1,0-0.3,0.1-0.5,0.1c-0.1,0-0.2,0-0.2,0
		c-0.2,0-0.5,0-0.9-0.1c-0.6,0-1.1-0.2-1.6-0.3c-0.5-0.2-1-0.5-1.5-1c-0.5-0.5-1-1.1-1.2-1.9l-4,2.5c-0.2,0.1-0.5,0.3-0.9,0.4
		c-0.4,0.2-1.2,0.3-2.3,0.3c0,0-0.1,0-0.1,0.1c-1.1,0-2.1-0.3-3.1-0.9c-0.2-0.1-0.5-0.4-0.9-0.7c-0.3-0.3-0.8-1.1-1.3-2.4
		C97.5,47.5,97.2,46,97.2,44.4z M100.3,44.1c0,0.4,0,0.9,0.1,1.7c0.1,0.9,0.2,1.8,0.4,2.6c0.2,0.8,0.5,1.6,1,2.3s1.1,1.3,1.8,1.5
		l6.6-4.3c0,0-0.1-0.1-0.2-0.4c-0.1-0.2-0.1-1.4-0.2-3.5c0-1.4-0.1-3.1-0.1-5.1c0-1,0-2.1,0-3.3l-9.2,4.1l-0.1,3.3L100.3,44.1z"/>
</g>
<g class="st0">
	<path class="st1" d="M119.8,22.8h2.4c1.4,1.9,2.1,2.9,2.1,3.2c0-0.4,1.3-1.8,3.7-4.2c0.5-0.1,0.9-0.1,1.4-0.1c1.6,0,3,0.4,4.2,1.4
		c1.5,1.2,2.3,3,2.3,5.3h-3.1c0-0.8-0.1-1.6-0.3-2.3s-0.4-1.2-0.7-1.6c-0.2-0.4-0.5-0.8-0.8-1.1c-0.3-0.3-0.5-0.5-0.7-0.6l-0.2-0.1
		l-4.2,4.7v12c0,0.1,0,0.2,0,0.5c0,0.1,0,0.2,0,0.4c0,7.9,1.3,11.8,3.8,11.8h0.1v0.7c-0.2,0-0.4,0-0.6,0c-0.5,0-1,0-1.5-0.1
		c-0.6-0.1-1.2-0.3-1.6-0.4c-0.5-0.2-0.9-0.5-1.2-0.9c-0.4-0.5-0.6-0.8-0.9-1.1c-0.2-0.3-0.4-0.8-0.6-1.5c-0.2-0.8-0.3-1.3-0.4-1.6
		c-0.1-0.3-0.1-0.9-0.2-1.8c0-0.9-0.1-1.5-0.1-1.7s0-0.9-0.1-1.9v-14L119.8,22.8z"/>
	<path class="st1" d="M160.4,17.2c0-1.6,0.3-2.9,0.8-4c0.6-1.1,1.2-1.9,2-2.4c0.8-0.5,1.6-0.8,2.4-1.1c0.8-0.3,1.5-0.4,2-0.4h0.9
		c3.5,0,5.6,1.1,6.3,3.2c0.1-0.5,0.6-1,1.5-1.6c0.8-0.5,1.8-0.9,2.9-1.2c1.1-0.3,2-0.5,2.6-0.5h1c2.4,0,4.4,0.3,6.1,1
		c1.7,0.7,3,1.5,3.8,2.4c0.8,0.9,1.4,1.8,1.8,2.8c0.4,0.9,0.6,1.7,0.7,2.4l0.1,1c0,1.3-0.2,2.4-0.5,3.5s-0.7,1.8-1.2,2.4
		c-0.5,0.6-1,1.1-1.4,1.5c-0.5,0.4-0.9,0.7-1.2,0.8l-0.5,0.2c2.3,0.2,4.3,0.8,6,1.7c1.7,0.9,3,1.9,3.8,3s1.4,2.2,1.9,3.3
		c0.5,1.1,0.7,2,0.8,2.8l0.1,1.1c0,0.4,0.1,0.9,0.1,1.3c0,1.6-0.2,3.1-0.6,4.6c-0.5,1.9-0.9,3.3-1.5,4.2l-0.7,1.4
		c-0.8,1.3-1.9,2.4-3.2,3.3c-1.3,0.9-2.6,1.5-4,1.8c-1.3,0.3-2.6,0.6-3.8,0.7c-0.9,0.1-1.7,0.2-2.4,0.1c-0.2,0-0.4,0-0.6,0l-1.1-0.1
		c-1.5-0.1-2.9-0.3-4.4-0.7s-2.5-0.7-3.2-1.1l-1.1-0.5l-5.1-2.9c-1.4-0.8-2.7-1.3-4-1.5c-0.5-0.1-1-0.1-1.4-0.1
		c-0.6,0-1.1,0.1-1.5,0.2c-0.7,0.3-1.3,0.6-1.8,1s-0.8,0.8-1.1,1.1l-0.2,0.6l-0.7-0.4c0.4-1,0.9-1.9,1.7-2.7
		c0.7-0.8,1.4-1.3,1.9-1.5l0.9-0.4c1-0.2,1.9-0.4,2.7-0.4c0.4,0,0.8,0,1.2,0.1c1.2,0.2,2.3,0.5,3.2,1l1.2,0.6c1.5,0.8,3.1,1.9,5,3.2
		c1.7,1.2,3.4,2,5.1,2.6c1.6,0.5,2.9,0.8,4,0.8c0.1,0,0.2,0,0.2,0c1.2,0,2.2-0.2,3.1-0.4c0.9-0.2,1.6-0.5,2.1-0.8l0.7-0.4
		c1.6-1.2,2.8-2.6,3.8-4.3c0.9-1.7,1.5-3.3,1.7-4.8c0.2-1.5,0.3-3,0.3-4.4c0-1.4-0.1-2.5-0.3-3.3l-0.2-1.2c-0.3-1.5-0.9-2.8-1.8-4
		c-0.8-1.1-1.8-1.9-2.7-2.4c-1-0.5-1.9-0.9-2.8-1.2c-0.9-0.3-1.7-0.5-2.2-0.5l-0.9-0.1c-0.9,0.2-2.1,0.4-3.8,0.5
		c-1.6,0.1-3,0.1-4.2,0.1l-1.8-0.1v-0.7c0.4,0,0.7,0,1.1,0c1.5,0,2.9-0.2,4.2-0.4c1.6-0.3,2.8-0.8,3.6-1.3c0.8-0.5,1.6-1.1,2.1-1.7
		s0.9-1.1,1.1-1.5l0.2-0.6c0.3-1.1,0.5-2.2,0.5-3.1c0-0.3,0-0.6,0-0.9c-0.2-1.2-0.4-2.3-0.8-3l-0.6-1.2c-0.6-1.2-1.6-2.1-2.9-2.8
		c-1.3-0.7-2.4-1.1-3.3-1.2l-1.5-0.2c-1.5,0-2.8,0.4-3.8,1.1c-1,0.7-1.7,1.6-2.1,2.7s-0.6,2-0.7,2.6c-0.1,0.6-0.2,1.2-0.2,1.8v16.4
		c0,1.9-0.5,3.3-1.5,4.2c-1,0.9-2,1.4-3,1.4l-1.4-0.1v-0.7c0.8,0,1.5-0.4,1.9-1.3c0.5-0.9,0.7-1.8,0.8-2.7l0.1-1.3v-17
		c0-0.2,0-0.3,0-0.5c0-1.1-0.1-2.1-0.4-2.9c-0.3-1-0.6-1.7-1.1-2.1c-0.4-0.4-0.8-0.8-1.2-1c-0.4-0.2-0.8-0.3-1.1-0.3l-0.4-0.1
		c-3.6,0-5.4,2.4-5.4,7.2H160.4z"/>
</g>
<g class="st0">
	<path class="st1" d="M209.9,22.8h2.4c1.4,1.9,2.1,2.9,2.1,3.2c0-0.4,1.3-1.8,3.7-4.2c0.5-0.1,0.9-0.1,1.4-0.1c1.6,0,3,0.4,4.2,1.4
		c1.5,1.2,2.3,3,2.3,5.3h-3.1c0-0.8-0.1-1.6-0.3-2.3c-0.2-0.7-0.4-1.2-0.7-1.6c-0.2-0.4-0.5-0.8-0.8-1.1c-0.3-0.3-0.5-0.5-0.7-0.6
		l-0.2-0.1l-4.2,4.7v12c0,0.1,0,0.2,0,0.5c0,0.1,0,0.2,0,0.4c0,7.9,1.3,11.8,3.8,11.8h0.1v0.7c-0.2,0-0.4,0-0.6,0
		c-0.5,0-1,0-1.5-0.1c-0.6-0.1-1.2-0.3-1.6-0.4c-0.5-0.2-0.9-0.5-1.2-0.9c-0.4-0.5-0.6-0.8-0.9-1.1c-0.2-0.3-0.4-0.8-0.6-1.5
		c-0.2-0.8-0.3-1.3-0.4-1.6c-0.1-0.3-0.1-0.9-0.2-1.8c0-0.9-0.1-1.5-0.1-1.7s0-0.9-0.1-1.9v-14L209.9,22.8z"/>
</g>
<g class="st0">
	<path class="st1" d="M228.6,36.2l3.7-1.7c0-1.1,0-2.1,0.1-3.1s0.2-1.7,0.2-2.1l0.1-0.7c0.2-1.3,0.7-2.5,1.4-3.4
		c0.7-1,1.4-1.6,2.1-2.1c0.8-0.4,1.5-0.8,2.2-1c0.7-0.2,1.3-0.4,1.7-0.4h0.7c0.1,0,0.2,0,0.4,0c1.2,0,2.4,0.2,3.3,0.6
		c1.1,0.4,1.9,1,2.4,1.6c0.5,0.7,0.9,1.3,1.3,2c0.3,0.7,0.5,1.2,0.6,1.7l0.1,0.7l-13.6,6.1v5c0,1.1,0,2,0,2.6c0,0.6,0.1,1.5,0.2,2.6
		c0.1,1.1,0.3,2,0.7,2.6s0.7,1.4,1.2,2.1c0.5,0.7,1.2,1.3,2,1.8c0.9,0.4,1.9,0.7,3,0.8v0.7c-0.2,0-0.3,0-0.5,0c-3.5,0-6-0.8-7.4-2.5
		c-1.5-1.8-2.3-4.7-2.4-8.5v-4.5v-1.4l-1.3,0.6H228.6z M235.4,33.1l10.7-4.8c0-0.2-0.1-0.4-0.2-0.6c-0.1-0.3-0.2-0.7-0.5-1.4
		c-0.2-0.7-0.5-1.3-0.9-1.8c-0.4-0.5-0.8-1-1.5-1.4c-0.6-0.4-1.3-0.6-2-0.6c-0.2,0-0.6,0.1-0.9,0.2s-1,0.5-1.9,1.3
		c-0.9,0.8-1.5,1.8-2,3.1C235.6,28.4,235.4,30.5,235.4,33.1z"/>
</g>
<g class="st0">
	<path class="st1" d="M254,44.4c0-2.4,0.1-4,0.3-4.7l12.2-5.5v-2c0,0,0-0.3,0-0.9c0-0.1,0-0.3,0-0.5c0-0.5,0-1.1-0.1-1.8
		c-0.1-0.9-0.3-1.9-0.5-2.8s-0.6-1.7-1.1-2.5c-0.5-0.7-1.2-1.2-2-1.4c-0.1,0-0.3,0-0.5,0.1c-0.2,0-0.5,0.2-1,0.4
		c-0.5,0.2-0.9,0.6-1.2,1c-0.4,0.4-0.7,1-1,1.8c-0.3,0.8-0.4,1.8-0.4,2.9h-3.1c0-2.3,0.7-4,2-5.1c1.4-1.1,3.2-1.7,5.5-1.7
		c1.4,0,2.5,0.3,3.4,0.8c0.9,0.5,1.6,1.3,2,2.2c0.4,1,0.7,2,0.9,3c0.2,1,0.2,2.2,0.2,3.6v10.1c0,3.8,0.2,6.4,0.7,7.8
		c0.1,0.2,0.2,0.5,0.4,0.8c0.2,0.3,0.5,0.8,1.1,1.3c0.6,0.6,1.2,0.8,1.8,0.8v0.6c-0.1,0-0.3,0.1-0.5,0.1c-0.1,0-0.2,0-0.2,0
		c-0.2,0-0.5,0-0.9-0.1c-0.6,0-1.1-0.2-1.6-0.3c-0.5-0.2-1-0.5-1.5-1s-1-1.1-1.2-1.9l-4,2.5c-0.2,0.1-0.5,0.3-0.9,0.4
		c-0.4,0.2-1.2,0.3-2.3,0.3c0,0-0.1,0-0.1,0.1c-1.1,0-2.1-0.3-3.1-0.9c-0.2-0.1-0.5-0.4-0.9-0.7c-0.3-0.3-0.8-1.1-1.3-2.4
		C254.2,47.5,254,46,254,44.4z M257.1,44.1c0,0.4,0,0.9,0.1,1.7c0.1,0.9,0.2,1.8,0.4,2.6c0.2,0.8,0.5,1.6,1,2.3s1.1,1.3,1.8,1.5
		l6.6-4.3c0,0-0.1-0.1-0.2-0.4c-0.1-0.2-0.1-1.4-0.2-3.5c0-1.4-0.1-3.1-0.1-5.1c0-1,0-2.1,0-3.3l-9.2,4.1l-0.1,3.3L257.1,44.1z"/>
	<path class="st1" d="M277.1,19h3.2v-3.5c0-1.5-0.1-2.9-0.3-4.1c-0.2-1.2-0.3-2.1-0.5-2.6l-0.2-0.7c0.4,0.4,0.8,0.9,1.3,1.6
		c0.4,0.7,0.8,1.3,1.1,1.8l0.3,0.8l2.3-1.5c-0.6,0.9-0.9,2.5-0.9,4.7V19h2.3l1.4,2.7h-3.7v17.8c0,4.4,0.3,7.5,0.8,9.1
		c0.5,1.7,1.6,2.8,3.1,3.4v0.6c-0.2,0-0.4,0-0.6,0c-1.1,0-2-0.2-2.8-0.6c-0.9-0.5-1.6-1-2.1-1.5c-0.5-0.6-0.8-1.5-1.1-2.8
		s-0.4-2.2-0.4-2.9c0-0.7,0-1.8,0-3.3V21.7h-2L277.1,19z"/>
	<path class="st1" d="M294.3,8.1c0.5,0.4,0.9,0.9,1.3,1.6c0.4,0.7,0.8,1.3,1,1.8l0.3,0.8l2.3-1.5c-0.6,0.8-0.9,2.3-0.9,4.6v6
		c0,1.7-0.1,2.7-0.2,2.8l2.3-2.5c0.4,0,0.8-0.1,1.2-0.1c2.3,0,4.1,0.4,5.4,1.2c1.5,0.9,2.3,2.7,2.3,5.4v11.1c0,3.8,0.2,6.8,0.7,9
		c0.5,2.2,1.5,3.4,3.1,3.6v0.7c-0.2,0-0.4,0-0.6,0c-1.1,0-2-0.2-2.9-0.6c-0.9-0.5-1.6-1.1-2-1.7c-0.4-0.6-0.8-1.6-1-2.8
		s-0.4-2.2-0.4-3c0-0.7,0-1.8,0-3.1V28.3c0-0.9-0.1-1.7-0.4-2.4s-0.5-1.3-0.9-1.7c-0.3-0.4-0.7-0.8-1-1c-0.3-0.3-0.6-0.4-0.9-0.5
		l-0.4-0.1l-4.5,4.8v12.1c0,0.4,0,0.9,0,1.6c0,0.3,0,0.7,0,1.1c0,0.4,0,0.7,0,1.1c0,0.8,0.1,1.6,0.2,2.4c0.1,0.8,0.2,1.6,0.4,2.3
		c0.2,0.8,0.4,1.4,0.7,2c0.3,0.6,0.6,1.1,1.1,1.5c0.5,0.4,1,0.6,1.6,0.6v0.7c-0.2,0-0.4,0-0.6,0c-1.1,0-2-0.1-2.9-0.6
		c-1-0.5-1.7-1.1-2.1-1.7c-0.5-0.6-0.8-1.6-1.1-2.8s-0.4-2.2-0.4-3c0-0.8-0.1-1.8-0.1-3.2v-14v-12c0-1.5-0.1-2.9-0.2-4.2
		c-0.1-1.2-0.3-2.1-0.4-2.5L294.3,8.1z"/>
</g>
</svg>
