<?xml version="1.0" encoding="utf-8"?>
<!-- Generator: Adobe Illustrator 25.4.2, SVG Export Plug-In . SVG Version: 6.00 Build 0)  -->
<svg version="1.1" id="Layer_1" xmlns="http://www.w3.org/2000/svg" xmlns:xlink="http://www.w3.org/1999/xlink" x="0px" y="0px"
	 viewBox="0 0 293.2 142.7" style="enable-background:new 0 0 293.2 142.7;" xml:space="preserve">
<style type="text/css">
	.st0{enable-background:new    ;}
	.st1{fill:#231F20;}
</style>
<g class="st0">
	<path class="st1" d="M0.7,48.5c0.4-1,0.9-1.9,1.6-2.7c0.7-0.7,1.4-1.2,1.9-1.5L5,44c1-0.3,1.9-0.4,2.8-0.4c0.4,0,0.8,0,1.2,0.1
		c1.2,0.2,2.3,0.5,3.2,0.9l1.3,0.7c1.4,0.8,3,1.9,4.9,3.2c1.7,1.1,3.4,2,5,2.5c1.5,0.5,2.8,0.8,4,0.8c0.1,0,0.2,0,0.2,0
		c1.2,0,2.2-0.2,3.1-0.4c0.9-0.2,1.6-0.5,2.1-0.7l0.7-0.4c1.6-1.2,2.8-2.7,3.7-4.4c0.9-1.7,1.5-3.4,1.7-5c0.2-1.6,0.3-3.1,0.3-4.4
		s-0.1-2.5-0.2-3.4l-0.2-1.2c-0.3-1.5-0.8-2.8-1.5-3.8c-0.7-1.1-1.5-1.9-2.4-2.4s-1.7-0.9-2.5-1.1c-0.8-0.3-1.5-0.4-2-0.5L29.7,24
		l-5.4,4.8c-0.2,0.1-0.5,0.1-0.8,0.1c-0.1,0-0.3,0-0.4,0c-0.3,0-0.8,0-1.5-0.1c-1,0-1.9-0.1-2.8-0.3c-0.9-0.2-1.8-0.5-2.9-1
		c-1.1-0.5-2-1.2-2.8-2c-0.8-0.8-1.4-1.9-1.9-3.3c-0.5-1.4-0.8-3-0.8-4.8c0.3-2.8,1.4-4.8,3.3-6.1c1.8-1.3,4.2-2,7-2h4.8l5.2,5.3
		h-3.1L22.7,10h-0.5c-0.3,0-0.8,0-1.3,0.1c-0.5,0.1-1.1,0.2-1.8,0.3c-0.6,0.1-1.3,0.4-1.9,0.8c-0.6,0.4-1.2,0.9-1.8,1.5
		c-0.5,0.6-1,1.4-1.3,2.4c-0.3,1-0.5,2.1-0.5,3.4c0,0.2,0,0.6,0,1c0,0.4,0.2,1.1,0.4,2.1c0.3,1,0.6,2,1.1,2.8
		c0.5,0.8,1.3,1.6,2.5,2.3c1.2,0.7,2.5,1.1,4.1,1.3l5.9-4.8c2.7,0,5.1,0.4,7.1,1.2c2,0.8,3.5,1.8,4.4,3c0.9,1.2,1.7,2.3,2.2,3.5
		s0.8,2.2,0.9,3l0.1,1.2c0,0.5,0.1,0.9,0.1,1.3c0,1.5-0.2,3.1-0.6,4.6c-0.4,1.9-0.9,3.4-1.4,4.3l-0.8,1.4c-1.3,2-3.2,3.5-5.7,4.5
		c-2.4,1-4.5,1.4-6.3,1.4c-0.1,0-0.2,0-0.2,0l-2.7-0.1c-1.6,0-3.1-0.2-4.5-0.6s-2.4-0.7-3-1l-0.9-0.5l-5.2-3
		c-1.4-0.8-2.7-1.4-3.9-1.6c-0.5-0.1-1-0.1-1.4-0.1c-0.5,0-1,0.1-1.4,0.3c-0.7,0.3-1.3,0.7-1.8,1.1c-0.5,0.4-0.9,0.8-1.1,1.2
		l-0.2,0.6L0.7,48.5z"/>
	<path class="st1" d="M43.6,22.8H46l2.2,3.1c0-0.4,0.3-0.8,0.8-1.3l2.9-2.9c0.5,0,1-0.1,1.4-0.1c3.4,0,5.7,1.1,6.9,3.2
		c0-0.2,1-1.3,2.9-3.1c0.6,0,1.1-0.1,1.6-0.1c4.7,0,7.1,2.2,7.1,6.7v11c0,0.1,0,0.2,0,0.5c0,0.1,0,0.2,0,0.4c0,7.6,1.3,11.5,4,11.7
		v0.7c-0.3,0-0.6,0.1-0.9,0.1c-0.7,0-1.4-0.1-2-0.2c-0.8-0.2-1.5-0.6-2-1.3c-0.5-0.6-0.9-1.3-1.2-1.8c-0.3-0.6-0.5-1.4-0.7-2.5
		c-0.1-1.1-0.2-2-0.2-2.6c0-0.6-0.1-1.6-0.1-2.8v-13c0-0.9-0.1-1.7-0.3-2.4c-0.2-0.7-0.5-1.3-0.8-1.7c-0.3-0.4-0.7-0.8-1-1
		c-0.3-0.3-0.6-0.5-0.8-0.6l-0.4-0.1l-4.4,5.2c0,0.1,0,0.2,0,0.2c0,0.1,0,0.2,0,0.3c0,0.1,0,0.3,0,0.4s0,0.4,0,0.7c0,0.3,0,0.7,0,1
		s0,0.9,0,1.5c0,0.6,0,1.3,0,2c0,0.7,0,1.6,0,2.6c0,1,0,2.1,0,3.3c0,8,1.3,12.1,3.8,12.2v0.7c-0.3,0-0.6,0.1-0.8,0.1
		c-1.1,0-2-0.2-2.7-0.7c-1-0.6-1.7-1.5-2.2-2.7c-0.4-1.2-0.7-2.5-0.9-3.7c-0.2-1.2-0.3-2.6-0.3-4.1v-13c0-1.4-0.3-2.6-0.9-3.6
		s-1.2-1.6-1.9-1.8l-1-0.4l-4.2,4.8v12c0,0.1,0,0.4,0,0.7c0,1.1,0,1.9,0,2.6c0,0.7,0.1,1.6,0.2,2.9c0.1,1.2,0.3,2.2,0.6,3
		c0.2,0.8,0.7,1.5,1.2,2.2c0.6,0.7,1.2,1.1,2,1.3v0.7c-0.3,0-0.6,0.1-0.9,0.1c-0.9,0-1.7-0.2-2.4-0.5c-0.9-0.4-1.6-0.9-2-1.5
		c-0.5-0.6-0.8-1.4-1.1-2.6C47,47,46.9,46,46.8,45.2c0-0.8-0.1-1.9-0.1-3.3c0-0.1,0-0.2,0-0.2c0-0.1,0-0.1,0-0.2v-14L43.6,22.8z"/>
</g>
<g class="st0">
	<path class="st1" d="M76.8,44.4c0-2.4,0.1-4,0.3-4.7l12.2-5.5v-2c0,0,0-0.3,0-0.9c0-0.1,0-0.3,0-0.5c0-0.5,0-1.1-0.1-1.8
		c-0.1-0.9-0.3-1.9-0.5-2.8c-0.2-0.9-0.6-1.7-1.1-2.5c-0.5-0.7-1.2-1.2-2-1.4c-0.1,0-0.3,0-0.5,0.1c-0.2,0-0.5,0.2-1,0.4
		c-0.5,0.2-0.9,0.6-1.2,1c-0.4,0.4-0.7,1-1,1.8c-0.3,0.8-0.4,1.8-0.4,2.9h-3.1c0-2.3,0.7-4,2-5.1c1.4-1.1,3.2-1.7,5.5-1.7
		c1.4,0,2.5,0.3,3.4,0.8c0.9,0.5,1.6,1.3,2,2.2c0.4,1,0.7,2,0.9,3c0.2,1,0.2,2.2,0.2,3.6v10.1c0,3.8,0.2,6.4,0.7,7.8
		c0.1,0.2,0.2,0.5,0.4,0.8c0.2,0.3,0.5,0.8,1.1,1.3c0.6,0.6,1.2,0.8,1.8,0.8v0.6c-0.1,0-0.3,0.1-0.5,0.1c-0.1,0-0.2,0-0.2,0
		c-0.2,0-0.5,0-0.9-0.1c-0.6,0-1.1-0.2-1.6-0.3c-0.5-0.2-1-0.5-1.5-1c-0.5-0.5-1-1.1-1.2-1.9l-4,2.5c-0.2,0.1-0.5,0.3-0.9,0.4
		c-0.4,0.2-1.2,0.3-2.3,0.3c0,0-0.1,0-0.1,0.1c-1.1,0-2.1-0.3-3.1-0.9c-0.2-0.1-0.5-0.4-0.9-0.7c-0.3-0.3-0.8-1.1-1.3-2.4
		C77.1,47.5,76.8,46,76.8,44.4z M79.9,44.1c0,0.4,0,0.9,0.1,1.7c0.1,0.9,0.2,1.8,0.4,2.6c0.2,0.8,0.5,1.6,1,2.3s1.1,1.3,1.8,1.5
		l6.6-4.3c0,0-0.1-0.1-0.2-0.4c-0.1-0.2-0.1-1.4-0.2-3.5c0-1.4-0.1-3.1-0.1-5.1c0-1,0-2.1,0-3.3l-9.2,4.1L80,43L79.9,44.1z"/>
</g>
<g class="st0">
	<path class="st1" d="M94.7,22.8h2.4c1.4,1.9,2.1,2.9,2.1,3.2c0-0.4,1.3-1.8,3.7-4.2c0.5-0.1,0.9-0.1,1.4-0.1c1.6,0,3,0.4,4.2,1.4
		c1.5,1.2,2.3,3,2.3,5.3h-3.1c0-0.8-0.1-1.6-0.3-2.3s-0.4-1.2-0.7-1.6c-0.2-0.4-0.5-0.8-0.8-1.1c-0.3-0.3-0.5-0.5-0.7-0.6l-0.2-0.1
		l-4.2,4.7v12c0,0.1,0,0.2,0,0.5c0,0.1,0,0.2,0,0.4c0,7.9,1.3,11.8,3.8,11.8h0.1v0.7c-0.2,0-0.4,0-0.6,0c-0.5,0-1,0-1.5-0.1
		c-0.6-0.1-1.2-0.3-1.6-0.4c-0.5-0.2-0.9-0.5-1.2-0.9c-0.4-0.5-0.6-0.8-0.9-1.1c-0.2-0.3-0.4-0.8-0.6-1.5c-0.2-0.8-0.3-1.3-0.4-1.6
		C98.1,46.6,98,46,98,45c0-0.9-0.1-1.5-0.1-1.7s0-0.9-0.1-1.9v-14L94.7,22.8z"/>
	<path class="st1" d="M110.9,19h3.2v-3.5c0-1.5-0.1-2.9-0.3-4.1c-0.2-1.2-0.3-2.1-0.5-2.6l-0.2-0.7c0.4,0.4,0.8,0.9,1.3,1.6
		c0.4,0.7,0.8,1.3,1.1,1.8l0.3,0.8l2.3-1.5c-0.6,0.9-0.9,2.5-0.9,4.7V19h2.3l1.4,2.7h-3.7v17.8c0,4.4,0.3,7.5,0.8,9.1
		c0.5,1.7,1.6,2.8,3.1,3.4v0.6c-0.2,0-0.4,0-0.6,0c-1.1,0-2-0.2-2.8-0.6c-0.9-0.5-1.6-1-2.1-1.5c-0.5-0.6-0.8-1.5-1.1-2.8
		s-0.4-2.2-0.4-2.9c0-0.7,0-1.8,0-3.3V21.7h-2L110.9,19z"/>
	<path class="st1" d="M136.6,48.5c0.4-1,0.9-1.9,1.6-2.7c0.7-0.7,1.4-1.2,1.9-1.5l0.8-0.4c1-0.3,1.9-0.4,2.8-0.4
		c0.4,0,0.8,0,1.2,0.1c1.2,0.2,2.3,0.5,3.2,0.9l1.3,0.7c1.4,0.8,3,1.9,4.9,3.2c1.7,1.1,3.4,2,5,2.5c1.5,0.5,2.8,0.8,4,0.8
		c0.1,0,0.2,0,0.2,0c1.2,0,2.2-0.2,3.1-0.4c0.9-0.2,1.6-0.5,2.1-0.7l0.7-0.4c1.6-1.2,2.8-2.7,3.7-4.4c0.9-1.7,1.5-3.4,1.7-5
		s0.3-3.1,0.3-4.4s-0.1-2.5-0.2-3.4l-0.2-1.2c-0.3-1.5-0.8-2.8-1.5-3.8c-0.7-1.1-1.5-1.9-2.4-2.4s-1.7-0.9-2.5-1.1
		c-0.8-0.3-1.5-0.4-2-0.5l-0.7-0.1l-5.4,4.8c-0.2,0.1-0.5,0.1-0.8,0.1c-0.1,0-0.3,0-0.4,0c-0.3,0-0.8,0-1.5-0.1
		c-1,0-1.9-0.1-2.8-0.3s-1.8-0.5-2.9-1c-1.1-0.5-2-1.2-2.8-2c-0.8-0.8-1.4-1.9-1.9-3.3c-0.5-1.4-0.8-3-0.8-4.8
		c0.3-2.8,1.4-4.8,3.3-6.1c1.8-1.3,4.2-2,7-2h4.8l5.2,5.3h-3.1l-4.8-4.6h-0.5c-0.3,0-0.8,0-1.3,0.1c-0.5,0.1-1.1,0.2-1.8,0.3
		c-0.6,0.1-1.3,0.4-1.9,0.8c-0.6,0.4-1.2,0.9-1.8,1.5c-0.5,0.6-1,1.4-1.3,2.4c-0.3,1-0.5,2.1-0.5,3.4c0,0.2,0,0.6,0,1
		c0,0.4,0.2,1.1,0.4,2.1c0.3,1,0.6,2,1.1,2.8c0.5,0.8,1.3,1.6,2.5,2.3c1.2,0.7,2.5,1.1,4.1,1.3l5.9-4.8c2.7,0,5.1,0.4,7.1,1.2
		c2,0.8,3.5,1.8,4.4,3c0.9,1.2,1.7,2.3,2.2,3.5c0.6,1.2,0.8,2.2,0.9,3l0.1,1.2c0,0.5,0.1,0.9,0.1,1.3c0,1.5-0.2,3.1-0.6,4.6
		c-0.4,1.9-0.9,3.4-1.4,4.3l-0.8,1.4c-1.3,2-3.2,3.5-5.7,4.5c-2.4,1-4.5,1.4-6.3,1.4c-0.1,0-0.2,0-0.2,0l-2.7-0.1
		c-1.6,0-3.1-0.2-4.5-0.6c-1.4-0.4-2.4-0.7-3-1l-0.9-0.5l-5.2-3c-1.4-0.8-2.7-1.4-3.9-1.6c-0.5-0.1-1-0.1-1.4-0.1
		c-0.5,0-1,0.1-1.4,0.3c-0.7,0.3-1.3,0.7-1.8,1.1c-0.5,0.4-0.9,0.8-1.1,1.2l-0.2,0.6L136.6,48.5z"/>
	<path class="st1" d="M180.2,22.4v-0.7c1,0,1.8,0.2,2.6,0.5c0.7,0.3,1.3,0.8,1.7,1.3c0.4,0.6,0.8,1.2,1.1,2c0.3,0.7,0.5,1.5,0.5,2.4
		c0.1,0.8,0.1,1.7,0.2,2.6c0,0.5,0,0.9,0,1.3c0,0.4,0,0.8,0,1.2L186,46c0,0.9,0.1,1.7,0.4,2.4c0.2,0.7,0.5,1.3,0.9,1.7
		c0.4,0.4,0.7,0.8,1,1c0.3,0.3,0.6,0.5,0.9,0.6l0.4,0.1l4.5-4.7v-0.9V34.4c0-0.1,0-0.4,0-1c0-0.6,0-1,0-1.4c0-0.4,0-0.9,0-1.6
		c0-0.7-0.1-1.3-0.1-1.8s-0.1-1.1-0.2-1.7c-0.1-0.6-0.2-1.2-0.3-1.6c-0.1-0.5-0.3-0.9-0.5-1.3c-0.2-0.4-0.5-0.8-0.7-1
		c-0.3-0.2-0.6-0.4-1-0.4v-0.7c1,0,1.8,0.1,2.5,0.4c0.7,0.3,1.3,0.8,1.7,1.5c0.4,0.7,0.7,1.3,1,1.9c0.2,0.6,0.4,1.4,0.5,2.5
		c0.1,1.1,0.2,1.9,0.2,2.5c0,0.6,0.1,1.4,0.1,2.6V46c0,0.9,0.1,1.7,0.4,2.4s0.5,1.3,0.9,1.7c0.3,0.4,0.7,0.8,1,1s0.6,0.5,0.9,0.6
		l0.4,0.1l4.5-4.7V34.4c0-0.1,0-0.4,0-1c0-0.6,0-1.1,0-1.4c0-0.4,0-0.9,0-1.6c0-0.7-0.1-1.3-0.1-1.8c-0.1-0.5-0.1-1.1-0.2-1.7
		c-0.1-0.7-0.2-1.2-0.3-1.6c-0.1-0.4-0.3-0.9-0.5-1.3c-0.2-0.4-0.4-0.8-0.7-1c-0.3-0.2-0.6-0.4-1-0.4v-0.7c1,0,1.8,0.1,2.5,0.4
		c0.7,0.3,1.3,0.8,1.7,1.5c0.4,0.7,0.8,1.3,1,1.9c0.3,0.6,0.5,1.4,0.6,2.5c0.1,1.1,0.2,1.9,0.2,2.4s0,1.4,0,2.6v14.2
		c-2.1,2-3.3,3.1-3.3,3.2l-2,2.2c-0.2,0-0.5,0-0.8,0c-3.6,0-6.1-1.1-7.4-3.3c-0.6,0.9-1.5,2-2.9,3.3c-3.1,0-5.3-0.5-6.7-1.5
		c-1.4-1-2.1-2.8-2.1-5.4l0.1-10.9c0-0.7,0-1.4,0-2C183.1,26.1,182.1,22.7,180.2,22.4z"/>
	<path class="st1" d="M208.4,36.2l3.7-1.7c0-1.1,0-2.1,0.1-3.1c0.1-1,0.2-1.7,0.2-2.1l0.1-0.7c0.2-1.3,0.7-2.5,1.4-3.4
		s1.4-1.6,2.1-2.1c0.8-0.4,1.5-0.8,2.2-1c0.7-0.2,1.3-0.4,1.7-0.4h0.7c0.1,0,0.2,0,0.4,0c1.2,0,2.4,0.2,3.3,0.6
		c1.1,0.4,1.9,1,2.4,1.6c0.5,0.7,0.9,1.3,1.3,2c0.3,0.7,0.5,1.2,0.6,1.7l0.1,0.7l-13.6,6.1v5c0,1.1,0,2,0,2.6c0,0.6,0.1,1.5,0.2,2.6
		s0.3,2,0.7,2.6c0.3,0.7,0.7,1.4,1.2,2.1c0.5,0.7,1.2,1.3,2,1.8s1.9,0.7,3,0.8v0.7c-0.2,0-0.3,0-0.5,0c-3.5,0-6-0.8-7.4-2.5
		c-1.5-1.8-2.3-4.7-2.4-8.5v-4.5v-1.4l-1.3,0.6H208.4z M215.2,33.1l10.7-4.8c0-0.2-0.1-0.4-0.2-0.6c-0.1-0.3-0.2-0.7-0.5-1.4
		c-0.2-0.7-0.5-1.3-0.9-1.8c-0.4-0.5-0.8-1-1.5-1.4s-1.3-0.6-2-0.6c-0.2,0-0.6,0.1-0.9,0.2s-1,0.5-1.9,1.3c-0.9,0.8-1.5,1.8-2,3.1
		C215.5,28.4,215.2,30.5,215.2,33.1z"/>
</g>
<g class="st0">
	<path class="st1" d="M227.5,36.2l3.7-1.7c0-1.1,0-2.1,0.1-3.1s0.2-1.7,0.2-2.1l0.1-0.7c0.2-1.3,0.7-2.5,1.4-3.4
		c0.7-1,1.4-1.6,2.1-2.1c0.8-0.4,1.5-0.8,2.2-1c0.7-0.2,1.3-0.4,1.7-0.4h0.7c0.1,0,0.2,0,0.4,0c1.2,0,2.4,0.2,3.3,0.6
		c1.1,0.4,1.9,1,2.4,1.6c0.5,0.7,0.9,1.3,1.3,2c0.3,0.7,0.5,1.2,0.6,1.7l0.1,0.7l-13.6,6.1v5c0,1.1,0,2,0,2.6s0.1,1.5,0.2,2.6
		s0.3,2,0.7,2.6c0.3,0.7,0.7,1.4,1.2,2.1c0.5,0.7,1.2,1.3,2,1.8c0.9,0.4,1.9,0.7,3,0.8v0.7c-0.2,0-0.3,0-0.5,0c-3.5,0-6-0.8-7.4-2.5
		c-1.5-1.8-2.3-4.7-2.4-8.5v-4.5v-1.4l-1.3,0.6H227.5z M234.2,33.1l10.7-4.8c0-0.2-0.1-0.4-0.2-0.6c-0.1-0.3-0.2-0.7-0.5-1.4
		c-0.2-0.7-0.5-1.3-0.9-1.8c-0.4-0.5-0.8-1-1.5-1.4s-1.3-0.6-2-0.6c-0.2,0-0.6,0.1-0.9,0.2s-1,0.5-1.9,1.3c-0.9,0.8-1.6,1.8-2,3.1
		C234.5,28.4,234.2,30.5,234.2,33.1z"/>
</g>
<g class="st0">
	<path class="st1" d="M247.4,19h3.2v-3.5c0-1.5-0.1-2.9-0.3-4.1c-0.2-1.2-0.3-2.1-0.5-2.6l-0.2-0.7c0.4,0.4,0.8,0.9,1.3,1.6
		c0.4,0.7,0.8,1.3,1.1,1.8l0.3,0.8l2.3-1.5c-0.6,0.9-0.9,2.5-0.9,4.7V19h2.3l1.4,2.7h-3.7v17.8c0,4.4,0.3,7.5,0.8,9.1
		c0.5,1.7,1.6,2.8,3.1,3.4v0.6c-0.2,0-0.4,0-0.6,0c-1.1,0-2-0.2-2.8-0.6c-0.9-0.5-1.6-1-2.1-1.5c-0.5-0.6-0.8-1.5-1.1-2.8
		s-0.4-2.2-0.4-2.9c0-0.7,0-1.8,0-3.3V21.7h-2L247.4,19z"/>
	<path class="st1" d="M259.5,46h3.1c0,1.5,0.3,2.7,0.9,3.7c0.6,1,1.2,1.6,1.8,1.8l0.9,0.4l4.2-4.9c0-1.7-0.4-3.3-1.1-5
		c-0.7-1.7-1.5-2.9-2.2-3.8l-1.1-1.2l-6.4-7.1c0-0.3-0.1-0.6-0.1-0.9c0-2,0.5-3.7,1.5-5c1.1-1.5,2.8-2.2,5-2.2
		c1.4,0,2.6,0.2,3.6,0.7c1,0.5,1.7,1,2.1,1.7s0.7,1.3,0.9,2s0.3,1.3,0.2,1.7v0.7h-2.9c0-1.2-0.1-2.2-0.4-3.1s-0.6-1.5-1-1.9
		c-0.4-0.4-0.8-0.7-1.2-0.8c-0.4-0.2-0.7-0.3-1-0.3h-0.4c-1.1,0-1.9,0.7-2.4,1.9c-0.5,1.2-0.8,2.5-0.8,3.7v1.8l5.2,6.1
		c1.2,1.3,2.2,2.5,3,3.8s1.4,2.3,1.7,3.1c0.3,0.8,0.5,1.6,0.6,2.3c0.1,0.7,0.2,1.2,0.1,1.5l-0.1,0.5l-5.1,5.6c-0.3,0-0.6,0-0.9,0
		c-0.9,0-1.7,0-2.4-0.1c-0.9-0.1-1.8-0.4-2.8-0.8c-0.9-0.4-1.6-1.1-2.1-2.1C259.8,48.7,259.5,47.5,259.5,46z"/>
</g>
<g class="st0">
	<path class="st1" d="M0.6,110.3c0.1-0.1,0.1-0.5,0-1.2c0-0.1,0-0.3,0-0.5c0-0.6,0.1-1.4,0.2-2.4c0.2-1.3,0.6-2.7,0.9-4
		c0.4-1.3,1-2.7,2-4.2s2.2-2.8,3.6-3.8h3.1c-0.2,0.2-0.4,0.4-0.7,0.6s-0.9,0.9-1.7,1.9c-0.8,1-1.5,2-2.1,3.1
		c-0.6,1.1-1.1,2.5-1.6,4.1s-0.7,3.4-0.7,5.2c0,4.6,1.5,8.5,4.6,11.9c3,3.4,7.1,5.1,12.2,5.1c1.7,0,3.3-0.2,4.8-0.6
		c1.5-0.4,2.7-0.8,3.6-1.3c0.9-0.5,1.7-1,2.3-1.5c0.6-0.5,1.1-1,1.3-1.3l0.4-0.6c1.2-1.6,1.8-4,2-7.1c0-0.7,0.1-1.4,0.1-2
		c0-2.2-0.3-4.1-0.9-5.5c-0.5-1.4-1.2-2.7-2.1-3.8c-0.9-1.1-1.7-1.8-2.5-2.3c-0.8-0.5-1.6-0.8-2.3-1.1c-0.7-0.3-1.3-0.4-1.8-0.5
		h-0.7c-1.6,0-2.9,0.3-4,0.7c-1.1,0.5-1.9,1-2.3,1.8c-0.5,0.7-0.8,1.4-1,1.9c-0.2,0.6-0.3,1.1-0.3,1.6v3.7c0,0.2,0,0.4,0,0.7
		c0,0.3-0.1,0.8-0.3,1.5c-0.2,0.7-0.6,1.3-1,1.8c-0.4,0.5-1.2,1-2.1,1.4c-0.8,0.3-1.8,0.4-2.9,0.4c-0.2,0-0.5,0-0.7,0v-0.7
		c0.1,0,0.3,0,0.4,0c0.2,0,0.5-0.1,0.9-0.3c0.5-0.2,0.9-0.4,1.2-0.7c0.4-0.3,0.7-0.8,1-1.5c0.3-0.7,0.4-1.5,0.4-2.5V91
		c0-0.2,0-0.5,0-0.8c0-0.3,0.2-0.9,0.5-1.8c0.3-0.9,0.7-1.6,1.3-2.3c0.6-0.6,1.5-1.2,2.8-1.7c1.2-0.5,2.5-0.7,4.2-0.7
		c0.1,0,0.2,0,0.4,0c0.2,0,0.5,0,0.9,0s1,0.1,2,0.4c1,0.2,1.8,0.6,2.5,1.1c0.7,0.5,1.4,1.3,2,2.4c0.6,1.1,0.9,2.4,0.9,4h-3.1
		c0-4.8-1.8-7.2-5.3-7.2c-0.2,0-0.4,0-0.6,0s-0.7,0.1-1.4,0.3c-0.7,0.2-1.2,0.5-1.7,0.9c-0.5,0.4-1,1.1-1.4,2.1
		c-0.4,1-0.6,2.1-0.6,3.5v6.9c0,1.1-0.1,2.1-0.4,2.8c0.6-0.8,1.4-1.5,2.5-2c0.8-0.3,1.6-0.6,2.5-0.8c0.9-0.2,1.5-0.3,2-0.3h0.7
		c1.5,0,3,0.2,4.3,0.5c1.3,0.3,2.4,0.7,3.2,1.2c0.8,0.5,1.5,0.9,2,1.4c0.6,0.5,1,0.9,1.2,1.2l0.4,0.4c1,1.5,1.8,3.2,2.2,4.9
		c0.4,1.4,0.6,2.7,0.6,3.9c0,0.3,0,0.6-0.1,0.8c-0.1,1.4-0.3,2.6-0.5,3.8c-0.3,1.2-0.5,2.1-0.8,2.7l-0.5,0.9
		c-0.1,0.2-0.2,0.5-0.4,0.8c-0.2,0.4-0.7,1-1.6,1.8c-0.9,0.9-1.9,1.6-2.9,2.3c-1.1,0.7-2.6,1.3-4.6,1.8c-2,0.6-4.1,0.8-6.4,0.8
		c-6.1,0-10.9-1.6-14.3-4.9C2.7,118.9,0.9,114.9,0.6,110.3z"/>
	<path class="st1" d="M39.1,96.8v-0.7c1.2,0,2.1,0.3,3,0.8c0.8,0.5,1.4,1,1.8,1.6c0.4,0.6,0.7,1.5,0.9,2.6c0.2,1.1,0.3,2,0.3,2.7
		c0,0.7,0,1.6,0,2.9c0,0.3,0,0.5,0,0.7L45,120.4c0,1.4,0.2,2.6,0.8,3.5c0.6,1,1.2,1.6,1.8,1.8l0.9,0.4l4.7-4.6c0,0-0.1-0.2-0.1-0.4
		c-0.1-0.4-0.1-1-0.1-1.8c0-0.2,0-0.5-0.1-0.7c0-0.5,0-0.9,0.1-1.4v-0.9c0.1-5,0.1-7.5,0.1-7.6s0-0.5,0-1.2c0-0.7,0-1.3,0-1.8
		c0-0.5,0-1.2-0.1-2.1c0-0.9-0.1-1.6-0.2-2.3c-0.1-0.7-0.3-1.3-0.5-2c-0.2-0.7-0.5-1.2-0.8-1.7c-0.4-0.5-0.8-0.7-1.3-0.9v-0.7
		c1.2,0,2.1,0.3,2.9,0.8s1.4,1,1.8,1.6c0.4,0.6,0.7,1.5,0.9,2.6c0.2,1.1,0.3,2,0.3,2.7c0,0.7,0,1.7,0,2.9c0,0.3,0,0.5,0,0.6
		l-0.1,6.5c0,0.9,0,1.7,0,2.4s0,1.4,0,1.9c0,1.2,0.1,2,0.1,2.6l0.1,0.8c0.2,1,0.4,1.8,0.7,2.5c0.3,0.7,0.6,1.2,0.9,1.5
		c0.3,0.3,0.6,0.5,0.9,0.6s0.5,0.2,0.7,0.2h0.3v0.7c-0.2,0-0.4,0-0.6,0c-2.7,0-4.5-1.2-5.5-3.6c-0.1,0.3-0.5,0.8-1,1.3l-2.1,2.2
		c-0.3,0-0.6,0-0.9,0c-1.2,0-2.3-0.1-3.3-0.4c-1.2-0.3-2.3-1-3.2-2.1c-0.9-1.1-1.4-2.5-1.4-4.3c0-0.1,0.1-3.8,0.2-11.1
		c0-0.7,0-1.4,0-2c0-3-0.2-5.3-0.5-6.8C41.1,98.5,40.3,97.3,39.1,96.8z"/>
</g>
<g class="st0">
	<path class="st1" d="M59.4,97.2h2.4l2.2,3.1c0-0.4,0.3-0.8,0.8-1.3l2.9-2.9c0.5,0,1-0.1,1.4-0.1c3.4,0,5.7,1.1,6.9,3.2
		c0-0.2,1-1.3,2.9-3.1c0.6,0,1.1-0.1,1.6-0.1c4.7,0,7.1,2.2,7.1,6.7v11c0,0.1,0,0.2,0,0.5c0,0.1,0,0.2,0,0.4c0,7.6,1.3,11.5,4,11.7
		v0.7c-0.3,0-0.6,0.1-0.9,0.1c-0.7,0-1.4-0.1-2-0.2c-0.8-0.2-1.5-0.6-2-1.3c-0.5-0.6-0.9-1.3-1.2-1.8c-0.3-0.6-0.5-1.4-0.7-2.5
		c-0.1-1.1-0.2-2-0.2-2.6c0-0.6-0.1-1.6-0.1-2.8v-13c0-0.9-0.1-1.7-0.3-2.4c-0.2-0.7-0.5-1.3-0.8-1.7c-0.3-0.4-0.7-0.8-1-1
		c-0.3-0.3-0.6-0.5-0.8-0.6l-0.4-0.1l-4.4,5.2c0,0.1,0,0.2,0,0.2c0,0.1,0,0.2,0,0.3c0,0.1,0,0.3,0,0.4s0,0.4,0,0.7c0,0.3,0,0.7,0,1
		s0,0.9,0,1.5c0,0.6,0,1.3,0,2c0,0.7,0,1.6,0,2.6c0,1,0,2.1,0,3.3c0,8,1.3,12.1,3.8,12.2v0.7c-0.3,0-0.6,0.1-0.8,0.1
		c-1.1,0-2-0.2-2.7-0.7c-1-0.6-1.7-1.5-2.2-2.7c-0.4-1.2-0.7-2.5-0.9-3.7c-0.2-1.2-0.3-2.6-0.3-4.1v-13c0-1.4-0.3-2.6-0.9-3.6
		s-1.2-1.6-1.9-1.8l-1-0.4l-4.2,4.8v12c0,0.1,0,0.4,0,0.7c0,1.1,0,1.9,0,2.6c0,0.7,0.1,1.6,0.2,2.9c0.1,1.2,0.3,2.2,0.6,3
		c0.2,0.8,0.7,1.5,1.2,2.2c0.6,0.7,1.2,1.1,2,1.3v0.7c-0.3,0-0.6,0.1-0.9,0.1c-0.9,0-1.7-0.2-2.4-0.5c-0.9-0.4-1.6-0.9-2-1.5
		c-0.5-0.6-0.8-1.4-1.1-2.6c-0.3-1.2-0.4-2.2-0.5-2.9c0-0.8-0.1-1.9-0.1-3.3c0-0.1,0-0.2,0-0.2c0-0.1,0-0.1,0-0.2v-14L59.4,97.2z"/>
</g>
<g class="st0">
	<path class="st1" d="M90.3,97.2h2.4l2.2,3.1c0-0.4,0.3-0.8,0.8-1.3l2.9-2.9c0.5,0,1-0.1,1.4-0.1c3.4,0,5.7,1.1,6.9,3.2
		c0-0.2,1-1.3,2.9-3.1c0.6,0,1.1-0.1,1.6-0.1c4.7,0,7.1,2.2,7.1,6.7v11c0,0.1,0,0.2,0,0.5c0,0.1,0,0.2,0,0.4c0,7.6,1.3,11.5,4,11.7
		v0.7c-0.3,0-0.6,0.1-0.9,0.1c-0.7,0-1.4-0.1-2-0.2c-0.8-0.2-1.5-0.6-2-1.3c-0.5-0.6-0.9-1.3-1.2-1.8c-0.3-0.6-0.5-1.4-0.7-2.5
		c-0.1-1.1-0.2-2-0.2-2.6c0-0.6-0.1-1.6-0.1-2.8v-13c0-0.9-0.1-1.7-0.3-2.4c-0.2-0.7-0.5-1.3-0.8-1.7c-0.3-0.4-0.7-0.8-1-1
		c-0.3-0.3-0.6-0.5-0.8-0.6l-0.4-0.1l-4.4,5.2c0,0.1,0,0.2,0,0.2c0,0.1,0,0.2,0,0.3c0,0.1,0,0.3,0,0.4s0,0.4,0,0.7c0,0.3,0,0.7,0,1
		s0,0.9,0,1.5c0,0.6,0,1.3,0,2c0,0.7,0,1.6,0,2.6c0,1,0,2.1,0,3.3c0,8,1.3,12.1,3.8,12.2v0.7c-0.3,0-0.6,0.1-0.8,0.1
		c-1.1,0-2-0.2-2.7-0.7c-1-0.6-1.7-1.5-2.2-2.7c-0.4-1.2-0.7-2.5-0.9-3.7c-0.2-1.2-0.3-2.6-0.3-4.1v-13c0-1.4-0.3-2.6-0.9-3.6
		s-1.2-1.6-1.9-1.8l-1-0.4l-4.2,4.8v12c0,0.1,0,0.4,0,0.7c0,1.1,0,1.9,0,2.6c0,0.7,0.1,1.6,0.2,2.9c0.1,1.2,0.3,2.2,0.6,3
		c0.2,0.8,0.7,1.5,1.2,2.2c0.6,0.7,1.2,1.1,2,1.3v0.7c-0.3,0-0.6,0.1-0.9,0.1c-0.9,0-1.7-0.2-2.4-0.5c-0.9-0.4-1.6-0.9-2-1.5
		c-0.5-0.6-0.8-1.4-1.1-2.6c-0.3-1.2-0.4-2.2-0.5-2.9c0-0.8-0.1-1.9-0.1-3.3c0-0.1,0-0.2,0-0.2c0-0.1,0-0.1,0-0.2v-14L90.3,97.2z"/>
	<path class="st1" d="M122.6,96.8v-0.7c1,0,1.8,0.1,2.5,0.4c0.7,0.3,1.3,0.7,1.7,1.3c0.4,0.6,0.8,1.2,1,1.8c0.2,0.6,0.4,1.3,0.5,2.3
		c0.1,1,0.2,1.8,0.2,2.4c0,0.6,0.1,1.4,0.1,2.5c0,0.3,0,0.5,0,0.7l-0.2,12.9c0,0.1,0,0.2,0,0.4c0,0.7,0.1,1.4,0.3,2.1
		c0.2,0.7,0.5,1.3,0.9,1.7c0.4,0.4,0.7,0.8,1.1,1c0.4,0.3,0.7,0.4,0.9,0.5l0.4,0.1l4.6-4.6v-12.7c0-0.1,0-0.3,0-0.6
		c0-0.2,0-0.3,0-0.4c0-7-1-10.7-3-11v-0.7c1,0,1.8,0.2,2.5,0.5c0.7,0.3,1.3,0.8,1.7,1.5c0.4,0.7,0.7,1.3,1,1.9
		c0.2,0.6,0.4,1.4,0.5,2.5c0.1,1.1,0.1,1.9,0.2,2.4c0,0.5,0,1.4,0,2.5v11.3v12.1c0,3.4-0.7,5.9-2,7.3c-1.1,1.2-2.8,1.9-5,1.9
		c-0.5,0-0.9,0-1.4-0.1l-5.8-4.7h2.3l5.5,4c0.1,0,0.2,0,0.4-0.1c0.2,0,0.5-0.2,0.9-0.6c0.4-0.3,0.8-0.8,1.1-1.3
		c0.3-0.5,0.6-1.4,0.9-2.5c0.3-1.2,0.4-2.5,0.4-4.1v-5.1l0.1-1.6c-0.1,0.4-1,1.3-2.5,2.7c-0.5,0-1.1,0.1-1.5,0.1
		c-2,0-3.7-0.4-4.9-1.2c-1.5-1-2.3-2.9-2.4-5.6l0.1-11.1c0-0.1,0-0.5,0-1c0-0.6,0-1,0-1.4c0-0.4,0-0.9,0-1.6c0-0.7-0.1-1.3-0.1-1.8
		c0-0.5-0.1-1.1-0.2-1.8c-0.1-0.6-0.2-1.2-0.3-1.7c-0.1-0.5-0.3-0.9-0.5-1.4c-0.2-0.5-0.5-0.8-0.7-1.1
		C123.3,97.2,122.9,97,122.6,96.8z"/>
	<path class="st1" d="M155.4,88.7c0.3-1,0.8-1.9,1.4-2.6c0.7-0.8,1.2-1.3,1.7-1.5l0.7-0.4c0.8-0.3,1.5-0.4,2.3-0.4
		c0.4,0,0.8,0,1.2,0.1c1.1,0.2,2,0.5,2.7,1l1.1,0.7c1.4,0.9,2.8,1.3,4,1.4c0.2,0,0.3,0,0.6,0c1,0,1.7-0.2,2.2-0.5l0.7-0.6v0.7
		c-0.5,0.8-1,1.5-1.6,1.9c-2,1.4-2.9,3.6-2.9,6.6v4.2v20.7l4.9,6.2h0.6c0.4,0,0.9-0.1,1.5-0.2c0.6-0.1,1.3-0.2,2-0.3
		c0.7-0.2,1.5-0.4,2.2-0.8s1.4-0.8,2-1.3c0.6-0.5,1.1-1.2,1.5-2.1s0.6-1.9,0.6-3v-14.6H179l1.7-2.7h4.1v-8.6v-3.6h3.1v12.2h5.7
		l-1.7,2.7h-3.9v16c3.3,4.2,5,6.2,5.1,6.2h0.6c0.4,0,0.9-0.1,1.4-0.2c0.6-0.1,1.2-0.2,2-0.3c0.7-0.2,1.4-0.4,2.1-0.8
		c0.7-0.4,1.3-0.8,1.9-1.3c0.6-0.5,1.1-1.2,1.4-2.1s0.6-1.9,0.6-3V95.3v-3.8c0-5-1.8-7.6-5.4-7.8c2.1,0,3.9,0.4,5.3,1.3
		c0.9,0.7,1.5,1.4,1.9,1.9c0.3-0.5,0.8-1,1.3-1.5c0.6-0.5,1-0.8,1.2-0.9c-0.8,1-1.2,2.4-1.2,4.2v29.9c0,1.8-0.5,3.2-1.4,4.5
		c-1,1.2-2.2,2.1-3.9,2.6c-1.6,0.6-3.2,0.9-4.9,1.1c-1.2,0.2-2.4,0.2-3.6,0.2c-0.5,0-1,0-1.5-0.1l-3.9-4.4c-2.1,3-6.1,4.5-12,4.5
		c-0.8,0-1.6,0-2.4-0.1l-5.9-6.9v-8.9V95.4c0-1.2,0.3-2.4,1-3.6c0.6-1.2,1.5-1.9,2.7-2.3c-0.2,0-0.4,0.1-0.7,0.1
		c-1.2,0-2.8-0.6-4.7-1.7c-1.9-1-3.4-1.5-4.7-1.5c-0.2,0-0.5,0.1-0.6,0.1c-1.3,0.2-2.3,0.7-2.9,1.5l-0.9,1.2L155.4,88.7z"/>
</g>
<g class="st0">
	<path class="st1" d="M210.5,115.9v-14.4l5.3-5.4c0.1,0,0.2,0,0.2,0c3.6,0,6.2,0.9,7.7,2.7c1.4,1.8,2.1,4.4,2.1,7.9
		c0,0.2,0,0.4,0,0.6v14.4l-5.1,5.3c-0.2,0-0.3,0-0.5,0c-3.4,0-5.8-0.9-7.3-2.6C211.5,122.7,210.7,119.8,210.5,115.9z M213.7,114.4
		c0,1.5,0,2.7,0.1,3.6c0.1,0.8,0.2,1.9,0.5,3.2c0.3,1.3,0.8,2.3,1.5,3.2c0.7,0.8,1.6,1.5,2.8,2l4.3-4.8v-12.2c0-0.2,0-0.4,0-0.7
		c0-1,0-1.7,0-2.3c0-0.5-0.1-1.2-0.1-2.1c-0.1-0.9-0.2-1.7-0.4-2.3c-0.2-0.6-0.5-1.2-0.8-1.9c-0.3-0.7-0.8-1.3-1.4-1.8
		c-0.6-0.5-1.2-0.9-2-1.2l-4.4,4.8v12.1C213.7,114,213.7,114.1,213.7,114.4z"/>
</g>
<g class="st0">
	<path class="st1" d="M227.7,97.2h2.4c1.4,1.9,2.1,2.9,2.1,3.2c0-0.4,1.3-1.8,3.7-4.2c0.5-0.1,0.9-0.1,1.4-0.1c1.6,0,3,0.4,4.2,1.4
		c1.5,1.2,2.3,3,2.3,5.3h-3.1c0-0.8-0.1-1.6-0.3-2.3c-0.2-0.7-0.4-1.2-0.7-1.6c-0.2-0.4-0.5-0.8-0.8-1.1c-0.3-0.3-0.5-0.5-0.7-0.6
		L238,97l-4.2,4.7v12c0,0.1,0,0.2,0,0.5c0,0.1,0,0.2,0,0.4c0,7.9,1.3,11.8,3.8,11.8h0.1v0.7c-0.2,0-0.4,0-0.6,0c-0.5,0-1,0-1.5-0.1
		c-0.6-0.1-1.2-0.3-1.6-0.4c-0.5-0.2-0.9-0.5-1.2-0.9c-0.4-0.5-0.6-0.8-0.9-1.1c-0.2-0.3-0.4-0.8-0.6-1.5c-0.2-0.8-0.3-1.3-0.4-1.6
		c-0.1-0.3-0.1-0.9-0.2-1.8c0-0.9-0.1-1.5-0.1-1.7s0-0.9-0.1-1.9v-14L227.7,97.2z"/>
</g>
<g class="st0">
	<path class="st1" d="M244.5,97.2h2.4l2.2,3.1c0-0.4,0.3-0.8,0.8-1.3l2.9-2.9c0.5,0,1-0.1,1.4-0.1c3.4,0,5.7,1.1,6.9,3.2
		c0-0.2,1-1.3,2.9-3.1c0.6,0,1.1-0.1,1.6-0.1c4.7,0,7.1,2.2,7.1,6.7v11c0,0.1,0,0.2,0,0.5c0,0.1,0,0.2,0,0.4c0,7.6,1.3,11.5,4,11.7
		v0.7c-0.3,0-0.6,0.1-0.9,0.1c-0.7,0-1.4-0.1-2-0.2c-0.8-0.2-1.5-0.6-2-1.3c-0.5-0.6-0.9-1.3-1.2-1.8s-0.5-1.4-0.7-2.5
		c-0.1-1.1-0.2-2-0.2-2.6c0-0.6-0.1-1.6-0.1-2.8v-13c0-0.9-0.1-1.7-0.3-2.4c-0.2-0.7-0.5-1.3-0.8-1.7c-0.3-0.4-0.7-0.8-1-1
		c-0.3-0.3-0.6-0.5-0.8-0.6l-0.4-0.1l-4.4,5.2c0,0.1,0,0.2,0,0.2c0,0.1,0,0.2,0,0.3c0,0.1,0,0.3,0,0.4s0,0.4,0,0.7c0,0.3,0,0.7,0,1
		s0,0.9,0,1.5c0,0.6,0,1.3,0,2c0,0.7,0,1.6,0,2.6c0,1,0,2.1,0,3.3c0,8,1.3,12.1,3.8,12.2v0.7c-0.3,0-0.6,0.1-0.8,0.1
		c-1.1,0-2-0.2-2.7-0.7c-1-0.6-1.7-1.5-2.2-2.7c-0.4-1.2-0.7-2.5-0.9-3.7s-0.3-2.6-0.3-4.1v-13c0-1.4-0.3-2.6-0.9-3.6
		s-1.2-1.6-1.9-1.8l-1-0.4l-4.2,4.8v12c0,0.1,0,0.4,0,0.7c0,1.1,0,1.9,0,2.6c0,0.7,0.1,1.6,0.2,2.9c0.1,1.2,0.3,2.2,0.6,3
		c0.2,0.8,0.7,1.5,1.2,2.2c0.6,0.7,1.2,1.1,2,1.3v0.7c-0.3,0-0.6,0.1-0.9,0.1c-0.9,0-1.7-0.2-2.4-0.5c-0.9-0.4-1.6-0.9-2-1.5
		c-0.5-0.6-0.8-1.4-1.1-2.6c-0.3-1.2-0.4-2.2-0.5-2.9c0-0.8-0.1-1.9-0.1-3.3c0-0.1,0-0.2,0-0.2c0-0.1,0-0.1,0-0.2v-14L244.5,97.2z"
		/>
	<path class="st1" d="M278.1,120.4h3.1c0,1.5,0.3,2.7,0.9,3.7c0.6,1,1.2,1.6,1.8,1.8l0.9,0.4l4.2-4.9c0-1.7-0.4-3.3-1.1-5
		c-0.7-1.7-1.5-2.9-2.2-3.8l-1.1-1.2l-6.4-7.1c0-0.3-0.1-0.6-0.1-0.9c0-2,0.5-3.7,1.5-5c1.1-1.5,2.8-2.2,5-2.2
		c1.4,0,2.6,0.2,3.6,0.7c1,0.5,1.7,1,2.1,1.7c0.4,0.7,0.7,1.3,0.9,2c0.2,0.7,0.3,1.3,0.2,1.7v0.7h-2.9c0-1.2-0.1-2.2-0.4-3.1
		s-0.6-1.5-1-1.9s-0.8-0.7-1.2-0.8c-0.4-0.2-0.7-0.3-1-0.3h-0.4c-1.1,0-1.9,0.7-2.4,1.9c-0.5,1.2-0.8,2.5-0.8,3.7v1.8l5.2,6.1
		c1.2,1.3,2.2,2.5,3,3.8c0.8,1.2,1.4,2.3,1.7,3.1c0.3,0.8,0.5,1.6,0.6,2.3c0.1,0.7,0.2,1.2,0.1,1.5l-0.1,0.5l-5.1,5.6
		c-0.3,0-0.6,0-0.9,0c-0.9,0-1.7,0-2.4-0.1c-0.9-0.1-1.8-0.4-2.8-0.8c-0.9-0.4-1.6-1.1-2.1-2.1C278.4,123.1,278.1,121.9,278.1,120.4
		z"/>
</g>
</svg>
