<?xml version="1.0" encoding="utf-8"?>
<!-- Generator: Adobe Illustrator 25.4.2, SVG Export Plug-In . SVG Version: 6.00 Build 0)  -->
<svg version="1.1" id="Layer_1" xmlns="http://www.w3.org/2000/svg" xmlns:xlink="http://www.w3.org/1999/xlink" x="0px" y="0px"
	 viewBox="0 0 341.5 142.7" style="enable-background:new 0 0 341.5 142.7;" xml:space="preserve">
<style type="text/css">
	.st0{enable-background:new    ;}
	.st1{fill:#231F20;}
</style>
<g class="st0">
	<path class="st1" d="M2.5,36.1c0.1-0.1,0.1-0.5,0-1.2c0-0.2,0-0.3,0-0.5c0-0.6,0.1-1.4,0.2-2.4c0.2-1.3,0.6-2.6,0.9-3.9
		c0.4-1.3,1-2.7,2-4.2c1-1.5,2.2-2.7,3.6-3.7h3c-0.2,0.2-0.4,0.4-0.7,0.7c-0.3,0.3-0.8,0.9-1.6,1.8c-0.8,1-1.4,2-2,3
		c-0.6,1.1-1.1,2.4-1.6,4.1c-0.5,1.7-0.7,3.4-0.7,5.1c0,4.5,1.6,8.5,4.8,11.9S17.8,52,22.8,52c2,0,3.8-0.3,5.3-0.8
		c1.6-0.5,2.8-1.1,3.6-1.9c0.8-0.7,1.6-1.5,2.1-2.3c0.6-0.8,1-1.4,1.1-2l0.2-0.7h3.3c-0.1,0.2-0.2,0.5-0.4,0.9
		c-0.2,0.4-0.6,1.1-1.4,2c-0.8,1-1.7,1.8-2.7,2.5c-1.1,0.7-2.6,1.4-4.6,2c-2,0.6-4.2,0.9-6.7,0.9c-6.2,0-11.1-1.6-14.7-4.9
		C4.5,44.5,2.6,40.6,2.5,36.1z M2.8,18c0.5-1.1,1-2.1,1.7-3.1c0.7-0.9,1.2-1.6,1.7-2l0.6-0.6c1-0.8,2.2-1.5,3.7-2
		c1.5-0.5,2.7-0.8,3.7-0.9l1.6-0.2c0.2,0,0.4,0,0.6,0c1.1,0,2.5,0.3,4.1,0.9c2,0.4,3.7,0.9,5,1.3l2,0.5c1.3,0.7,2.7,1.1,4.1,1.1
		c0.3,0,0.6,0,0.8,0c1.5-0.2,2.6-0.6,3.2-1.4l0.9-1l0.4,0.6c-0.7,1.2-1.6,2.2-2.8,2.8c-1.2,0.6-2.2,1-3.1,1L30,15.4
		c-1.3,0-2.6-0.2-3.7-0.5c-1.2-0.3-2-0.5-2.7-0.7l-0.9-0.2c-1.4-0.4-2.9-0.8-4.4-1.2c-1.5-0.4-2.8-0.6-3.9-0.6h-1.5
		c-1.1,0.1-2.2,0.3-3.3,0.8c-1.1,0.4-2,1-2.7,1.6c-0.7,0.6-1.4,1.2-2,1.7c-0.6,0.6-1,1-1.3,1.4l-0.4,0.6L2.8,18z M11.9,39.9v-0.7
		c0.1,0,0.2,0,0.4,0c0.2,0,0.5-0.1,0.9-0.3c0.4-0.2,0.8-0.4,1.1-0.7c0.3-0.3,0.6-0.8,0.9-1.5c0.3-0.7,0.4-1.5,0.4-2.5V16.6h3.1v17.7
		c0,0.2,0,0.4,0,0.6c0,0.3-0.1,0.7-0.3,1.4c-0.2,0.7-0.5,1.3-1,1.8c-0.4,0.5-1.1,0.9-2.1,1.3c-0.8,0.3-1.7,0.5-2.8,0.5
		C12.4,39.9,12.2,39.9,11.9,39.9z"/>
</g>
<g class="st0">
	<path class="st1" d="M37.6,22.8h2.4c1.4,1.9,2.1,2.9,2.1,3.2c0-0.4,1.3-1.8,3.7-4.2c0.5-0.1,0.9-0.1,1.4-0.1c1.6,0,3,0.4,4.2,1.4
		c1.5,1.2,2.3,3,2.3,5.3h-3.1c0-0.8-0.1-1.6-0.3-2.3s-0.4-1.2-0.7-1.6c-0.2-0.4-0.5-0.8-0.8-1.1c-0.3-0.3-0.5-0.5-0.7-0.6L48,22.6
		l-4.2,4.7v12c0,0.1,0,0.2,0,0.5c0,0.1,0,0.2,0,0.4c0,7.9,1.3,11.8,3.8,11.8h0.1v0.7c-0.2,0-0.4,0-0.6,0c-0.5,0-1,0-1.5-0.1
		c-0.6-0.1-1.2-0.3-1.6-0.4c-0.5-0.2-0.9-0.5-1.2-0.9c-0.4-0.5-0.6-0.8-0.9-1.1c-0.2-0.3-0.4-0.8-0.6-1.5c-0.2-0.8-0.3-1.3-0.4-1.6
		C41,46.6,40.9,46,40.9,45c0-0.9-0.1-1.5-0.1-1.7s0-0.9-0.1-1.9v-14L37.6,22.8z"/>
</g>
<g class="st0">
	<path class="st1" d="M55.9,41.5V27.1l5.3-5.4c0.1,0,0.2,0,0.2,0c3.6,0,6.2,0.9,7.7,2.7c1.4,1.8,2.1,4.4,2.1,7.9c0,0.2,0,0.4,0,0.6
		v14.4l-5.1,5.3c-0.2,0-0.3,0-0.5,0c-3.4,0-5.8-0.9-7.3-2.6C56.9,48.3,56,45.4,55.9,41.5z M59,40c0,1.5,0,2.7,0.1,3.6
		c0.1,0.8,0.2,1.9,0.5,3.2c0.3,1.3,0.8,2.3,1.5,3.2c0.7,0.8,1.6,1.5,2.8,2l4.3-4.8V34.9c0-0.2,0-0.4,0-0.7c0-1,0-1.7,0-2.3
		c0-0.5-0.1-1.2-0.1-2.1c-0.1-0.9-0.2-1.7-0.4-2.3c-0.2-0.6-0.5-1.2-0.8-1.9c-0.3-0.7-0.8-1.3-1.4-1.8c-0.6-0.5-1.2-0.9-2-1.2
		L59,27.3v12.1C59,39.6,59,39.7,59,40z"/>
	<path class="st1" d="M75.3,8.1c0.5,0.4,0.9,1,1.3,1.7c0.4,0.7,0.7,1.3,0.9,1.8l0.3,0.8l2.2-1.5c-0.6,0.9-0.9,2.4-0.9,4.5v11.8v12.1
		c0,0.2,0,0.6,0,1.4s0,1.3,0,1.7s0,0.9,0,1.7c0,0.8,0.1,1.4,0.2,1.8c0.1,0.5,0.2,1,0.3,1.7c0.1,0.7,0.3,1.2,0.5,1.6
		c0.2,0.4,0.5,0.8,0.7,1.3c0.3,0.4,0.6,0.8,1,1c0.4,0.2,0.9,0.4,1.4,0.5v0.7c-1.3,0-2.4-0.3-3.3-0.8c-0.9-0.5-1.6-1.1-2-1.8
		c-0.5-0.7-0.8-1.6-1-2.7c-0.2-1.2-0.4-2.1-0.4-2.9c0-0.8-0.1-1.8-0.1-3.1v-14v-12c0-1.5-0.1-2.8-0.3-4.1c-0.2-1.2-0.3-2.1-0.5-2.5
		L75.3,8.1z"/>
	<path class="st1" d="M84.7,8.1c0.5,0.4,0.9,1,1.3,1.7c0.4,0.7,0.7,1.3,0.9,1.8l0.3,0.8l2.2-1.5c-0.6,0.9-0.9,2.4-0.9,4.5v11.8v12.1
		c0,0.2,0,0.6,0,1.4s0,1.3,0,1.7s0,0.9,0,1.7c0,0.8,0.1,1.4,0.2,1.8c0.1,0.5,0.2,1,0.3,1.7c0.1,0.7,0.3,1.2,0.5,1.6
		c0.2,0.4,0.5,0.8,0.7,1.3c0.3,0.4,0.6,0.8,1,1c0.4,0.2,0.9,0.4,1.4,0.5v0.7c-1.3,0-2.4-0.3-3.3-0.8c-0.9-0.5-1.6-1.1-2-1.8
		c-0.5-0.7-0.8-1.6-1-2.7c-0.2-1.2-0.4-2.1-0.4-2.9c0-0.8-0.1-1.8-0.1-3.1v-14v-12c0-1.5-0.1-2.8-0.3-4.1c-0.2-1.2-0.3-2.1-0.5-2.5
		L84.7,8.1z"/>
	<path class="st1" d="M92.5,22.4v-0.7c0.1,0,0.2,0,0.4,0c0.8,0,1.6,0.1,2.2,0.4c0.7,0.3,1.3,0.7,1.8,1.3s0.8,1.2,1.1,1.8
		c0.3,0.6,0.5,1.4,0.6,2.4c0.1,1,0.2,1.8,0.2,2.4c0,0.6,0,1.4,0,2.5c0,0.1,0,0.2,0,0.2c0,0.1,0,0.1,0,0.2c0,0.1,0,0.2,0,0.2v13
		c0,1.1,0.1,2.1,0.4,2.9c0.3,0.8,0.6,1.5,1,1.9c0.4,0.4,0.8,0.7,1.2,0.9c0.4,0.2,0.7,0.4,1,0.4l0.4,0.1v0.4c-0.2,0-0.3,0-0.5,0
		c-1.8,0-3.3-0.4-4.6-1.2c-1.3-0.9-2-2.3-2-4.3V31.5C95.6,25.6,94.6,22.5,92.5,22.4z M93.4,16.2l3.4-5.6h3.1l-3.4,5.6H93.4z"/>
	<path class="st1" d="M117.2,48.5c0.4-1,0.9-1.9,1.6-2.7c0.7-0.7,1.4-1.2,1.9-1.5l0.8-0.4c1-0.3,1.9-0.4,2.8-0.4
		c0.4,0,0.8,0,1.2,0.1c1.2,0.2,2.3,0.5,3.2,0.9l1.3,0.7c1.4,0.8,3,1.9,4.9,3.2c1.7,1.1,3.4,2,5,2.5c1.5,0.5,2.8,0.8,4,0.8
		c0.1,0,0.2,0,0.2,0c1.2,0,2.2-0.2,3.1-0.4c0.9-0.2,1.6-0.5,2.1-0.7l0.7-0.4c1.6-1.2,2.8-2.7,3.7-4.4c0.9-1.7,1.5-3.4,1.7-5
		c0.2-1.6,0.3-3.1,0.3-4.4s-0.1-2.5-0.2-3.4l-0.2-1.2c-0.3-1.5-0.8-2.8-1.5-3.8c-0.7-1.1-1.5-1.9-2.4-2.4s-1.7-0.9-2.5-1.1
		c-0.8-0.3-1.5-0.4-2-0.5l-0.7-0.1l-5.4,4.8c-0.2,0.1-0.5,0.1-0.8,0.1c-0.1,0-0.3,0-0.4,0c-0.3,0-0.8,0-1.5-0.1
		c-1,0-1.9-0.1-2.8-0.3c-0.9-0.2-1.8-0.5-2.9-1c-1.1-0.5-2-1.2-2.8-2c-0.8-0.8-1.4-1.9-1.9-3.3c-0.5-1.4-0.8-3-0.8-4.8
		c0.3-2.8,1.4-4.8,3.3-6.1c1.8-1.3,4.2-2,7-2h4.8l5.2,5.3h-3.1l-4.8-4.6h-0.5c-0.3,0-0.8,0-1.3,0.1c-0.5,0.1-1.1,0.2-1.8,0.3
		c-0.6,0.1-1.3,0.4-1.9,0.8c-0.6,0.4-1.2,0.9-1.8,1.5c-0.5,0.6-1,1.4-1.3,2.4c-0.3,1-0.5,2.1-0.5,3.4c0,0.2,0,0.6,0,1
		c0,0.4,0.2,1.1,0.4,2.1c0.3,1,0.6,2,1.1,2.8c0.5,0.8,1.3,1.6,2.5,2.3c1.2,0.7,2.5,1.1,4.1,1.3l5.9-4.8c2.7,0,5.1,0.4,7.1,1.2
		c2,0.8,3.5,1.8,4.4,3c0.9,1.2,1.7,2.3,2.2,3.5s0.8,2.2,0.9,3l0.1,1.2c0,0.5,0.1,0.9,0.1,1.3c0,1.5-0.2,3.1-0.6,4.6
		c-0.4,1.9-0.9,3.4-1.4,4.3l-0.8,1.4c-1.3,2-3.2,3.5-5.7,4.5c-2.4,1-4.5,1.4-6.3,1.4c-0.1,0-0.2,0-0.2,0l-2.7-0.1
		c-1.6,0-3.1-0.2-4.5-0.6s-2.4-0.7-3-1l-0.9-0.5l-5.2-3c-1.4-0.8-2.7-1.4-3.9-1.6c-0.5-0.1-1-0.1-1.4-0.1c-0.5,0-1,0.1-1.4,0.3
		c-0.7,0.3-1.3,0.7-1.8,1.1c-0.5,0.4-0.9,0.8-1.1,1.2l-0.2,0.6L117.2,48.5z"/>
	<path class="st1" d="M160,19h3.2v-3.5c0-1.5-0.1-2.9-0.3-4.1c-0.2-1.2-0.3-2.1-0.5-2.6l-0.2-0.7c0.4,0.4,0.8,0.9,1.3,1.6
		c0.4,0.7,0.8,1.3,1.1,1.8l0.3,0.8l2.3-1.5c-0.6,0.9-0.9,2.5-0.9,4.7V19h2.3l1.4,2.7h-3.7v17.8c0,4.4,0.3,7.5,0.8,9.1
		c0.5,1.7,1.6,2.8,3.1,3.4v0.6c-0.2,0-0.4,0-0.6,0c-1.1,0-2-0.2-2.8-0.6c-0.9-0.5-1.6-1-2.1-1.5c-0.5-0.6-0.8-1.5-1.1-2.8
		s-0.4-2.2-0.4-2.9c0-0.7,0-1.8,0-3.3V21.7h-2L160,19z"/>
</g>
<g class="st0">
	<path class="st1" d="M170.7,22.8h2.4c1.4,1.9,2.1,2.9,2.1,3.2c0-0.4,1.3-1.8,3.7-4.2c0.5-0.1,0.9-0.1,1.4-0.1c1.6,0,3,0.4,4.2,1.4
		c1.5,1.2,2.3,3,2.3,5.3h-3.1c0-0.8-0.1-1.6-0.3-2.3c-0.2-0.7-0.4-1.2-0.7-1.6c-0.2-0.4-0.5-0.8-0.8-1.1c-0.3-0.3-0.5-0.5-0.7-0.6
		l-0.2-0.1l-4.2,4.7v12c0,0.1,0,0.2,0,0.5c0,0.1,0,0.2,0,0.4c0,7.9,1.3,11.8,3.8,11.8h0.1v0.7c-0.2,0-0.4,0-0.6,0
		c-0.5,0-1,0-1.5-0.1c-0.6-0.1-1.2-0.3-1.6-0.4c-0.5-0.2-0.9-0.5-1.2-0.9c-0.4-0.5-0.6-0.8-0.9-1.1c-0.2-0.3-0.4-0.8-0.6-1.5
		c-0.2-0.8-0.3-1.3-0.4-1.6c-0.1-0.3-0.1-0.9-0.2-1.8c0-0.9-0.1-1.5-0.1-1.7s0-0.9-0.1-1.9v-14L170.7,22.8z"/>
</g>
<g class="st0">
	<path class="st1" d="M187.7,44.4c0-2.4,0.1-4,0.3-4.7l12.2-5.5v-2c0,0,0-0.3,0-0.9c0-0.1,0-0.3,0-0.5c0-0.5,0-1.1-0.1-1.8
		c-0.1-0.9-0.3-1.9-0.5-2.8c-0.2-0.9-0.6-1.7-1.1-2.5c-0.5-0.7-1.2-1.2-2-1.4c-0.1,0-0.3,0-0.5,0.1c-0.2,0-0.5,0.2-1,0.4
		c-0.5,0.2-0.9,0.6-1.2,1c-0.4,0.4-0.7,1-1,1.8c-0.3,0.8-0.4,1.8-0.4,2.9h-3.1c0-2.3,0.7-4,2-5.1c1.4-1.1,3.2-1.7,5.5-1.7
		c1.4,0,2.5,0.3,3.4,0.8c0.9,0.5,1.6,1.3,2,2.2c0.4,1,0.7,2,0.9,3c0.2,1,0.2,2.2,0.2,3.6v10.1c0,3.8,0.2,6.4,0.7,7.8
		c0.1,0.2,0.2,0.5,0.4,0.8c0.2,0.3,0.5,0.8,1.1,1.3c0.6,0.6,1.2,0.8,1.8,0.8v0.6c-0.1,0-0.3,0.1-0.5,0.1c-0.1,0-0.2,0-0.2,0
		c-0.2,0-0.5,0-0.9-0.1c-0.6,0-1.1-0.2-1.6-0.3c-0.5-0.2-1-0.5-1.5-1c-0.5-0.5-1-1.1-1.2-1.9l-4,2.5c-0.2,0.1-0.5,0.3-0.9,0.4
		c-0.4,0.2-1.2,0.3-2.3,0.3c0,0-0.1,0-0.1,0.1c-1.1,0-2.1-0.3-3.1-0.9c-0.2-0.1-0.5-0.4-0.9-0.7c-0.3-0.3-0.8-1.1-1.3-2.4
		C188,47.5,187.7,46,187.7,44.4z M190.8,44.1c0,0.4,0,0.9,0.1,1.7c0.1,0.9,0.2,1.8,0.4,2.6c0.2,0.8,0.5,1.6,1,2.3s1.1,1.3,1.8,1.5
		l6.6-4.3c0,0-0.1-0.1-0.2-0.4c-0.1-0.2-0.1-1.4-0.2-3.5c0-1.4-0.1-3.1-0.1-5.1c0-1,0-2.1,0-3.3l-9.2,4.1l-0.1,3.3L190.8,44.1z"/>
	<path class="st1" d="M206.7,22.4v-0.7c1,0,1.8,0.2,2.6,0.5c0.7,0.3,1.3,0.8,1.7,1.3c0.4,0.6,0.8,1.2,1.1,2c0.3,0.7,0.5,1.5,0.5,2.4
		c0.1,0.8,0.1,1.7,0.2,2.6c0,0.5,0,0.9,0,1.3c0,0.4,0,0.8,0,1.2L212.5,46c0,0.9,0.1,1.7,0.4,2.4c0.2,0.7,0.5,1.3,0.9,1.7
		c0.4,0.4,0.7,0.8,1,1c0.3,0.3,0.6,0.5,0.9,0.6l0.4,0.1l4.5-4.7v-0.9V34.4c0-0.1,0-0.4,0-1c0-0.6,0-1,0-1.4c0-0.4,0-0.9,0-1.6
		c0-0.7-0.1-1.3-0.1-1.8c0-0.5-0.1-1.1-0.2-1.7c-0.1-0.6-0.2-1.2-0.3-1.6s-0.3-0.9-0.5-1.3c-0.2-0.4-0.5-0.8-0.7-1
		c-0.3-0.2-0.6-0.4-1-0.4v-0.7c1,0,1.8,0.1,2.5,0.4c0.7,0.3,1.3,0.8,1.7,1.5s0.7,1.3,1,1.9c0.2,0.6,0.4,1.4,0.5,2.5
		c0.1,1.1,0.2,1.9,0.2,2.5c0,0.6,0.1,1.4,0.1,2.6V46c0,0.9,0.1,1.7,0.4,2.4s0.5,1.3,0.9,1.7c0.3,0.4,0.7,0.8,1,1
		c0.3,0.3,0.6,0.5,0.9,0.6l0.4,0.1l4.5-4.7V34.4c0-0.1,0-0.4,0-1c0-0.6,0-1.1,0-1.4c0-0.4,0-0.9,0-1.6c0-0.7-0.1-1.3-0.1-1.8
		c-0.1-0.5-0.1-1.1-0.2-1.7c-0.1-0.7-0.2-1.2-0.3-1.6c-0.1-0.4-0.3-0.9-0.5-1.3c-0.2-0.4-0.4-0.8-0.7-1c-0.3-0.2-0.6-0.4-1-0.4v-0.7
		c1,0,1.8,0.1,2.5,0.4c0.7,0.3,1.3,0.8,1.7,1.5c0.4,0.7,0.8,1.3,1,1.9c0.3,0.6,0.5,1.4,0.6,2.5c0.1,1.1,0.2,1.9,0.2,2.4
		c0,0.5,0,1.4,0,2.6v14.2c-2.2,2-3.3,3.1-3.3,3.2l-2,2.2c-0.2,0-0.5,0-0.8,0c-3.6,0-6.1-1.1-7.4-3.3c-0.6,0.9-1.5,2-2.9,3.3
		c-3.1,0-5.3-0.5-6.7-1.5c-1.4-1-2.1-2.8-2.1-5.4l0.1-10.9c0-0.7,0-1.4,0-2C209.6,26.1,208.6,22.7,206.7,22.4z"/>
	<path class="st1" d="M238,8.1c0.5,0.4,0.9,0.9,1.3,1.6c0.4,0.7,0.7,1.3,0.9,1.9l0.4,0.7l2.2-1.4c-0.6,1-0.9,2.5-0.9,4.6
		c0,5.8,0,8.7-0.1,8.8l2.4-2.6c0.1,0,0.2,0,0.2,0c3.6,0,6.1,0.9,7.6,2.7c1.5,1.9,2.2,4.7,2.2,8.6v14.3l-5.2,5.5c-0.2,0-0.3,0-0.4,0
		c-3.5,0-5.9-0.9-7.4-2.7c-1.4-1.8-2.1-4.4-2.1-7.9c0-0.2,0-0.4,0-0.6V15.4c0-1.5-0.2-2.9-0.3-4.1c-0.2-1.2-0.4-2.1-0.5-2.5L238,8.1
		z M241.9,40.1c0,1.2,0,2.1,0,2.8s0.1,1.5,0.3,2.6s0.4,2,0.7,2.7c0.3,0.7,0.8,1.4,1.5,2.1c0.6,0.7,1.4,1.3,2.4,1.8l4.3-4.9V34.8
		c0-0.2,0-0.4,0-0.7c0-1.4,0-2.6-0.1-3.4c-0.1-0.8-0.2-1.8-0.5-3.1c-0.2-1.2-0.7-2.3-1.4-3.1c-0.7-0.8-1.6-1.5-2.7-2.1l-4.5,4.9
		v12.1C241.9,39.6,241.9,39.8,241.9,40.1z"/>
</g>
<g class="st0">
	<path class="st1" d="M254.5,36.2l3.7-1.7c0-1.1,0-2.1,0.1-3.1c0.1-1,0.2-1.7,0.2-2.1l0.1-0.7c0.2-1.3,0.7-2.5,1.4-3.4
		s1.4-1.6,2.1-2.1c0.8-0.4,1.5-0.8,2.2-1c0.7-0.2,1.3-0.4,1.7-0.4h0.7c0.1,0,0.2,0,0.4,0c1.2,0,2.4,0.2,3.3,0.6
		c1.1,0.4,1.9,1,2.4,1.6c0.5,0.7,0.9,1.3,1.3,2c0.3,0.7,0.5,1.2,0.6,1.7l0.1,0.7l-13.6,6.1v5c0,1.1,0,2,0,2.6c0,0.6,0.1,1.5,0.2,2.6
		s0.3,2,0.7,2.6c0.3,0.7,0.7,1.4,1.2,2.1c0.5,0.7,1.2,1.3,2,1.8s1.9,0.7,3,0.8v0.7c-0.2,0-0.3,0-0.5,0c-3.5,0-6-0.8-7.4-2.5
		c-1.5-1.8-2.3-4.7-2.4-8.5v-4.5v-1.4l-1.3,0.6H254.5z M261.3,33.1l10.7-4.8c0-0.2-0.1-0.4-0.2-0.6c-0.1-0.3-0.2-0.7-0.5-1.4
		c-0.2-0.7-0.5-1.3-0.9-1.8c-0.4-0.5-0.8-1-1.5-1.4s-1.3-0.6-2-0.6c-0.2,0-0.6,0.1-0.9,0.2s-1,0.5-1.9,1.3c-0.9,0.8-1.5,1.8-2,3.1
		C261.6,28.4,261.3,30.5,261.3,33.1z"/>
	<path class="st1" d="M276.1,22.8h2.4c1.4,1.9,2.1,2.9,2.1,3.2c0-0.4,1.3-1.8,3.7-4.2c0.5-0.1,0.9-0.1,1.4-0.1c1.6,0,3,0.4,4.2,1.4
		c1.5,1.2,2.3,3,2.3,5.3h-3.1c0-0.8-0.1-1.6-0.3-2.3c-0.2-0.7-0.4-1.2-0.7-1.6c-0.2-0.4-0.5-0.8-0.8-1.1c-0.3-0.3-0.5-0.5-0.7-0.6
		l-0.2-0.1l-4.2,4.7v12c0,0.1,0,0.2,0,0.5c0,0.1,0,0.2,0,0.4c0,7.9,1.3,11.8,3.8,11.8h0.1v0.7c-0.2,0-0.4,0-0.6,0
		c-0.5,0-1,0-1.5-0.1c-0.6-0.1-1.2-0.3-1.6-0.4c-0.5-0.2-0.9-0.5-1.2-0.9c-0.4-0.5-0.6-0.8-0.9-1.1c-0.2-0.3-0.4-0.8-0.6-1.5
		c-0.2-0.8-0.3-1.3-0.4-1.6c-0.1-0.3-0.1-0.9-0.2-1.8c0-0.9-0.1-1.5-0.1-1.7s0-0.9-0.1-1.9v-14L276.1,22.8z"/>
</g>
<g class="st0">
	<path class="st1" d="M292.3,22.8h2.4c1.4,1.9,2.1,2.9,2.1,3.2c0-0.4,1.3-1.8,3.7-4.2c0.5-0.1,0.9-0.1,1.4-0.1c1.6,0,3,0.4,4.2,1.4
		c1.5,1.2,2.3,3,2.3,5.3h-3.1c0-0.8-0.1-1.6-0.3-2.3c-0.2-0.7-0.4-1.2-0.7-1.6c-0.2-0.4-0.5-0.8-0.8-1.1c-0.3-0.3-0.5-0.5-0.7-0.6
		l-0.2-0.1l-4.2,4.7v12c0,0.1,0,0.2,0,0.5c0,0.1,0,0.2,0,0.4c0,7.9,1.3,11.8,3.8,11.8h0.1v0.7c-0.2,0-0.4,0-0.6,0
		c-0.5,0-1,0-1.5-0.1c-0.6-0.1-1.2-0.3-1.6-0.4c-0.5-0.2-0.9-0.5-1.2-0.9c-0.4-0.5-0.6-0.8-0.9-1.1c-0.2-0.3-0.4-0.8-0.6-1.5
		c-0.2-0.8-0.3-1.3-0.4-1.6c-0.1-0.3-0.1-0.9-0.2-1.8c0-0.9-0.1-1.5-0.1-1.7s0-0.9-0.1-1.9v-14L292.3,22.8z"/>
	<path class="st1" d="M308.6,22.4v-0.7c1,0,1.8,0.1,2.5,0.4c0.7,0.3,1.3,0.7,1.7,1.3c0.4,0.6,0.8,1.2,1,1.8c0.2,0.6,0.4,1.3,0.5,2.3
		c0.1,1,0.2,1.8,0.2,2.4c0,0.6,0.1,1.4,0.1,2.5c0,0.3,0,0.5,0,0.7L314.5,46c0,0.1,0,0.2,0,0.4c0,0.7,0.1,1.4,0.3,2.1
		c0.2,0.7,0.5,1.3,0.9,1.7c0.4,0.4,0.7,0.8,1.1,1c0.4,0.3,0.7,0.4,0.9,0.5l0.4,0.1l4.6-4.6V34.4c0-0.1,0-0.3,0-0.6
		c0-0.2,0-0.3,0-0.4c0-7-1-10.7-3-11v-0.7c1,0,1.8,0.2,2.5,0.5c0.7,0.3,1.3,0.8,1.7,1.5c0.4,0.7,0.7,1.3,1,1.9
		c0.2,0.6,0.4,1.4,0.5,2.5c0.1,1.1,0.1,1.9,0.2,2.4c0,0.5,0,1.4,0,2.5v11.3v12.1c0,3.4-0.7,5.9-2,7.3c-1.1,1.2-2.8,1.9-5,1.9
		c-0.5,0-0.9,0-1.4-0.1l-5.8-4.7h2.3l5.5,4c0.1,0,0.2,0,0.4-0.1c0.2,0,0.5-0.2,0.9-0.6s0.8-0.8,1.1-1.3c0.3-0.5,0.6-1.4,0.9-2.5
		c0.3-1.2,0.4-2.5,0.4-4.1v-5.1l0.1-1.6c-0.1,0.4-1,1.3-2.5,2.7c-0.5,0-1.1,0.1-1.5,0.1c-2,0-3.7-0.4-4.9-1.2
		c-1.5-1-2.3-2.9-2.4-5.6l0.1-11.1c0-0.1,0-0.5,0-1c0-0.6,0-1,0-1.4c0-0.4,0-0.9,0-1.6s-0.1-1.3-0.1-1.8s-0.1-1.1-0.2-1.8
		c-0.1-0.6-0.2-1.2-0.3-1.7c-0.1-0.5-0.3-0.9-0.5-1.4c-0.2-0.5-0.5-0.8-0.7-1.1C309.3,22.8,309,22.6,308.6,22.4z"/>
</g>
<g class="st0">
	<path class="st1" d="M0.4,91.9c0-1.6,0.3-2.9,0.9-4.1c0.6-1.1,1.3-2,2.1-2.4c0.8-0.5,1.6-0.9,2.4-1.1c0.8-0.3,1.5-0.4,2.1-0.4h0.9
		c1.3,0,2.5,0.3,3.7,0.9c1.2,0.6,2.1,1.5,2.5,2.8c1.2-2,3.5-3.2,6.9-3.7c0.3,0,0.8-0.1,1.3-0.1c0.1,0,0.3,0,0.4-0.1
		c0.6,0,1.5,0,2.7,0.2c1.6,0.2,3,0.5,4.4,0.9c1.4,0.4,2.9,1.2,4.5,2.3c1.6,1.1,3,2.5,4.2,4.2c1.2,1.7,2.1,3.9,2.7,6.8
		c0.5,2.1,0.7,4.4,0.7,7c0,1,0,1.9-0.1,2.9c-0.3,4.4-1.6,8.3-3.9,11.7c-1,1.5-2.2,2.8-3.6,3.9c-1.4,1.1-2.7,1.8-3.9,2.3
		c-1.3,0.5-2.5,0.8-3.6,1.1c-0.9,0.2-1.7,0.3-2.3,0.2c-0.1,0-0.2,0-0.3,0h-1c-3.7-0.2-6.4-1.1-8.3-2.7c0,0,0,0.1,0.1,0.3
		c0,0.2,0.1,0.4,0.1,0.8c0,0.4,0.1,0.8,0.1,1.3v6.3c0,1.2-0.2,2.1-0.6,2.9c-0.4,0.8-0.9,1.3-1.4,1.6c-0.6,0.3-1.1,0.5-1.7,0.7
		c-0.5,0.1-0.8,0.2-1.2,0.1c-0.1,0-0.2,0-0.3,0h-0.6v-0.7c0.9,0,1.5-0.4,2-1.3c0.5-0.9,0.7-1.7,0.7-2.6v-1.3v-9.8
		c-1.2-1-2.4-1.6-3.6-1.9c-0.8-0.2-1.5-0.3-2.1-0.3c-0.3,0-0.6,0-0.9,0.1c-0.8,0.2-1.6,0.5-2.2,0.8c-0.7,0.4-1.2,0.8-1.5,1.2
		c-0.3,0.4-0.6,0.7-0.6,1l-0.7-0.5c0.4-1,0.9-1.9,1.6-2.7c0.7-0.7,1.3-1.2,1.9-1.4l0.7-0.4c0.7-0.3,1.7-0.5,2.8-0.4c0.3,0,0.7,0,1,0
		c1.6,0.1,2.8,0.5,3.8,1.2c-0.2-0.3-0.2-1-0.2-2V91.6c0-0.2,0-0.3,0-0.5c0-1.1-0.1-2.1-0.4-2.9c-0.2-0.9-0.6-1.6-1-2
		c-0.4-0.4-0.8-0.7-1.2-1s-0.8-0.4-1.1-0.4H8.7c-3.5,0-5.2,2.4-5.2,7.1H0.4z M15.9,121.2c2,2,4.5,3.3,7.5,4c1.1,0.3,2.1,0.4,3.2,0.3
		c1.8,0,3.5-0.4,5.1-1.1c2.7-1.6,4.6-4.2,5.9-7.7c1.3-3.6,1.9-6.9,2-10c0-0.5,0-1,0-1.5c0-2.1-0.1-4.1-0.4-5.9
		c-0.3-2.2-0.8-4.1-1.5-5.5c-0.7-1.4-1.5-2.7-2.3-3.9c-0.9-1.2-1.8-2-2.8-2.7c-1-0.6-2-1.1-3-1.6c-1-0.4-1.9-0.7-2.9-0.8
		c-0.9-0.2-1.7-0.2-2.4-0.2c-0.2,0-0.5,0-0.6,0c-0.4,0-0.7,0-1,0.1l-0.6,0.1c-1.2,0.2-2.3,0.7-3.3,1.5c-0.9,0.7-1.6,1.4-1.9,2.1
		l-0.5,0.9c-0.4,1-0.6,2.7-0.6,5.2v1V121.2z"/>
	<path class="st1" d="M43.9,96.8v-0.7c1.2,0,2.1,0.3,3,0.8c0.8,0.5,1.4,1,1.8,1.6c0.4,0.6,0.7,1.5,0.9,2.6c0.2,1.1,0.3,2,0.3,2.7
		c0,0.7,0,1.6,0,2.9c0,0.3,0,0.5,0,0.7l-0.2,12.9c0,1.4,0.2,2.6,0.8,3.5c0.6,1,1.2,1.6,1.8,1.8l0.9,0.4l4.7-4.6c0,0-0.1-0.2-0.1-0.4
		c-0.1-0.4-0.1-1-0.1-1.8c0-0.2,0-0.5-0.1-0.7c0-0.5,0-0.9,0.1-1.4v-0.9c0.1-5,0.1-7.5,0.1-7.6s0-0.5,0-1.2c0-0.7,0-1.3,0-1.8
		c0-0.5,0-1.2-0.1-2.1c0-0.9-0.1-1.6-0.2-2.3c-0.1-0.7-0.3-1.3-0.5-2c-0.2-0.7-0.5-1.2-0.8-1.7c-0.4-0.5-0.8-0.7-1.3-0.9v-0.7
		c1.2,0,2.1,0.3,2.9,0.8s1.4,1,1.8,1.6c0.4,0.6,0.7,1.5,0.9,2.6c0.2,1.1,0.3,2,0.3,2.7c0,0.7,0,1.7,0,2.9c0,0.3,0,0.5,0,0.6
		l-0.1,6.5c0,0.9,0,1.7,0,2.4s0,1.4,0,1.9c0,1.2,0.1,2,0.1,2.6l0.1,0.8c0.2,1,0.4,1.8,0.7,2.5c0.3,0.7,0.6,1.2,0.9,1.5
		c0.3,0.3,0.6,0.5,0.9,0.6s0.5,0.2,0.7,0.2h0.3v0.7c-0.2,0-0.4,0-0.6,0c-2.7,0-4.5-1.2-5.5-3.6c-0.1,0.3-0.5,0.8-1,1.3l-2.1,2.2
		c-0.3,0-0.6,0-0.9,0c-1.2,0-2.3-0.1-3.3-0.4c-1.2-0.3-2.3-1-3.2-2.1c-0.9-1.1-1.4-2.5-1.4-4.3c0-0.1,0.1-3.8,0.2-11.1
		c0-0.7,0-1.4,0-2c0-3-0.2-5.3-0.5-6.8C45.9,98.5,45.1,97.3,43.9,96.8z"/>
</g>
<g class="st0">
	<path class="st1" d="M64.8,93.4H68v-4l4.3-4.3c0.3,0,0.6-0.1,0.8-0.1c1.7,0,3.2,0.5,4.5,1.4c1.6,1,2.4,2.5,2.4,4.3H77
		c0-0.8-0.1-1.5-0.3-2.1c-0.2-0.6-0.4-1.1-0.7-1.3s-0.5-0.5-0.8-0.7c-0.3-0.2-0.5-0.3-0.7-0.3l-0.2-0.1l-3.2,3.4v3.8h2.2l1.3,2.7
		h-3.5v17.7c0,0.2,0,0.5,0,0.9c0,1.5,0,2.7,0.1,3.6c0,0.9,0.2,2.1,0.4,3.5c0.2,1.4,0.6,2.5,1.2,3.2c0.6,0.8,1.3,1.2,2.2,1.4v0.7
		c-0.2,0-0.4,0-0.6,0c-1.1,0-2-0.2-2.8-0.6c-0.9-0.5-1.6-1-2-1.7c-0.5-0.7-0.8-1.6-1.1-2.8c-0.2-1.2-0.4-2.2-0.4-2.9
		c0-0.8-0.1-1.8-0.1-3.2V96.1h-2L64.8,93.4z"/>
</g>
<g class="st0">
	<path class="st1" d="M78.4,93.4h3.2v-4l4.3-4.3c0.3,0,0.6-0.1,0.8-0.1c1.7,0,3.2,0.5,4.5,1.4c1.6,1,2.4,2.5,2.4,4.3h-3.1
		c0-0.8-0.1-1.5-0.3-2.1c-0.2-0.6-0.4-1.1-0.7-1.3s-0.5-0.5-0.8-0.7c-0.3-0.2-0.5-0.3-0.7-0.3L88,86.2l-3.2,3.4v3.8H87l1.3,2.7h-3.5
		v17.7c0,0.2,0,0.5,0,0.9c0,1.5,0,2.7,0.1,3.6c0,0.9,0.2,2.1,0.4,3.5c0.2,1.4,0.6,2.5,1.2,3.2c0.6,0.8,1.3,1.2,2.2,1.4v0.7
		c-0.2,0-0.4,0-0.6,0c-1.1,0-2-0.2-2.8-0.6c-0.9-0.5-1.6-1-2-1.7c-0.5-0.7-0.8-1.6-1.1-2.8c-0.2-1.2-0.4-2.2-0.4-2.9
		c0-0.8-0.1-1.8-0.1-3.2V96.1h-2L78.4,93.4z"/>
	<path class="st1" d="M91.9,120.4H95c0,1.5,0.3,2.7,0.9,3.7c0.6,1,1.2,1.6,1.8,1.8l0.9,0.4l4.2-4.9c0-1.7-0.4-3.3-1.1-5
		c-0.7-1.7-1.5-2.9-2.2-3.8l-1.1-1.2l-6.4-7.1c0-0.3-0.1-0.6-0.1-0.9c0-2,0.5-3.7,1.5-5c1.1-1.5,2.8-2.2,5-2.2
		c1.4,0,2.6,0.2,3.6,0.7c1,0.5,1.7,1,2.1,1.7s0.7,1.3,0.9,2c0.2,0.7,0.3,1.3,0.2,1.7v0.7h-2.9c0-1.2-0.1-2.2-0.4-3.1s-0.6-1.5-1-1.9
		c-0.4-0.4-0.8-0.7-1.2-0.8c-0.4-0.2-0.7-0.3-1-0.3h-0.4c-1.1,0-1.9,0.7-2.4,1.9c-0.5,1.2-0.8,2.5-0.8,3.7v1.8l5.2,6.1
		c1.2,1.3,2.2,2.5,3,3.8c0.8,1.2,1.4,2.3,1.7,3.1c0.3,0.8,0.5,1.6,0.6,2.3c0.1,0.7,0.2,1.2,0.1,1.5l-0.1,0.5l-5.1,5.6
		c-0.3,0-0.6,0-0.9,0c-0.9,0-1.7,0-2.4-0.1c-0.9-0.1-1.8-0.4-2.8-0.8c-0.9-0.4-1.6-1.1-2.1-2.1C92.2,123.1,91.9,121.9,91.9,120.4z"
		/>
</g>
</svg>
