<?xml version="1.0" encoding="utf-8"?>
<!-- Generator: Adobe Illustrator 25.4.2, SVG Export Plug-In . SVG Version: 6.00 Build 0)  -->
<svg version="1.1" id="Layer_1" xmlns="http://www.w3.org/2000/svg" xmlns:xlink="http://www.w3.org/1999/xlink" x="0px" y="0px"
	 viewBox="0 0 247.2 142.7" style="enable-background:new 0 0 247.2 142.7;" xml:space="preserve">
<style type="text/css">
	.st0{enable-background:new    ;}
	.st1{fill:#231F20;}
</style>
<g class="st0">
	<path class="st1" d="M2.5,36.1c0.1-0.1,0.1-0.5,0-1.2c0-0.2,0-0.3,0-0.5c0-0.6,0.1-1.4,0.2-2.4c0.2-1.3,0.6-2.6,0.9-3.9
		c0.4-1.3,1-2.7,2-4.2c1-1.5,2.2-2.7,3.6-3.7h3c-0.2,0.2-0.4,0.4-0.7,0.7c-0.3,0.3-0.8,0.9-1.6,1.8c-0.8,1-1.4,2-2,3
		c-0.6,1.1-1.1,2.4-1.6,4.1c-0.5,1.7-0.7,3.4-0.7,5.1c0,4.5,1.6,8.5,4.8,11.9S17.8,52,22.8,52c2,0,3.8-0.3,5.3-0.8
		c1.6-0.5,2.8-1.1,3.6-1.9c0.8-0.7,1.6-1.5,2.1-2.3c0.6-0.8,1-1.4,1.1-2l0.2-0.7h3.3c-0.1,0.2-0.2,0.5-0.4,0.9
		c-0.2,0.4-0.6,1.1-1.4,2c-0.8,1-1.7,1.8-2.7,2.5c-1.1,0.7-2.6,1.4-4.6,2c-2,0.6-4.2,0.9-6.7,0.9c-6.2,0-11.1-1.6-14.7-4.9
		C4.5,44.5,2.6,40.6,2.5,36.1z M2.8,18c0.5-1.1,1-2.1,1.7-3.1c0.7-0.9,1.2-1.6,1.7-2l0.6-0.6c1-0.8,2.2-1.5,3.7-2
		c1.5-0.5,2.7-0.8,3.7-0.9l1.6-0.2c0.2,0,0.4,0,0.6,0c1.1,0,2.5,0.3,4.1,0.9c2,0.4,3.7,0.9,5,1.3l2,0.5c1.3,0.7,2.7,1.1,4.1,1.1
		c0.3,0,0.6,0,0.8,0c1.5-0.2,2.6-0.6,3.2-1.4l0.9-1l0.4,0.6c-0.7,1.2-1.6,2.2-2.8,2.8c-1.2,0.6-2.2,1-3.1,1L30,15.4
		c-1.3,0-2.6-0.2-3.7-0.5c-1.2-0.3-2-0.5-2.7-0.7l-0.9-0.2c-1.4-0.4-2.9-0.8-4.4-1.2c-1.5-0.4-2.8-0.6-3.9-0.6h-1.5
		c-1.1,0.1-2.2,0.3-3.3,0.8c-1.1,0.4-2,1-2.7,1.6c-0.7,0.6-1.4,1.2-2,1.7c-0.6,0.6-1,1-1.3,1.4l-0.4,0.6L2.8,18z M11.9,39.9v-0.7
		c0.1,0,0.2,0,0.4,0c0.2,0,0.5-0.1,0.9-0.3c0.4-0.2,0.8-0.4,1.1-0.7c0.3-0.3,0.6-0.8,0.9-1.5c0.3-0.7,0.4-1.5,0.4-2.5V16.6h3.1v17.7
		c0,0.2,0,0.4,0,0.6c0,0.3-0.1,0.7-0.3,1.4c-0.2,0.7-0.5,1.3-1,1.8c-0.4,0.5-1.1,0.9-2.1,1.3c-0.8,0.3-1.7,0.5-2.8,0.5
		C12.4,39.9,12.2,39.9,11.9,39.9z"/>
	<path class="st1" d="M41.4,8.1c0.5,0.4,0.9,0.9,1.3,1.6c0.4,0.7,0.8,1.3,1,1.8l0.3,0.8l2.3-1.5c-0.6,0.8-0.9,2.3-0.9,4.6v6
		c0,1.7-0.1,2.7-0.2,2.8l2.3-2.5c0.4,0,0.8-0.1,1.2-0.1c2.3,0,4.1,0.4,5.4,1.2c1.5,0.9,2.3,2.7,2.3,5.4v11.1c0,3.8,0.2,6.8,0.7,9
		c0.5,2.2,1.5,3.4,3.1,3.6v0.7c-0.2,0-0.4,0-0.6,0c-1.1,0-2-0.2-2.9-0.6c-0.9-0.5-1.6-1.1-2-1.7c-0.4-0.6-0.8-1.6-1-2.8
		s-0.4-2.2-0.4-3c0-0.7,0-1.8,0-3.1V28.3c0-0.9-0.1-1.7-0.4-2.4s-0.5-1.3-0.9-1.7c-0.3-0.4-0.7-0.8-1-1c-0.3-0.3-0.6-0.4-0.9-0.5
		l-0.4-0.1l-4.5,4.8v12.1c0,0.4,0,0.9,0,1.6c0,0.3,0,0.7,0,1.1c0,0.4,0,0.7,0,1.1c0,0.8,0.1,1.6,0.2,2.4c0.1,0.8,0.2,1.6,0.4,2.3
		s0.4,1.4,0.7,2c0.3,0.6,0.6,1.1,1.1,1.5c0.5,0.4,1,0.6,1.6,0.6v0.7c-0.2,0-0.4,0-0.6,0c-1.1,0-2-0.1-2.9-0.6
		c-1-0.5-1.7-1.1-2.1-1.7c-0.5-0.6-0.8-1.6-1.1-2.8s-0.4-2.2-0.4-3c0-0.8-0.1-1.8-0.1-3.2v-14v-12c0-1.5-0.1-2.9-0.2-4.2
		c-0.1-1.2-0.3-2.1-0.4-2.5L41.4,8.1z"/>
</g>
<g class="st0">
	<path class="st1" d="M57.8,36.2l3.7-1.7c0-1.1,0-2.1,0.1-3.1c0.1-1,0.2-1.7,0.2-2.1l0.1-0.7c0.2-1.3,0.7-2.5,1.4-3.4
		c0.7-1,1.4-1.6,2.1-2.1c0.8-0.4,1.5-0.8,2.2-1c0.7-0.2,1.3-0.4,1.7-0.4h0.7c0.1,0,0.2,0,0.4,0c1.2,0,2.4,0.2,3.3,0.6
		c1.1,0.4,1.9,1,2.4,1.6c0.5,0.7,0.9,1.3,1.3,2c0.3,0.7,0.5,1.2,0.6,1.7l0.1,0.7l-13.6,6.1v5c0,1.1,0,2,0,2.6c0,0.6,0.1,1.5,0.2,2.6
		s0.3,2,0.7,2.6s0.7,1.4,1.2,2.1c0.5,0.7,1.2,1.3,2,1.8c0.9,0.4,1.9,0.7,3,0.8v0.7c-0.2,0-0.3,0-0.5,0c-3.5,0-6-0.8-7.4-2.5
		c-1.5-1.8-2.3-4.7-2.4-8.5v-4.5v-1.4l-1.3,0.6H57.8z M64.5,33.1l10.7-4.8c0-0.2-0.1-0.4-0.2-0.6c-0.1-0.3-0.2-0.7-0.5-1.4
		c-0.2-0.7-0.5-1.3-0.9-1.8c-0.4-0.5-0.8-1-1.5-1.4s-1.3-0.6-2-0.6c-0.2,0-0.6,0.1-0.9,0.2s-1,0.5-1.9,1.3c-0.9,0.8-1.6,1.8-2,3.1
		C64.8,28.4,64.5,30.5,64.5,33.1z"/>
</g>
<g class="st0">
	<path class="st1" d="M78.5,44.4c0-2.4,0.1-4,0.3-4.7L91,34.2v-2c0,0,0-0.3,0-0.9c0-0.1,0-0.3,0-0.5c0-0.5,0-1.1-0.1-1.8
		c-0.1-0.9-0.3-1.9-0.5-2.8c-0.2-0.9-0.6-1.7-1.1-2.5c-0.5-0.7-1.2-1.2-2-1.4c-0.1,0-0.3,0-0.5,0.1c-0.2,0-0.5,0.2-1,0.4
		c-0.5,0.2-0.9,0.6-1.2,1c-0.4,0.4-0.7,1-1,1.8c-0.3,0.8-0.4,1.8-0.4,2.9H80c0-2.3,0.7-4,2-5.1c1.4-1.1,3.2-1.7,5.5-1.7
		c1.4,0,2.5,0.3,3.4,0.8c0.9,0.5,1.6,1.3,2,2.2c0.4,1,0.7,2,0.9,3c0.2,1,0.2,2.2,0.2,3.6v10.1c0,3.8,0.2,6.4,0.7,7.8
		c0.1,0.2,0.2,0.5,0.4,0.8c0.2,0.3,0.5,0.8,1.1,1.3c0.6,0.6,1.2,0.8,1.8,0.8v0.6c-0.1,0-0.3,0.1-0.5,0.1c-0.1,0-0.2,0-0.2,0
		c-0.2,0-0.5,0-0.9-0.1c-0.6,0-1.1-0.2-1.6-0.3c-0.5-0.2-1-0.5-1.5-1c-0.5-0.5-1-1.1-1.2-1.9L88,52c-0.2,0.1-0.5,0.3-0.9,0.4
		c-0.4,0.2-1.2,0.3-2.3,0.3c0,0-0.1,0-0.1,0.1c-1.1,0-2.1-0.3-3.1-0.9c-0.2-0.1-0.5-0.4-0.9-0.7c-0.3-0.3-0.8-1.1-1.3-2.4
		C78.8,47.5,78.5,46,78.5,44.4z M81.6,44.1c0,0.4,0,0.9,0.1,1.7c0.1,0.9,0.2,1.8,0.4,2.6c0.2,0.8,0.5,1.6,1,2.3s1.1,1.3,1.8,1.5
		l6.6-4.3c0,0-0.1-0.1-0.2-0.4c-0.1-0.2-0.1-1.4-0.2-3.5c0-1.4-0.1-3.1-0.1-5.1c0-1,0-2.1,0-3.3l-9.2,4.1L81.7,43L81.6,44.1z"/>
</g>
<g class="st0">
	<path class="st1" d="M96.7,19h3.2v-3.5c0-1.5-0.1-2.9-0.3-4.1c-0.2-1.2-0.3-2.1-0.5-2.6L99,8.2c0.4,0.4,0.8,0.9,1.3,1.6
		c0.4,0.7,0.8,1.3,1.1,1.8l0.3,0.8l2.3-1.5c-0.6,0.9-0.9,2.5-0.9,4.7V19h2.3l1.4,2.7H103v17.8c0,4.4,0.3,7.5,0.8,9.1
		c0.5,1.7,1.6,2.8,3.1,3.4v0.6c-0.2,0-0.4,0-0.6,0c-1.1,0-2-0.2-2.8-0.6c-0.9-0.5-1.6-1-2.1-1.5c-0.5-0.6-0.8-1.5-1.1-2.8
		s-0.4-2.2-0.4-2.9c0-0.7,0-1.8,0-3.3V21.7h-2L96.7,19z"/>
</g>
<g class="st0">
	<path class="st1" d="M105.4,36.2l3.7-1.7c0-1.1,0-2.1,0.1-3.1c0.1-1,0.2-1.7,0.2-2.1l0.1-0.7c0.2-1.3,0.7-2.5,1.4-3.4
		c0.7-1,1.4-1.6,2.1-2.1c0.8-0.4,1.5-0.8,2.2-1c0.7-0.2,1.3-0.4,1.7-0.4h0.7c0.1,0,0.2,0,0.4,0c1.2,0,2.4,0.2,3.3,0.6
		c1.1,0.4,1.9,1,2.4,1.6c0.5,0.7,0.9,1.3,1.3,2c0.3,0.7,0.5,1.2,0.6,1.7l0.1,0.7l-13.6,6.1v5c0,1.1,0,2,0,2.6c0,0.6,0.1,1.5,0.2,2.6
		s0.3,2,0.7,2.6s0.7,1.4,1.2,2.1c0.5,0.7,1.2,1.3,2,1.8c0.9,0.4,1.9,0.7,3,0.8v0.7c-0.2,0-0.3,0-0.5,0c-3.5,0-6-0.8-7.4-2.5
		c-1.5-1.8-2.3-4.7-2.4-8.5v-4.5v-1.4l-1.3,0.6H105.4z M112.2,33.1l10.7-4.8c0-0.2-0.1-0.4-0.2-0.6c-0.1-0.3-0.2-0.7-0.5-1.4
		c-0.2-0.7-0.5-1.3-0.9-1.8c-0.4-0.5-0.8-1-1.5-1.4s-1.3-0.6-2-0.6c-0.2,0-0.6,0.1-0.9,0.2s-1,0.5-1.9,1.3c-0.9,0.8-1.6,1.8-2,3.1
		C112.5,28.4,112.2,30.5,112.2,33.1z"/>
</g>
<g class="st0">
	<path class="st1" d="M126.4,22.8h2.4c1.4,1.9,2.1,2.9,2.1,3.2c0-0.4,1.3-1.8,3.7-4.2c0.5-0.1,0.9-0.1,1.4-0.1c1.6,0,3,0.4,4.2,1.4
		c1.5,1.2,2.3,3,2.3,5.3h-3.1c0-0.8-0.1-1.6-0.3-2.3s-0.4-1.2-0.7-1.6c-0.2-0.4-0.5-0.8-0.8-1.1c-0.3-0.3-0.5-0.5-0.7-0.6l-0.2-0.1
		l-4.2,4.7v12c0,0.1,0,0.2,0,0.5c0,0.1,0,0.2,0,0.4c0,7.9,1.3,11.8,3.8,11.8h0.1v0.7c-0.2,0-0.4,0-0.6,0c-0.5,0-1,0-1.5-0.1
		c-0.6-0.1-1.2-0.3-1.6-0.4c-0.5-0.2-0.9-0.5-1.2-0.9c-0.4-0.5-0.6-0.8-0.9-1.1c-0.2-0.3-0.4-0.8-0.6-1.5c-0.2-0.8-0.3-1.3-0.4-1.6
		c-0.1-0.3-0.1-0.9-0.2-1.8c0-0.9-0.1-1.5-0.1-1.7s0-0.9-0.1-1.9v-14L126.4,22.8z"/>
</g>
<g class="st0">
	<path class="st1" d="M156.8,52c0.3-1,0.8-1.9,1.5-2.6c0.7-0.8,1.3-1.3,1.9-1.5l0.8-0.4c0.9-0.3,1.8-0.4,2.7-0.4
		c0.4,0,0.8,0,1.2,0.1c1.3,0.2,2.5,0.5,3.4,1l1.4,0.6c2,0.8,3.6,1.2,4.8,1.2c0.1,0,0.2,0,0.3,0c1.2-0.1,2.1-0.4,2.6-1l0.7-0.8
		l0.6,0.4c-0.5,1.3-1.3,2.3-2.2,3c-0.9,0.7-1.7,1-2.4,1l-1,0.1c-0.7,0-1.5-0.1-2.4-0.4c-0.9-0.2-1.7-0.5-2.3-0.7l-0.9-0.4
		c-1.4-0.7-2.8-1.1-4-1.3c-0.5-0.1-1-0.1-1.4-0.1c-0.7,0-1.2,0.1-1.7,0.2c-0.7,0.2-1.4,0.6-1.9,1c-0.5,0.4-0.9,0.8-1.1,1.1l-0.3,0.5
		L156.8,52z M164.6,39.5v-0.4c0.8,0,1.5-0.4,1.9-1.3c0.4-0.9,0.7-1.8,0.7-2.7v-1.3v-19l5.3-5.4h4.7c3.9,0,6.8,1.1,8.5,3.3l3.4-3.3
		h4.8c4,0.1,7,1.3,8.9,3.8c0.1-0.3,0.3-0.6,0.6-1c0.3-0.3,0.6-0.6,0.9-0.9c0.3-0.2,0.5-0.4,0.8-0.6l0.4-0.3c-1,1.2-1.4,2.7-1.4,4.7
		v2.4v27.9c0,0.2,0,0.4,0,0.7c0,0.3,0.1,0.9,0.2,1.6c0.1,0.8,0.3,1.5,0.6,2.1s0.7,1.2,1.2,1.6c0.6,0.5,1.2,0.7,2,0.7v0.6
		c-0.2,0-0.4,0.1-0.7,0.1c0,0-0.1,0-0.2,0.1c-0.4,0-0.9-0.1-1.6-0.2c-0.8-0.1-1.5-0.4-2.1-0.7c-0.6-0.4-1.2-1-1.7-1.9
		c-0.5-0.9-0.8-2.1-0.8-3.4V43V18c0-1.7-0.3-3.1-0.9-4.3c-0.6-1.2-1.4-2-2.3-2.4c-0.9-0.5-1.8-0.8-2.7-1c-0.9-0.2-1.7-0.3-2.3-0.3
		h-0.9c-3.2,3.1-4.8,4.7-5,4.8c0.3,0.8,0.5,1.8,0.5,3c0,1.2,0.1,4.2,0.1,9.1h5.7l-1.6,2.9h-4.1v15.5c0,0.2,0,0.4,0,0.7
		c0,0.3,0.1,0.9,0.2,1.6c0.1,0.8,0.3,1.5,0.5,2.1s0.6,1.2,1.2,1.6c0.5,0.5,1.2,0.7,2,0.7v0.6c-0.1,0-0.2,0-0.4,0c-0.2,0-0.5,0-1,0
		s-1-0.1-1.4-0.2c-0.4-0.1-0.9-0.3-1.5-0.6c-0.5-0.3-1-0.6-1.4-1.1c-0.4-0.4-0.7-1-1-1.8c-0.3-0.8-0.4-1.6-0.4-2.6V43V29.8h-5.6
		l1.5-2.9h4.1V18c0-1-0.2-2.1-0.6-3.3c-0.3-1-0.9-1.9-1.6-2.6c-0.7-0.7-1.5-1.2-2.2-1.5c-0.8-0.3-1.5-0.5-2.2-0.6
		C177,10,176.4,10,176,10h-0.7l-5,4.8v0.8v18.6c0,1.8-0.5,3.2-1.4,4.1c-0.9,0.9-1.8,1.3-2.7,1.2c0,0-0.1,0-0.1,0H164.6z"/>
	<path class="st1" d="M208.3,22.4v-0.7c0.1,0,0.2,0,0.4,0c0.8,0,1.6,0.1,2.2,0.4c0.7,0.3,1.3,0.7,1.8,1.3c0.4,0.6,0.8,1.2,1.1,1.8
		c0.3,0.6,0.5,1.4,0.6,2.4c0.1,1,0.2,1.8,0.2,2.4s0,1.4,0,2.5c0,0.1,0,0.2,0,0.2c0,0.1,0,0.1,0,0.2c0,0.1,0,0.2,0,0.2v13
		c0,1.1,0.1,2.1,0.4,2.9c0.3,0.8,0.6,1.5,1,1.9c0.4,0.4,0.8,0.7,1.2,0.9c0.4,0.2,0.7,0.4,1,0.4l0.4,0.1v0.4c-0.2,0-0.3,0-0.5,0
		c-1.8,0-3.3-0.4-4.6-1.2c-1.3-0.9-2-2.3-2-4.3V31.5C211.4,25.6,210.3,22.5,208.3,22.4z M209.1,16.2l3.4-5.6h3.1l-3.4,5.6H209.1z"/>
	<path class="st1" d="M219.4,35.6h3.2v-8.2l-3.1-4.6h2.4c0.3,0.5,0.6,0.9,0.9,1.2c0.3,0.4,0.5,0.6,0.6,0.8c0.1,0.1,0.2,0.3,0.3,0.4
		s0.2,0.3,0.2,0.3c0,0.1,0.1,0.2,0.1,0.4c0-0.5,1.1-1.9,3.2-4.2c0.4,0,0.8-0.1,1.1-0.1c1.6,0,3,0.5,4.1,1.5c1.4,1.2,2.1,3,2.2,5.3
		h-3.1c0-1.3-0.2-2.5-0.6-3.4c-0.4-1-0.7-1.6-1.1-1.9l-0.6-0.4l-3.7,4.7v8.2h2.2l1.3,2.7h-3.5c-0.1,0.7-0.1,1.3-0.1,2.1
		c0,0.7,0.1,1.5,0.1,2.3c0.1,1.6,0.3,3,0.6,4.4c0.3,1.4,1,2.5,2.1,3.5c1.1,1,2.6,1.5,4.4,1.6v0.7c-0.1,0-0.2,0-0.3,0
		c-1.5,0-3.1-0.3-4.8-0.8c-1.9-0.6-3-1.5-3.4-2.8c0,0.4-0.2,0.8-0.6,1.1l-1.7,2.4h-2.4l3.7-5.5c-0.2-0.7-0.4-1.5-0.4-2.5
		c-0.1-0.9-0.1-1.7-0.1-2.3v-0.9v-3.3h-2L219.4,35.6z"/>
</g>
<g class="st0">
	<path class="st1" d="M0.6,110.3c0.1-0.1,0.1-0.5,0-1.2c0-0.1,0-0.3,0-0.5c0-0.6,0.1-1.4,0.2-2.4c0.2-1.3,0.6-2.7,0.9-4
		c0.4-1.3,1-2.7,2-4.2s2.2-2.8,3.6-3.8h3.1c-0.2,0.2-0.4,0.4-0.7,0.6s-0.9,0.9-1.7,1.9c-0.8,1-1.5,2-2.1,3.1
		c-0.6,1.1-1.1,2.5-1.6,4.1s-0.7,3.4-0.7,5.2c0,4.6,1.5,8.5,4.6,11.9c3,3.4,7.1,5.1,12.2,5.1c1.7,0,3.3-0.2,4.8-0.6
		c1.5-0.4,2.7-0.8,3.6-1.3c0.9-0.5,1.7-1,2.3-1.5c0.6-0.5,1.1-1,1.3-1.3l0.4-0.6c1.2-1.6,1.8-4,2-7.1c0-0.7,0.1-1.4,0.1-2
		c0-2.2-0.3-4.1-0.9-5.5c-0.5-1.4-1.2-2.7-2.1-3.8c-0.9-1.1-1.7-1.8-2.5-2.3c-0.8-0.5-1.6-0.8-2.3-1.1c-0.7-0.3-1.3-0.4-1.8-0.5
		h-0.7c-1.6,0-2.9,0.3-4,0.7c-1.1,0.5-1.9,1-2.3,1.8c-0.5,0.7-0.8,1.4-1,1.9c-0.2,0.6-0.3,1.1-0.3,1.6v3.7c0,0.2,0,0.4,0,0.7
		c0,0.3-0.1,0.8-0.3,1.5c-0.2,0.7-0.6,1.3-1,1.8c-0.4,0.5-1.2,1-2.1,1.4c-0.8,0.3-1.8,0.4-2.9,0.4c-0.2,0-0.5,0-0.7,0v-0.7
		c0.1,0,0.3,0,0.4,0c0.2,0,0.5-0.1,0.9-0.3c0.5-0.2,0.9-0.4,1.2-0.7c0.4-0.3,0.7-0.8,1-1.5c0.3-0.7,0.4-1.5,0.4-2.5V91
		c0-0.2,0-0.5,0-0.8c0-0.3,0.2-0.9,0.5-1.8c0.3-0.9,0.7-1.6,1.3-2.3c0.6-0.6,1.5-1.2,2.8-1.7c1.2-0.5,2.5-0.7,4.2-0.7
		c0.1,0,0.2,0,0.4,0c0.2,0,0.5,0,0.9,0s1,0.1,2,0.4c1,0.2,1.8,0.6,2.5,1.1c0.7,0.5,1.4,1.3,2,2.4c0.6,1.1,0.9,2.4,0.9,4h-3.1
		c0-4.8-1.8-7.2-5.3-7.2c-0.2,0-0.4,0-0.6,0s-0.7,0.1-1.4,0.3c-0.7,0.2-1.2,0.5-1.7,0.9c-0.5,0.4-1,1.1-1.4,2.1
		c-0.4,1-0.6,2.1-0.6,3.5v6.9c0,1.1-0.1,2.1-0.4,2.8c0.6-0.8,1.4-1.5,2.5-2c0.8-0.3,1.6-0.6,2.5-0.8c0.9-0.2,1.5-0.3,2-0.3h0.7
		c1.5,0,3,0.2,4.3,0.5c1.3,0.3,2.4,0.7,3.2,1.2c0.8,0.5,1.5,0.9,2,1.4c0.6,0.5,1,0.9,1.2,1.2l0.4,0.4c1,1.5,1.8,3.2,2.2,4.9
		c0.4,1.4,0.6,2.7,0.6,3.9c0,0.3,0,0.6-0.1,0.8c-0.1,1.4-0.3,2.6-0.5,3.8c-0.3,1.2-0.5,2.1-0.8,2.7l-0.5,0.9
		c-0.1,0.2-0.2,0.5-0.4,0.8c-0.2,0.4-0.7,1-1.6,1.8c-0.9,0.9-1.9,1.6-2.9,2.3c-1.1,0.7-2.6,1.3-4.6,1.8c-2,0.6-4.1,0.8-6.4,0.8
		c-6.1,0-10.9-1.6-14.3-4.9C2.7,118.9,0.9,114.9,0.6,110.3z"/>
	<path class="st1" d="M39.1,96.8v-0.7c1.2,0,2.1,0.3,3,0.8c0.8,0.5,1.4,1,1.8,1.6c0.4,0.6,0.7,1.5,0.9,2.6c0.2,1.1,0.3,2,0.3,2.7
		c0,0.7,0,1.6,0,2.9c0,0.3,0,0.5,0,0.7L45,120.4c0,1.4,0.2,2.6,0.8,3.5c0.6,1,1.2,1.6,1.8,1.8l0.9,0.4l4.7-4.6c0,0-0.1-0.2-0.1-0.4
		c-0.1-0.4-0.1-1-0.1-1.8c0-0.2,0-0.5-0.1-0.7c0-0.5,0-0.9,0.1-1.4v-0.9c0.1-5,0.1-7.5,0.1-7.6s0-0.5,0-1.2c0-0.7,0-1.3,0-1.8
		c0-0.5,0-1.2-0.1-2.1c0-0.9-0.1-1.6-0.2-2.3c-0.1-0.7-0.3-1.3-0.5-2c-0.2-0.7-0.5-1.2-0.8-1.7c-0.4-0.5-0.8-0.7-1.3-0.9v-0.7
		c1.2,0,2.1,0.3,2.9,0.8s1.4,1,1.8,1.6c0.4,0.6,0.7,1.5,0.9,2.6c0.2,1.1,0.3,2,0.3,2.7c0,0.7,0,1.7,0,2.9c0,0.3,0,0.5,0,0.6
		l-0.1,6.5c0,0.9,0,1.7,0,2.4s0,1.4,0,1.9c0,1.2,0.1,2,0.1,2.6l0.1,0.8c0.2,1,0.4,1.8,0.7,2.5c0.3,0.7,0.6,1.2,0.9,1.5
		c0.3,0.3,0.6,0.5,0.9,0.6s0.5,0.2,0.7,0.2h0.3v0.7c-0.2,0-0.4,0-0.6,0c-2.7,0-4.5-1.2-5.5-3.6c-0.1,0.3-0.5,0.8-1,1.3l-2.1,2.2
		c-0.3,0-0.6,0-0.9,0c-1.2,0-2.3-0.1-3.3-0.4c-1.2-0.3-2.3-1-3.2-2.1c-0.9-1.1-1.4-2.5-1.4-4.3c0-0.1,0.1-3.8,0.2-11.1
		c0-0.7,0-1.4,0-2c0-3-0.2-5.3-0.5-6.8C41.1,98.5,40.3,97.3,39.1,96.8z"/>
</g>
<g class="st0">
	<path class="st1" d="M59.4,97.2h2.4l2.2,3.1c0-0.4,0.3-0.8,0.8-1.3l2.9-2.9c0.5,0,1-0.1,1.4-0.1c3.4,0,5.7,1.1,6.9,3.2
		c0-0.2,1-1.3,2.9-3.1c0.6,0,1.1-0.1,1.6-0.1c4.7,0,7.1,2.2,7.1,6.7v11c0,0.1,0,0.2,0,0.5c0,0.1,0,0.2,0,0.4c0,7.6,1.3,11.5,4,11.7
		v0.7c-0.3,0-0.6,0.1-0.9,0.1c-0.7,0-1.4-0.1-2-0.2c-0.8-0.2-1.5-0.6-2-1.3c-0.5-0.6-0.9-1.3-1.2-1.8c-0.3-0.6-0.5-1.4-0.7-2.5
		c-0.1-1.1-0.2-2-0.2-2.6c0-0.6-0.1-1.6-0.1-2.8v-13c0-0.9-0.1-1.7-0.3-2.4c-0.2-0.7-0.5-1.3-0.8-1.7c-0.3-0.4-0.7-0.8-1-1
		c-0.3-0.3-0.6-0.5-0.8-0.6l-0.4-0.1l-4.4,5.2c0,0.1,0,0.2,0,0.2c0,0.1,0,0.2,0,0.3c0,0.1,0,0.3,0,0.4s0,0.4,0,0.7c0,0.3,0,0.7,0,1
		s0,0.9,0,1.5c0,0.6,0,1.3,0,2c0,0.7,0,1.6,0,2.6c0,1,0,2.1,0,3.3c0,8,1.3,12.1,3.8,12.2v0.7c-0.3,0-0.6,0.1-0.8,0.1
		c-1.1,0-2-0.2-2.7-0.7c-1-0.6-1.7-1.5-2.2-2.7c-0.4-1.2-0.7-2.5-0.9-3.7c-0.2-1.2-0.3-2.6-0.3-4.1v-13c0-1.4-0.3-2.6-0.9-3.6
		s-1.2-1.6-1.9-1.8l-1-0.4l-4.2,4.8v12c0,0.1,0,0.4,0,0.7c0,1.1,0,1.9,0,2.6c0,0.7,0.1,1.6,0.2,2.9c0.1,1.2,0.3,2.2,0.6,3
		c0.2,0.8,0.7,1.5,1.2,2.2c0.6,0.7,1.2,1.1,2,1.3v0.7c-0.3,0-0.6,0.1-0.9,0.1c-0.9,0-1.7-0.2-2.4-0.5c-0.9-0.4-1.6-0.9-2-1.5
		c-0.5-0.6-0.8-1.4-1.1-2.6c-0.3-1.2-0.4-2.2-0.5-2.9c0-0.8-0.1-1.9-0.1-3.3c0-0.1,0-0.2,0-0.2c0-0.1,0-0.1,0-0.2v-14L59.4,97.2z"/>
</g>
<g class="st0">
	<path class="st1" d="M90.3,97.2h2.4l2.2,3.1c0-0.4,0.3-0.8,0.8-1.3l2.9-2.9c0.5,0,1-0.1,1.4-0.1c3.4,0,5.7,1.1,6.9,3.2
		c0-0.2,1-1.3,2.9-3.1c0.6,0,1.1-0.1,1.6-0.1c4.7,0,7.1,2.2,7.1,6.7v11c0,0.1,0,0.2,0,0.5c0,0.1,0,0.2,0,0.4c0,7.6,1.3,11.5,4,11.7
		v0.7c-0.3,0-0.6,0.1-0.9,0.1c-0.7,0-1.4-0.1-2-0.2c-0.8-0.2-1.5-0.6-2-1.3c-0.5-0.6-0.9-1.3-1.2-1.8c-0.3-0.6-0.5-1.4-0.7-2.5
		c-0.1-1.1-0.2-2-0.2-2.6c0-0.6-0.1-1.6-0.1-2.8v-13c0-0.9-0.1-1.7-0.3-2.4c-0.2-0.7-0.5-1.3-0.8-1.7c-0.3-0.4-0.7-0.8-1-1
		c-0.3-0.3-0.6-0.5-0.8-0.6l-0.4-0.1l-4.4,5.2c0,0.1,0,0.2,0,0.2c0,0.1,0,0.2,0,0.3c0,0.1,0,0.3,0,0.4s0,0.4,0,0.7c0,0.3,0,0.7,0,1
		s0,0.9,0,1.5c0,0.6,0,1.3,0,2c0,0.7,0,1.6,0,2.6c0,1,0,2.1,0,3.3c0,8,1.3,12.1,3.8,12.2v0.7c-0.3,0-0.6,0.1-0.8,0.1
		c-1.1,0-2-0.2-2.7-0.7c-1-0.6-1.7-1.5-2.2-2.7c-0.4-1.2-0.7-2.5-0.9-3.7c-0.2-1.2-0.3-2.6-0.3-4.1v-13c0-1.4-0.3-2.6-0.9-3.6
		s-1.2-1.6-1.9-1.8l-1-0.4l-4.2,4.8v12c0,0.1,0,0.4,0,0.7c0,1.1,0,1.9,0,2.6c0,0.7,0.1,1.6,0.2,2.9c0.1,1.2,0.3,2.2,0.6,3
		c0.2,0.8,0.7,1.5,1.2,2.2c0.6,0.7,1.2,1.1,2,1.3v0.7c-0.3,0-0.6,0.1-0.9,0.1c-0.9,0-1.7-0.2-2.4-0.5c-0.9-0.4-1.6-0.9-2-1.5
		c-0.5-0.6-0.8-1.4-1.1-2.6c-0.3-1.2-0.4-2.2-0.5-2.9c0-0.8-0.1-1.9-0.1-3.3c0-0.1,0-0.2,0-0.2c0-0.1,0-0.1,0-0.2v-14L90.3,97.2z"/>
	<path class="st1" d="M121.6,96.8v-0.7c0.1,0,0.2,0,0.4,0c0.8,0,1.6,0.1,2.2,0.4c0.7,0.3,1.3,0.7,1.8,1.3c0.4,0.6,0.8,1.2,1.1,1.8
		c0.3,0.6,0.5,1.4,0.6,2.4c0.1,1,0.2,1.8,0.2,2.4c0,0.6,0,1.4,0,2.5c0,0.1,0,0.2,0,0.2c0,0.1,0,0.1,0,0.2c0,0.1,0,0.2,0,0.2v13
		c0,1.1,0.1,2.1,0.4,2.9c0.3,0.8,0.6,1.5,1,1.9c0.4,0.4,0.8,0.7,1.2,0.9c0.4,0.2,0.7,0.4,1,0.4l0.4,0.1v0.4c-0.2,0-0.3,0-0.5,0
		c-1.8,0-3.3-0.4-4.6-1.2c-1.3-0.9-2-2.3-2-4.3v-15.7C124.7,100,123.6,96.9,121.6,96.8z M122.4,90.6l3.4-5.6h3.1l-3.4,5.6H122.4z"/>
</g>
<g class="st0">
	<path class="st1" d="M130,110.6l3.7-1.7c0-1.1,0-2.1,0.1-3.1s0.2-1.7,0.2-2.1l0.1-0.7c0.2-1.3,0.7-2.5,1.4-3.4
		c0.7-1,1.4-1.6,2.1-2.1c0.8-0.4,1.5-0.8,2.2-1c0.7-0.2,1.3-0.4,1.7-0.4h0.7c0.1,0,0.2,0,0.4,0c1.2,0,2.4,0.2,3.3,0.6
		c1.1,0.4,1.9,1,2.4,1.6c0.5,0.7,0.9,1.3,1.3,2c0.3,0.7,0.5,1.2,0.6,1.7l0.1,0.7l-13.6,6.1v5c0,1.1,0,2,0,2.6s0.1,1.5,0.2,2.6
		s0.3,2,0.7,2.6c0.3,0.7,0.7,1.4,1.2,2.1c0.5,0.7,1.2,1.3,2,1.8c0.9,0.4,1.9,0.7,3,0.8v0.7c-0.2,0-0.3,0-0.5,0c-3.5,0-6-0.8-7.4-2.5
		c-1.5-1.8-2.3-4.7-2.4-8.5v-4.5v-1.4l-1.3,0.6H130z M136.8,107.5l10.7-4.8c0-0.2-0.1-0.4-0.2-0.6c-0.1-0.3-0.2-0.7-0.5-1.4
		c-0.2-0.7-0.5-1.3-0.9-1.8c-0.4-0.5-0.8-1-1.5-1.4s-1.3-0.6-2-0.6c-0.2,0-0.6,0.1-0.9,0.2s-1,0.5-1.9,1.3c-0.9,0.8-1.6,1.8-2,3.1
		C137.1,102.8,136.8,104.9,136.8,107.5z"/>
</g>
<g class="st0">
	<path class="st1" d="M152.2,120.4h3.1c0,1.5,0.3,2.7,0.9,3.7c0.6,1,1.2,1.6,1.8,1.8l0.9,0.4l4.2-4.9c0-1.7-0.4-3.3-1.1-5
		c-0.7-1.7-1.5-2.9-2.2-3.8l-1.1-1.2l-6.4-7.1c0-0.3-0.1-0.6-0.1-0.9c0-2,0.5-3.7,1.5-5c1.1-1.5,2.8-2.2,5-2.2
		c1.4,0,2.6,0.2,3.6,0.7c1,0.5,1.7,1,2.1,1.7s0.7,1.3,0.9,2s0.3,1.3,0.2,1.7v0.7h-2.9c0-1.2-0.1-2.2-0.4-3.1s-0.6-1.5-1-1.9
		c-0.4-0.4-0.8-0.7-1.2-0.8c-0.4-0.2-0.7-0.3-1-0.3h-0.4c-1.1,0-1.9,0.7-2.4,1.9c-0.5,1.2-0.8,2.5-0.8,3.7v1.8l5.2,6.1
		c1.2,1.3,2.2,2.5,3,3.8s1.4,2.3,1.7,3.1c0.3,0.8,0.5,1.6,0.6,2.3c0.1,0.7,0.2,1.2,0.1,1.5l-0.1,0.5l-5.1,5.6c-0.3,0-0.6,0-0.9,0
		c-0.9,0-1.7,0-2.4-0.1c-0.9-0.1-1.8-0.4-2.8-0.8c-0.9-0.4-1.6-1.1-2.1-2.1C152.4,123.1,152.2,121.9,152.2,120.4z"/>
</g>
</svg>
